<?xml version="1.0" standalone="no"?>
<!DOCTYPE svg PUBLIC "-//W3C//DTD SVG 1.1//EN" "http://www.w3.org/Graphics/SVG/1.1/DTD/svg11.dtd" >
<svg>
<metadata>
Created by FontForge 20120731 at Wed Aug 10 14:26:58 2016
 By ,,,
Copyright (c) 2011-2013 by Cyreal (www.cyreal.org a@cyreal.org). All rights reserved.
</metadata>
<defs>
<font id="Lora-Italic" horiz-adv-x="0" >
  <font-face 
    font-family="Lora"
    font-weight="400"
    font-style="italic"
    font-stretch="normal"
    units-per-em="2048"
    panose-1="2 0 5 3 0 0 0 9 0 4"
    ascent="1638"
    descent="-410"
    x-height="1047"
    cap-height="1434"
    bbox="-258 -582 2526.4 1975"
    underline-thickness="102"
    underline-position="-103"
    slope="-3"
    unicode-range="U+000D-FB02"
  />
<missing-glyph horiz-adv-x="1031" 
d="M113 1024h848l-53 -1024h-848zM229 75h518l45 874h-518z" />
    <glyph glyph-name=".notdef" horiz-adv-x="1031" 
d="M113 1024h848l-53 -1024h-848zM229 75h518l45 874h-518z" />
    <glyph glyph-name=".null" 
 />
    <glyph glyph-name="nonmarkingreturn" 
 />
    <glyph glyph-name="space" unicode=" " horiz-adv-x="539" 
 />
    <glyph glyph-name="exclam" unicode="!" horiz-adv-x="558" 
d="M378 98q-2 -27 -13 -51t-29 -42t-40.5 -28t-46.5 -10q-23 0 -43 9.5t-35 25.5t-24 38t-9 48q0 30 10.5 56t28 45.5t40.5 31t48 11.5q50 -3 81.5 -36t31.5 -98zM314 471h-75l-31 852q0 26 8 52t23.5 46.5t38.5 33t53 12.5q28 0 48.5 -10t33 -27t18.5 -39t6 -45
q0 -10 -1 -15q0 -4 -122 -860z" />
    <glyph glyph-name="quotedbl" unicode="&#x22;" horiz-adv-x="730" 
d="M162 1006l11 461h160l-44 -461h-127zM496 1006l11 461h160l-44 -461h-127z" />
    <glyph glyph-name="numbersign" unicode="#" horiz-adv-x="1654" 
d="M307 0l86 365h-340l33 122h336l111 474h-345l33 122h341l83 351h135l-80 -351h435l83 351h135l-80 -351h343v-2l-31 -120h-340l-107 -474h342l-32 -122h-338l-82 -365h-148l86 365h-429l-83 -365h-147zM564 487h431l111 474h-434z" />
    <glyph glyph-name="dollar" unicode="$" horiz-adv-x="1084" 
d="M193 -26h-111l22 435h72q1 -95 26.5 -163t71.5 -112t111.5 -65t146.5 -21q61 0 114 20t91.5 55.5t60.5 84.5t22 107q0 69 -30 121t-78.5 94t-111 77t-127.5 70t-127.5 73t-111 86t-78.5 109.5t-30 142.5q0 32 8 71t26.5 80t49 80t76 70.5t106.5 52.5t140 25l13 239h110
l-15 -242q114 -15 223 -89l-3 92h103l-25 -448h-76q-1 74 -15 140.5t-48.5 117t-93 80t-148.5 29.5q-65 0 -114.5 -21.5t-83 -56.5t-50.5 -79.5t-17 -90.5q0 -66 30 -117t79.5 -93t112.5 -77.5t128.5 -71.5t128.5 -75t112.5 -87t79.5 -109t30 -141q0 -74 -26.5 -143
t-79 -124t-131 -90.5t-181.5 -42.5l-16 -280h-106l12 280q-32 1 -67.5 5.5t-72 13.5t-72 22t-66.5 31z" />
    <glyph glyph-name="percent" unicode="%" horiz-adv-x="1788" 
d="M282 1100q-1 -10 -1 -20v-39.5t8 -82t28.5 -95.5t56 -71t91.5 -28q62 0 102.5 32.5t64.5 81.5t33.5 106t9.5 106q0 50 -8.5 103t-29.5 97t-56 72.5t-87 28.5q-57 0 -97 -31t-65 -75.5t-37 -95t-13 -89.5zM1543 1381l-1230 -1414l-80 78l1219 1422zM104 1070q4 73 33 144
t80 127.5t123.5 91t164.5 34.5q88 0 153.5 -30.5t109 -80t64.5 -113t21 -129.5q0 -83 -31.5 -160.5t-85.5 -136.5t-126.5 -94.5t-154.5 -35.5q-88 0 -154 29.5t-110 79t-66.5 117t-20.5 157.5zM1132 378q-1 -10 -1 -19.5v-39t8 -82t29 -96t56.5 -71.5t90.5 -28q41 0 72.5 15
t55 40.5t39 58.5t25.5 69t14 73t4 69q0 50 -8.5 103.5t-29.5 97.5t-56 72.5t-87 28.5q-58 0 -97.5 -31t-64.5 -75.5t-36.5 -95t-13.5 -89.5zM954 350q4 73 33 144t80 127.5t123.5 91t164.5 34.5q90 0 155 -31t108 -81.5t63.5 -115t20.5 -131.5q0 -83 -32 -159t-86.5 -134
t-126.5 -93t-152 -35q-88 0 -154 29.5t-110 79t-64.5 112.5t-22 109t-0.5 53z" />
    <glyph glyph-name="ampersand" unicode="&#x26;" horiz-adv-x="1399" 
d="M829 1285q-4 21 -20 41t-41.5 35t-59 24t-72.5 9q-67 0 -119 -24.5t-87.5 -65.5t-54 -94.5t-18.5 -112.5q0 -25 3.5 -55.5t13.5 -61t28 -59.5t46 -51t68 -35.5t95 -13.5q22 0 34 0.5t19.5 0.5t13.5 0.5t15 0.5l-4 -90l-78 2q-71 0 -124 -18t-91.5 -46.5t-64 -65
t-40.5 -74t-21 -72.5t-6 -61q0 -87 33 -150t84 -104t112.5 -61t119.5 -20q119 0 203.5 35.5t138.5 95t79 138.5t25 166h-65q-27 0 -51.5 -2t-50 -9.5t-53 -22t-58.5 -38.5l-41 41q34 51 68.5 83t75.5 49.5t91 23.5t115 6q40 0 77 1.5t71.5 10t67 25.5t65.5 49l45 -35
q-24 -38 -46.5 -68.5t-51.5 -53t-69.5 -37t-100.5 -20.5q0 -55 -11 -115.5t-36 -120t-67 -113.5t-104.5 -95t-147 -65.5t-195.5 -24.5q-110 0 -204.5 23.5t-164 72t-109.5 122t-40 172.5q0 74 24.5 146t73 131t121.5 100.5t169 53.5q-80 16 -133.5 44t-86.5 64.5t-47 80
t-14 91.5q0 93 35 166.5t96.5 125.5t144 79.5t178.5 27.5q82 0 147 -19.5t111 -51t70.5 -72.5t24.5 -84q0 -40 -22.5 -68.5t-67.5 -28.5q-33 0 -57.5 21.5t-24.5 57.5q0 31 18 63z" />
    <glyph glyph-name="quotesingle" unicode="'" horiz-adv-x="407" 
d="M162 1006l11 461h172l-47 -461h-136z" />
    <glyph glyph-name="parenleft" unicode="(" horiz-adv-x="610" 
d="M59 0zM254.021 436.034q0 -308.98 67.9961 -529.968q67.9961 -220.986 202.987 -412.975l-52.9961 -46.9971q-46.9971 44.9971 -95.9941 105.994q-48.9971 60.9961 -94.9941 134.991q-45.998 73.9961 -85.9951 159.49q-39.998 85.4951 -70.4961 180.489t-47.9971 197.988
q-17.499 102.993 -17.499 210.986q0 117.993 23.499 233.486q23.498 115.493 62.9961 224.486t91.9941 208.487q52.4971 99.4941 110.493 184.488q57.9971 84.9951 117.993 153.99q59.9961 68.9961 113.993 115.993l46.9971 -46.9971q-168.99 -213.986 -261.984 -470.471
t-110.993 -603.464z" />
    <glyph glyph-name="parenright" unicode=")" horiz-adv-x="610" 
d="M340 566q0 309 -68 530t-203 413l53 47q47 -45 96 -106t95 -135t86 -159.5t70.5 -180.5t48 -198t17.5 -211q0 -118 -23.5 -233.5t-63 -224.5t-92 -208.5t-110.5 -184.5t-118 -154t-114 -116l-47 47q169 214 262 470.5t111 603.5z" />
    <glyph glyph-name="asterisk" unicode="*" horiz-adv-x="1050" 
d="M582 1041q57 30 122.5 61t131.5 62q23 11 49.5 18.5t50.5 7.5q32 0 51.5 -16t19.5 -48q0 -20 -11.5 -36t-29.5 -27.5t-40.5 -19.5t-44.5 -12q-69 -14 -142.5 -27.5t-139.5 -19.5q45 -40 93 -91t93 -102q20 -23 35.5 -55t15.5 -61t-19.5 -49t-47.5 -20q-15 0 -29 7.5
t-26.5 20t-23 28t-19.5 31.5l-31.5 63t-32 66t-30 65.5t-25.5 61.5q-15 -29 -33.5 -61.5t-38 -65.5l-39 -66t-37.5 -63q-10 -16 -22.5 -31t-27 -27t-30.5 -19t-31 -7q-25 0 -41.5 17t-16.5 41q0 31 19.5 64.5t45.5 59.5q49 51 99 99.5t104 93.5q-64 12 -138 23t-139 24
q-21 4 -41.5 11t-37.5 17.5t-27 24.5t-10 32q0 19 8 33.5t19 23t25 12.5t28 4q23 0 46.5 -7t46.5 -18q63 -30 127 -63t115 -60q-6 31 -10 69t-7.5 78t-5.5 74t-4 81q0 22 3.5 44t12.5 40t24 29t38 11q19 0 32 -8t20.5 -21.5t11 -31t3.5 -36.5q0 -14 -1.5 -26.5t-8.5 -53.5
t-20 -115t-31 -134z" />
    <glyph glyph-name="plus" unicode="+" horiz-adv-x="1047" 
d="M73 707l394 -2l22 407h123l-22 -408l395 -2l-6 -106l-395 -2l-23 -426h-123l23 425l-394 -1z" />
    <glyph glyph-name="comma" unicode="," horiz-adv-x="485" 
d="M116 -325q18 20 38 54t37 75.5t28 87.5t11 108h-3q-13 -5 -25 -7t-23 -2q-20 0 -36.5 8t-28.5 21t-18.5 30.5t-6.5 35.5q0 28 9 49.5t25 36t36.5 22t44.5 7.5q63 0 97 -44.5t34 -116.5q0 -38 -10.5 -88.5t-31.5 -105t-52.5 -109.5t-73.5 -103z" />
    <glyph glyph-name="hyphen" unicode="-" horiz-adv-x="989" 
d="M136 723h727l-6 -127l-727 -8z" />
    <glyph glyph-name="period" unicode="." horiz-adv-x="476" 
d="M320 96q-1 -27 -11.5 -51t-27.5 -41t-38.5 -27t-44.5 -10t-43 9.5t-35 26t-24 39t-9 48.5q0 28 10.5 52.5t28.5 43t41 29t47 10.5q48 0 77 -35t29 -87v-7z" />
    <glyph glyph-name="slash" unicode="/" horiz-adv-x="1339" 
d="M1357 1480l-1296 -2035l-97 68l1280 2043z" />
    <glyph glyph-name="zero" unicode="0" horiz-adv-x="1223" 
d="M307 645q0 -68 5.5 -138.5t18.5 -137t34.5 -125.5t53.5 -102.5t76 -69t102 -25.5q66 0 116.5 33t88 89.5t62.5 131.5t40 158.5t21.5 170.5t6.5 168q0 74 -5.5 147t-18 138.5t-33 121.5t-50.5 97t-71 64t-94 23q-58 0 -105.5 -26t-85 -71t-65.5 -106t-47.5 -131.5
t-31 -147.5t-15 -141.5t-3.5 -120.5zM110 629q0 44 3.5 109t19.5 154t45.5 172.5t73 156.5t102.5 128t134 86.5t168 31.5q90 0 160 -28t122.5 -76.5t88.5 -114.5t58.5 -141.5t32.5 -158t10 -163.5q0 -88 -12.5 -182.5t-39.5 -185.5t-69.5 -172.5t-102.5 -143.5t-138.5 -98
t-177.5 -36q-93 0 -164.5 27t-124.5 73.5t-89 110.5t-58.5 137.5t-32 153.5t-9.5 160z" />
    <glyph glyph-name="one" unicode="1" horiz-adv-x="725" 
d="M469 223q-2 -40 -4 -76t-9 -65l172 8l-4 -90h-508l2 68q53 2 89 19t57.5 47t32 72t12.5 95l45 967h-4l-250 -157l-37 60l399 296h70z" />
    <glyph glyph-name="two" unicode="2" horiz-adv-x="1076" 
d="M123 1159q0 49 29.5 103.5t86.5 100t139.5 75t189.5 29.5q78 0 151 -17.5t129 -58t90 -105.5t34 -161q0 -54 -19.5 -116t-67.5 -133t-129.5 -153.5t-206.5 -177.5q-146 -112 -237 -208t-112 -186l477 -13q50 0 91.5 5t71.5 20.5t47.5 44t19.5 75.5h62l-27 -283h-886
q4 108 42.5 192t99 156t137 138.5t157.5 138.5q66 59 118.5 120.5t89 122t56 119.5t19.5 113q0 58 -12.5 110t-41 91.5t-75 62.5t-115.5 23q-42 0 -81 -11.5t-71.5 -31t-56.5 -46t-37 -56.5q20 -21 26 -45.5t6 -44.5q0 -18 -7 -35.5t-19.5 -30.5t-30 -21t-39.5 -8
q-42 0 -70 27t-28 75z" />
    <glyph glyph-name="three" unicode="3" horiz-adv-x="1117" 
d="M228 188q9 -35 33 -60t57 -41t72.5 -24t80.5 -8q78 0 140.5 24.5t106.5 70t67.5 110t23.5 144.5q0 30 -4 65t-15 69.5t-30.5 66.5t-51 56.5t-76 39t-104.5 14.5q-42 0 -72.5 -1t-62.5 -3l5 92h84q61 0 107 16.5t79.5 43t55.5 60.5t35 69.5t18.5 69.5t5.5 61
q0 57 -11.5 105t-39 83.5t-73 55.5t-114.5 20q-48 0 -90.5 -14.5t-76 -37t-55.5 -50t-29 -53.5q16 -19 21 -40.5t5 -39.5q0 -17 -6.5 -33t-18.5 -28t-28.5 -19t-35.5 -7q-38 0 -64 25t-26 70q0 46 28.5 100t84 100t136.5 76.5t187 30.5q79 0 151 -17.5t127 -57t87.5 -102.5
t32.5 -153q0 -51 -18.5 -106.5t-60 -105.5t-108 -91.5t-161.5 -63.5q94 -8 166 -37.5t120.5 -76t73.5 -107t25 -129.5q0 -73 -21 -134.5t-58 -112t-87 -89t-109 -64.5t-123.5 -39.5t-130.5 -13.5q-106 0 -185 26t-131.5 66.5t-78.5 90.5t-26 98q0 51 28 82.5t73 31.5
q21 0 38 -8t29 -20.5t18.5 -29t6.5 -34.5q0 -19 -5.5 -40.5t-21.5 -41.5z" />
    <glyph glyph-name="four" unicode="4" horiz-adv-x="1080" 
d="M454 67q52 4 85 24t52.5 53.5t28 79t10.5 101.5l3 70h-626l5 101l765 971h70l-41 -954l205 -3l-6 -115h-204l-7 -172q-2 -42 -5 -78t-13 -67l161 6l-6 -84h-498l5 67h16zM640 515l35 667h-4l-530 -660z" />
    <glyph glyph-name="five" unicode="5" horiz-adv-x="1071" 
d="M238 188q1 -36 21.5 -62.5t51 -44t68 -26t73.5 -8.5q89 0 150.5 34t100 89.5t55.5 126t17 142.5q0 38 -4.5 79.5t-16 81.5t-33 75.5t-55 62.5t-81 43t-112.5 16q-52 0 -118 -16t-129 -54l-56 51l33 656h520q58 0 98 7.5t65.5 24t37.5 41.5t14 60h54l-31 -265l-674 -14
l-25 -452q48 20 118 36.5t161 16.5q120 0 203 -37.5t134.5 -98.5t74.5 -138.5t23 -156.5q0 -121 -43 -213t-115 -153.5t-166 -93t-197 -31.5q-93 0 -164.5 24.5t-120 63.5t-73 88.5t-24.5 100.5q0 54 27.5 86t74.5 32q21 0 38 -7.5t29 -20t18.5 -28.5t6.5 -34
q0 -19 -6.5 -41.5t-22.5 -42.5z" />
    <glyph glyph-name="six" unicode="6" horiz-adv-x="1134" 
d="M1030 1210q-3 -45 -30 -70.5t-66 -25.5q-42 0 -66 26.5t-24 61.5q0 17 6.5 39t21.5 40q-5 19 -19.5 38t-37.5 34.5t-55.5 25.5t-73.5 10q-78 -2 -136 -38.5t-100.5 -94t-70.5 -129t-46 -145t-27 -141t-13 -116.5q27 34 62 64.5t78 54t93.5 37.5t107.5 14
q77 0 136.5 -17.5t104 -47.5t74.5 -71t49 -87.5t27 -97t8 -100.5q0 -102 -35.5 -194t-100 -161.5t-155 -110.5t-200.5 -41q-117 0 -200 40.5t-135 116t-76 183.5t-24 243q0 9 0.5 53t6.5 110.5t20 148t41 165t69 163t104.5 141t147 99t197.5 37.5q86 0 149.5 -24t105 -60
t62 -79t20.5 -94zM598 805q-49 0 -104 -22.5t-101.5 -59t-77.5 -84t-31 -97.5q0 -93 12 -182t41.5 -158.5t79.5 -112t127 -42.5q81 0 137.5 34t91.5 89.5t51 126.5t16 146q0 58 -9 121.5t-35 117t-73.5 88.5t-124.5 35z" />
    <glyph glyph-name="seven" unicode="7" horiz-adv-x="926" 
d="M360 -33q-41 3 -56.5 29t-13.5 63q1 33 18 83t41.5 107t52 116t50.5 110q33 72 76.5 169.5t93.5 207t105 224.5t109 221l-540 -3q-41 0 -74 -8t-56 -26t-36.5 -46.5t-15.5 -70.5h-49l14 291h858l-6 -136q-55 -102 -100 -197t-83.5 -189t-71.5 -188.5t-65.5 -194
t-65 -207.5t-69.5 -228q-8 -25 -17.5 -48.5t-23.5 -41.5t-32.5 -28.5t-42.5 -8.5z" />
    <glyph glyph-name="eight" unicode="8" horiz-adv-x="1155" 
d="M1011 1158q0 -71 -26.5 -126.5t-67 -103t-92 -86.5t-107.5 -67q64 -38 120.5 -84t98.5 -99.5t66.5 -113t24.5 -123.5q0 -101 -40 -174t-106 -120.5t-151.5 -70.5t-175.5 -23q-85 0 -164 16.5t-140.5 55t-98.5 100.5t-37 153q0 70 26.5 134t71 120.5t104 105t125.5 87.5
q-134 81 -200.5 167.5t-66.5 174.5q0 100 41 173t106 120t144 70t156 23q75 0 145 -20t124.5 -59t87 -96.5t32.5 -133.5zM512 700q-66 -45 -110 -96t-70 -102.5t-36.5 -100.5t-10.5 -89q0 -128 72.5 -195.5t205.5 -67.5q61 0 112 21t87.5 58t57 88t20.5 112
q0 56 -20.5 106.5t-58.5 94.5t-91 81.5t-90.5 56t-67.5 33.5zM646 814q55 36 95 77.5t65.5 84.5t38 86t12.5 82q0 59 -17.5 104.5t-48.5 76t-74 46.5t-95 16q-63 0 -112 -22.5t-83.5 -59t-52.5 -83.5t-18 -96q0 -94 71 -172.5t219 -139.5z" />
    <glyph glyph-name="nine" unicode="9" horiz-adv-x="1131" 
d="M277 170q6 -20 18.5 -42t35.5 -40.5t57.5 -30.5t85.5 -12q76 0 133 33.5t98 88.5t68 125.5t43 144.5t24 146t11 129q-27 -34 -62 -65t-78 -54.5t-94.5 -37.5t-111.5 -14q-76 0 -134.5 17t-101.5 47t-72 70t-47 86.5t-25.5 96.5t-7.5 99q0 104 31 197t91.5 162.5t150 110
t207.5 40.5q126 -2 209.5 -52.5t133.5 -137t70.5 -202.5t20.5 -248q0 -71 -6 -162.5t-25.5 -187t-56.5 -187t-98.5 -163.5t-152 -116t-216.5 -44q-89 0 -155 23t-109.5 60t-65 83t-21.5 93q0 51 27.5 82.5t71.5 31.5q42 0 65 -27t23 -62q0 -18 -8.5 -42.5t-26.5 -38.5z
M552 633q47 0 93.5 18t87 48t72 69.5t49.5 82.5q-1 103 -13 199.5t-42.5 171.5t-83.5 120.5t-136 45.5q-73 0 -125 -33t-85.5 -88t-49.5 -125t-16 -143q0 -39 4 -81t14.5 -82.5t28 -77.5t45.5 -64.5t66.5 -44t90.5 -16.5z" />
    <glyph glyph-name="colon" unicode=":" horiz-adv-x="519" 
d="M120 0zM353 96q-1 -27 -11.5 -51t-27.5 -41t-38.5 -27t-44.5 -10t-43 9.5t-35 26t-24 39t-9 48.5q0 28 10.5 52.5t28.5 43t41 29t47 10.5q48 0 77 -35t29 -87v-7zM384 928q-1 -27 -11.5 -51t-27.5 -41t-38.5 -27t-44.5 -10t-43 9.5t-35 26t-24 39t-9 48.5q0 28 10.5 52.5
t28.5 43t41 29t47 10.5q48 0 77 -35t29 -87v-7z" />
    <glyph glyph-name="semicolon" unicode=";" horiz-adv-x="554" 
d="M167 -325q18 20 38 54t37 75.5t28 87.5t11 108h-3q-13 -5 -25 -7t-23 -2q-20 0 -36.5 8t-28.5 21t-18.5 30.5t-6.5 35.5q0 28 9 49.5t25 36t36.5 22t44.5 7.5q63 0 97 -44.5t34 -116.5q0 -38 -10.5 -88.5t-31.5 -105t-52.5 -109.5t-73.5 -103zM390 928q-1 -27 -11.5 -51
t-27.5 -41t-38.5 -27t-44.5 -10t-43 9.5t-35 26t-24 39t-9 48.5q0 28 10.5 52.5t28.5 43t41 29t47 10.5q48 0 77 -35t29 -87v-7z" />
    <glyph glyph-name="less" unicode="&#x3c;" horiz-adv-x="1104" 
d="M72 709l934 405l-8 -123l-794 -342v-2l759 -342l-8 -127l-889 397z" />
    <glyph glyph-name="equal" unicode="=" horiz-adv-x="1203" 
d="M139 502l911 -4l-6 -111l-911 -4zM159 895l912 -4l-6 -111l-912 -4z" />
    <glyph glyph-name="greater" unicode="&#x3e;" horiz-adv-x="1103" 
d="M100 179zM1034 584.043l-933.942 -404.975l7.99902 122.992l793.952 341.979v1.99902l-758.954 341.979l8 126.992l888.945 -396.976z" />
    <glyph glyph-name="question" unicode="?" horiz-adv-x="969" 
d="M557 88q-1 -25 -10.5 -47t-25 -38.5t-36 -26t-44.5 -9.5q-42 0 -73.5 30t-31.5 84q0 26 10.5 49.5t27.5 41t38 27.5t43 10q44 0 73 -32t29 -79v-10zM104 1172q0 46 30.5 98t86.5 95.5t135 72.5t176 29q108 0 181.5 -26.5t119 -70.5t65.5 -100t20 -115q0 -24 -7 -70.5
t-43.5 -106t-91.5 -111.5t-113 -96t-110.5 -84t-83.5 -76t-31 -70q0 -23 18 -42.5t63 -19.5q14 0 36 3.5t42 11.5l21 -72q-34 -20 -76 -28.5t-88 -8.5q-18 0 -44.5 7t-51 22.5t-41.5 40t-17 60.5q0 49 32 91.5t82.5 85t104.5 86.5t103.5 98.5t80 121.5t30.5 153q0 49 -12 92
t-39.5 75t-73 50.5t-111.5 18.5q-45 0 -85 -13.5t-71.5 -34.5t-52 -46.5t-25.5 -48.5q18 -17 24 -39.5t6 -41.5q0 -36 -25.5 -64t-67.5 -28t-69 28t-27 73z" />
    <glyph glyph-name="at" unicode="@" horiz-adv-x="1623" 
d="M1009 907q-45 19 -124 19q-51 0 -94 -23t-78 -62t-61.5 -90.5t-44 -109t-26.5 -117.5t-9 -115q0 -88 24.5 -138t72.5 -50q37 0 75.5 31t75 83.5t69 121.5t58 145t42 155t20.5 150zM1537 683q0 -58 -6 -101.5t-26.5 -113t-54.5 -127t-77 -97.5t-87.5 -65t-88.5 -36
t-80 -11q-54 0 -89 15t-55.5 39.5t-29 56.5t-8.5 65q0 45 9 93.5t20 96.5h-4q-44 -117 -88.5 -187t-86.5 -107.5t-81.5 -49t-72.5 -11.5q-41 0 -76.5 14.5t-62 45.5t-42 79t-15.5 114q0 117 33.5 224t97.5 188.5t157.5 130t214.5 48.5q48 0 105 -6t108 -20
q-15 -84 -31.5 -171t-30.5 -166.5t-23.5 -147t-9.5 -113.5q0 -35 5 -64t16.5 -51t30.5 -34t47 -12q47 0 90.5 32t77.5 91t54 142.5t20 185.5q0 151 -40 259t-110.5 177t-165.5 101.5t-205 32.5q-145 0 -263.5 -60t-202.5 -161.5t-129.5 -234.5t-45.5 -279
q0 -106 23.5 -191.5t65 -152.5t98 -115t123 -79.5t140 -46.5t148.5 -15q52 0 111.5 8.5t121 30t121.5 59.5t113 98l47 -51q-110 -120 -254.5 -174t-315.5 -54q-175 0 -305 54t-215.5 146.5t-127.5 214.5t-42 259q0 90 21 186.5t64.5 188t109 173.5t154.5 143.5t201 97.5
t249 36q109 0 200 -24.5t163 -68t126 -102.5t90 -128t54 -145t18 -153z" />
    <glyph glyph-name="A" unicode="A" horiz-adv-x="1293" 
d="M260 223q-9 -24 -16.5 -43t-15 -35t-15 -31t-16.5 -32l153 8v-90h-379l3 68q38 1 68 19.5t55.5 52t48 80.5t45.5 104l462 1149h46l391 -1166q6 -20 13.5 -46.5t14 -55t11 -56.5t4.5 -52v-15l133 8v-90h-449l2 68q37 1 61 9.5t38 22.5t19.5 32.5t5.5 38.5q0 23 -5.5 47
t-11.5 44l-59 192l-524 -12zM539 958q-53 -134 -92.5 -238.5t-71.5 -189.5h469l-216 658h-4z" />
    <glyph glyph-name="B" unicode="B" horiz-adv-x="1267" 
d="M287 1190q2 57 6 96.5t9 65.5l-150 -9l6 91q112 0 223 2t234 2q114 0 203 -19t150 -58.5t93 -100t32 -143.5q0 -53 -19.5 -107.5t-61.5 -102.5t-108.5 -84.5t-159.5 -52.5v-4q109 0 189.5 -25.5t133.5 -71t79 -108t26 -137.5q0 -99 -37.5 -178t-104 -133.5t-158 -83.5
t-198.5 -29h-592l5 68q57 1 87.5 20.5t44.5 54t17 82t6 105.5zM621 1364q-50 0 -80.5 -10t-48 -33.5t-25 -61.5t-10.5 -94l-20 -381q38 0 76.5 1t72.5 3q91 4 153 33.5t100.5 74.5t55.5 101.5t17 115.5q0 78 -27 127t-69 76.5t-94 37.5t-101 10zM394 84q25 -2 59.5 -3t67 -1
h58h32.5q83 0 151 21t116.5 63t75 105t26.5 147q0 83 -27 139.5t-73.5 91t-107.5 49.5t-128 15q-63 0 -112.5 -1.5t-98.5 -4.5l-25 -461q-3 -57 -6 -95.5t-8 -64.5z" />
    <glyph glyph-name="C" unicode="C" horiz-adv-x="1405" 
d="M1342 260q-71 -89 -149 -146t-156 -89.5t-152 -45t-137 -12.5q-148 0 -268 52.5t-204.5 144t-130 216t-45.5 268.5q0 100 20.5 199.5t62 190.5t103.5 169.5t144.5 136t186 90.5t226.5 33q117 0 215 -30t189 -93h2l-5 111h111l-25 -475h-74q-5 96 -35.5 171t-83 126.5
t-125 78.5t-161.5 27q-113 0 -214 -50t-177.5 -142t-121.5 -222.5t-45 -290.5q0 -135 39.5 -246.5t108.5 -191t163 -123t204 -43.5q66 0 133 14.5t130 43.5t119 71.5t101 99.5z" />
    <glyph glyph-name="D" unicode="D" horiz-adv-x="1512" 
d="M406 242q-3 -56 -6 -95t-8 -65q34 -2 62.5 -3t55 -1h51h50.5q139 0 253.5 54t196 148.5t126.5 222t45 275.5q0 132 -37 239.5t-112.5 183.5t-190.5 117.5t-272 41.5q-58 0 -90.5 -13.5t-48.5 -42t-20.5 -72t-7.5 -103.5zM633 1436q178 1 324 -39t249.5 -122.5t160 -208
t56.5 -296.5q0 -100 -22.5 -195.5t-67 -181.5t-112 -158t-157.5 -124t-202.5 -81.5t-248.5 -29.5h-531l5 68q57 2 87.5 21t44 52t16.5 78.5t5 99.5l49 885q2 42 6 79.5t9 68.5l-152 -9l6 91z" />
    <glyph glyph-name="E" unicode="E" horiz-adv-x="1268" 
d="M407 236q-3 -56 -6 -95t-8 -65l391 6q67 1 122 16.5t95.5 52t64.5 97t29 151.5h70l-33 -399h-1049l5 68q57 2 87.5 21t44 52t16.5 78.5t5 99.5l49 885q2 42 6 79.5t9 68.5l-150 -9l4 91h977l-8 -359h-68q5 91 -13.5 147.5t-54.5 88t-86 42t-108 9.5l-176 -4
q-58 -2 -90 -16.5t-48 -44.5t-21 -75.5t-9 -107.5l-18 -328l147 -2q64 -1 111 4t78.5 24.5t47.5 58t19 106.5h68l-23 -447h-67q3 68 -9 105.5t-40.5 55t-74.5 20t-112 0.5l-149 -6z" />
    <glyph glyph-name="F" unicode="F" horiz-adv-x="1107" 
d="M786 498q3 63 -7 99t-34 54t-62.5 22.5t-93.5 4.5q-80 0 -159 -6l-23 -428q-2 -56 -5.5 -96t-8.5 -66l209 8l-5 -90h-514l5 68q57 2 87.5 21t44 52t16.5 78.5t5 99.5l49 885q2 42 6 79.5t9 68.5l-150 -9l4 91h942l-8 -359h-67q4 91 -15.5 147.5t-56.5 88t-88 42t-109 9.5
l-149 -4q-53 -2 -83 -17.5t-45 -44t-19.5 -70t-7.5 -95.5l-19 -377h159q55 1 94 7.5t65 26.5t39.5 57.5t16.5 100.5h68l-23 -448h-67z" />
    <glyph glyph-name="G" unicode="G" horiz-adv-x="1543" 
d="M1325 74h-49q-35 0 -91.5 -12t-131.5 -41q-32 -12 -71 -22t-79.5 -17t-80.5 -11t-73 -4q-148 0 -268 45t-204.5 130.5t-130.5 208.5t-46 278q0 100 20.5 201.5t61.5 194.5t102.5 173.5t144.5 140.5t187 94t230 34q55 0 111.5 -8t110.5 -22.5t103.5 -35t91.5 -46.5l-4 98
h113l-25 -469h-73q-2 96 -34.5 170.5t-88.5 126t-132 78t-165 26.5q-76 0 -147.5 -24t-133.5 -68t-113.5 -107t-88.5 -141.5t-57.5 -170t-20.5 -193.5q0 -135 37.5 -248t105 -194.5t162.5 -127t211 -45.5q40 0 85.5 6t92 18t92 31.5t86.5 46.5l23 446l-144 -8l4 90h457
l-4 -67q-39 0 -65.5 -14.5t-43.5 -37t-27 -50t-15 -54.5t-6.5 -50.5t-2.5 -37.5z" />
    <glyph glyph-name="H" unicode="H" horiz-adv-x="1584" 
d="M1165 693l-734 -9l-23 -440q-3 -56 -6 -96t-8 -66l147 8l-4 -90h-453l5 68q57 2 87 21t43.5 52t16.5 78.5t6 99.5l47 885q2 42 6 79.5t9 68.5l-148 -9l4 91h453l-4 -68q-50 -2 -79.5 -17.5t-45 -43.5t-21 -69.5t-8.5 -96.5l-20 -365h734l23 430q2 42 6 79.5t9 68.5
l-148 -9l4 91h453l-4 -68q-50 -2 -79.5 -17t-45 -43t-21 -69t-8.5 -96l-47 -897q-3 -56 -6 -96t-8 -66l147 8l-4 -90h-452l4 68q57 2 87.5 21t44 52t16.5 78.5t5 99.5z" />
    <glyph glyph-name="I" unicode="I" horiz-adv-x="681" 
d="M289 1204q2 42 6 79.5t9 68.5l-148 -9l4 91h453l-4 -68q-54 -2 -84 -18t-45 -45t-19 -71.5t-6 -97.5l-47 -890q-2 -57 -5.5 -96.5t-8.5 -65.5l147 8l-4 -90h-453l5 68q57 2 87.5 21t44.5 52t16.5 78.5t4.5 99.5z" />
    <glyph glyph-name="J" unicode="J" horiz-adv-x="751" 
d="M149 81q10 -17 31 -24.5t38 -6.5q18 1 39.5 8t41.5 33.5t35 78.5t20 144l53 1038l-209 -9l4 91h537l-5 -68q-51 0 -82.5 -15.5t-50 -43t-26 -64.5t-9.5 -80l-34 -663q-7 -144 -30 -245.5t-65 -165.5t-106 -93t-152 -29q-37 0 -74 7.5t-67 25t-48.5 45t-18.5 67.5
q0 42 24 73.5t67 34.5q25 1 43 -7t30 -21.5t17.5 -30.5t5.5 -33q0 -10 -2 -23t-7 -24z" />
    <glyph glyph-name="K" unicode="K" horiz-adv-x="1365" 
d="M289 1204q2 42 6 79.5t9 68.5l-148 -9l4 91h453l-4 -68q-50 -2 -79.5 -18t-45 -45.5t-21 -71.5t-8.5 -97l-19 -356h160l273 404q27 41 67.5 88.5t90.5 81.5v2l-130 -4l5 84h440l-4 -68q-65 -5 -118.5 -17.5t-103.5 -42t-99.5 -81t-106.5 -135.5l-217 -320
q28 -18 50 -38.5t40.5 -42.5t35 -45.5t33.5 -47.5l215 -305q54 -78 93.5 -122.5t72 -67t61.5 -28t62 -5.5l-4 -68h-242q-15 0 -37 16.5t-47.5 44.5t-54.5 64.5t-57 75.5l-227 331q-35 52 -73 97.5t-73 68.5l-109 -2l-24 -452q-3 -56 -6 -96t-8 -66l147 8l-4 -90h-453l5 68
q57 2 87.5 21t44 52t16.5 78.5t5 99.5z" />
    <glyph glyph-name="L" unicode="L" horiz-adv-x="1181" 
d="M406 236q-3 -56 -6 -95t-8 -65l383 6q64 1 114.5 20.5t85.5 60.5t55 105.5t25 155.5h70l-35 -424h-1008l5 68q57 2 87 21t43.5 52t16.5 78.5t6 99.5l49 885q2 42 5 79.5t10 68.5l-146 -9v91h453l-4 -68q-54 -2 -84 -21.5t-45 -52.5t-19 -78t-6 -100z" />
    <glyph glyph-name="M" unicode="M" horiz-adv-x="1878" 
d="M182 1434h305q62 -161 118 -310t109 -293.5t106.5 -288t110.5 -292.5h5q13 28 28.5 62t31.5 70t31 70t27 62q49 111 104.5 227.5t112 234t112 233t103.5 225.5h295l-4 -68q-38 1 -67 -10.5t-47.5 -37.5t-28 -69t-8.5 -106l6 -932q0 -37 -1 -69t-3 -60l151 8l-6 -90h-450
l4 68h16q42 4 67.5 21.5t38.5 48t17 74t4 99.5v701v88t2 88h-4l-72 -157l-487 -1051h-59q-96 242 -180.5 483t-174.5 483q-15 40 -25.5 69t-20.5 57.5t-20 61t-24 80.5h-4q-4 -115 -11.5 -215t-15.5 -190l-53 -553q-5 -46 -9 -91t-10 -83l154 8l-6 -90h-389l4 68
q48 1 75.5 16.5t43 41t21.5 59t10 71.5l110 1096l-147 -6z" />
    <glyph glyph-name="N" unicode="N" horiz-adv-x="1561" 
d="M1311 -23h-99l-837 1197h-4l-33 -889q-3 -53 -5 -104t-9 -99l147 8l-4 -90h-375l2 68q47 0 75 16.5t43 40.5t20 52t6 52l55 1123l-137 -9l4 91h243l824 -1172h4l43 942q2 45 5.5 81.5t8.5 66.5l-147 -9l4 91h377l-4 -68q-58 -2 -87.5 -21.5t-42.5 -52.5t-15 -78t-5 -100z
" />
    <glyph glyph-name="O" unicode="O" horiz-adv-x="1613" 
d="M835 1385q-87 0 -160.5 -28.5t-133 -77.5t-105.5 -115.5t-77 -142.5t-47 -157.5t-16 -160.5q0 -70 11.5 -145t36.5 -147.5t64 -137.5t94.5 -114.5t127.5 -78.5t162 -29q88 0 162.5 28t134.5 76.5t105.5 114t76 140t46 155t15.5 158.5q0 80 -14 160.5t-42 154t-70 137
t-97 110.5t-123.5 73.5t-150.5 26.5zM100 670q0 159 52.5 303t149.5 254t235 175t309 65q120 0 217.5 -29.5t173 -81t130.5 -120.5t91 -148t53 -164t17 -168q0 -87 -20.5 -179.5t-61.5 -180t-103 -165.5t-144.5 -136.5t-187 -93t-229.5 -34.5q-120 0 -217.5 29t-173 79.5
t-130.5 118.5t-91 146t-53 162.5t-17 167.5z" />
    <glyph glyph-name="P" unicode="P" horiz-adv-x="1222" 
d="M502 539h-35t-44 2l-16 -297q-3 -56 -6 -96t-8 -66l188 10l-4 -92h-494l5 68q57 2 87.5 21t44 52t16.5 78.5t5 99.5l47 885q2 42 6 79.5t9 68.5l-150 -9l6 91q109 2 218.5 2.5t230.5 0.5q296 0 443 -102.5t147 -298.5q-1 -53 -13.5 -110.5t-43 -113t-82 -105t-128.5 -87
t-183 -59.5t-246 -22zM427 626q39 -4 67.5 -5t66.5 -1q87 0 166 26t139 75t97 119.5t42 160.5q4 97 -23.5 165t-81 110.5t-130.5 61.5t-170 19q-49 0 -77 -16t-42.5 -46t-19.5 -73t-7 -98z" />
    <glyph glyph-name="Q" unicode="Q" horiz-adv-x="1614" 
d="M100 670q0 159 52.5 303t149.5 254t235 175t309 65q120 0 217.5 -29.5t173 -81t130.5 -120.5t91 -148t53 -164t17 -168q0 -77 -16 -158t-48 -159.5t-80 -151.5t-112.5 -133t-145.5 -104t-178 -65v-2q43 0 80.5 -3t74.5 -15.5t77.5 -38.5t89.5 -71q71 -66 119.5 -111
t83 -72.5t60.5 -39t52 -11.5h12v-67h-65q-56 0 -97 2t-78 12.5t-74 33.5t-85 66q-51 46 -90.5 86t-72 73.5t-61 59t-57.5 43.5t-61.5 27.5t-73.5 9.5q-120 0 -217.5 29t-173 79.5t-130.5 118.5t-91 146t-53 162.5t-17 167.5zM835 1385q-87 0 -160.5 -28.5t-133 -77.5
t-105.5 -115.5t-77 -142.5t-47 -157.5t-16 -160.5q0 -70 11.5 -145t36.5 -147.5t64 -137.5t94.5 -114.5t127.5 -78.5t162 -29q88 0 162.5 28t134.5 76.5t105.5 114t76 140t46 155t15.5 158.5q0 80 -14 160.5t-42 154t-70 137t-97 110.5t-123.5 73.5t-150.5 26.5z" />
    <glyph glyph-name="R" unicode="R" horiz-adv-x="1281" 
d="M507 639q-7 0 -18.5 0.5t-23.5 1t-22.5 1t-14.5 0.5l-21 -398q-3 -57 -6 -96.5t-8 -65.5l147 8v-90h-457l5 68q57 2 87.5 21t44.5 52t16.5 78.5t4.5 99.5l47 885q2 42 6 79.5t9 68.5l-150 -9l6 91q91 1 177.5 2.5t177.5 1.5q26 0 52.5 -0.5t118 -3.5t185 -27t157 -70
t93 -109t29.5 -139q0 -60 -16 -125.5t-59.5 -124.5t-121.5 -106.5t-201 -72.5v-2q38 -29 69 -73t66 -104l127 -219q24 -41 46.5 -76.5t49.5 -61.5t61.5 -41t82.5 -15l-4 -68h-250q-48 38 -89.5 98t-80.5 129l-126 220q-12 22 -26 47.5t-29.5 51t-33.5 50t-38 44.5
q-17 -1 -34 -1h-35zM432 720q22 -2 41.5 -3.5t40.5 -1.5q95 0 176.5 17.5t141 58.5t93 109t33.5 170q0 142 -84.5 215.5t-265.5 73.5q-54 0 -84 -16t-45 -46.5t-19 -74t-6 -98.5z" />
    <glyph glyph-name="S" unicode="S" horiz-adv-x="1160" 
d="M204 -16h-107l11 436h80q1 -95 30 -164t80 -114t120.5 -67t151.5 -22q62 0 119 17.5t100.5 52t69 84.5t25.5 116q0 72 -31.5 124.5t-83.5 93.5t-118 74t-135 65.5t-135 68t-118 82t-83.5 107t-31.5 142.5q0 34 7.5 76t26.5 85t51 83.5t80.5 72.5t115 51t154.5 19
q39 0 83.5 -5t90 -17t90 -32.5t85.5 -50.5l-3 87h104l-22 -449h-74q-1 74 -21.5 143.5t-62.5 123t-107 86t-155 32.5q-66 0 -118 -21t-88 -56.5t-55 -82t-19 -97.5q0 -66 32 -114.5t84.5 -87t119.5 -70.5t137 -64.5t137 -69.5t119.5 -85t84.5 -111t32 -148q0 -90 -34 -165.5
t-98 -130t-157.5 -85t-211.5 -30.5q-39 0 -85.5 4t-94 14t-93.5 27t-85 43z" />
    <glyph glyph-name="T" unicode="T" horiz-adv-x="1303" 
d="M1206 1001q0 13 0.5 25.5t0.5 24.5q0 79 -11 137t-39.5 96.5t-76.5 57t-122 18.5l-175 -2l-67 -1114q-4 -57 -6.5 -96.5t-7.5 -65.5l170 8l-4 -90h-473l4 68q49 2 78 22t44 53.5t20.5 78.5t8.5 97l63 1038l-210 -1q-65 0 -111 -21.5t-76.5 -65t-46.5 -110.5t-20 -158h-76
l35 433h1186l-10 -433h-78z" />
    <glyph glyph-name="U" unicode="U" horiz-adv-x="1523" 
d="M1335 637q-8 -134 -43 -255t-104.5 -213.5t-177.5 -147t-261 -54.5q-150 0 -253 35.5t-166.5 110t-91.5 188.5t-28 272q0 79 31 613q1 27 2.5 48.5t3.5 41t4.5 38t5.5 38.5l-147 -6l4 88h455l-4 -68q-52 0 -82 -17.5t-45 -42.5t-19.5 -53t-5.5 -49q-30 -568 -30 -617
q0 -100 16 -191t60 -160.5t121 -110.5t200 -41q109 0 190.5 40t136.5 111.5t85 171.5t38 220l37 577q2 42 5.5 79.5t8.5 68.5l-147 -9l4 91h383l-2 -68q-59 -2 -89.5 -21t-44.5 -52.5t-16.5 -79t-5.5 -99.5z" />
    <glyph glyph-name="V" unicode="V" horiz-adv-x="1361" 
d="M52 1434h467l-4 -70q-73 -5 -106.5 -34t-33.5 -81q0 -23 6 -49t17 -57l168 -477q22 -58 43 -114t40 -107t35 -96t27 -79h5q13 36 26 69.5t27.5 68t30.5 72.5t34 83l262 637q21 54 37.5 90.5t30.5 61.5l-158 -9l4 91h416l-4 -68q-45 -2 -79 -13t-61 -34.5t-50 -61
t-45 -92.5l-496 -1188h-53l-402 1092q-20 52 -33.5 93.5t-22 75t-12.5 60.5t-5 50l-115 -5z" />
    <glyph glyph-name="W" unicode="W" horiz-adv-x="2035" 
d="M61 1434h491l-4 -68q-44 -2 -74.5 -9t-49.5 -20.5t-27.5 -34.5t-8.5 -51q0 -22 4 -48.5t12 -59.5l130 -477q12 -46 24 -89t24.5 -86t25.5 -87t26 -92h4q12 34 27 74.5t30 79.5t27.5 72.5t20.5 53.5l311 846h57l213 -772q25 -94 51 -185t51 -188h4q23 60 49.5 128
t53.5 140l242 639q13 34 30.5 74.5t39.5 75.5l-164 -7l4 91h416l-4 -68q-53 -6 -88 -19t-63 -44.5t-54.5 -88.5t-63.5 -151l-426 -1085h-53l-233 806q-15 53 -27.5 95.5t-22 78.5t-17.5 67.5t-15 61.5h-7l-421 -1109h-54l-308 1091q-15 54 -27 95.5t-21 74.5t-14.5 59.5
t-8.5 49.5l-116 -5z" />
    <glyph glyph-name="X" unicode="X" horiz-adv-x="1335" 
d="M64 1434h533v-68l-94 -4q-57 -2 -78.5 -19t-21.5 -41q0 -25 21.5 -69.5t110.5 -180.5t148 -223l213 285q27 37 54.5 73t52 67.5t46.5 57t39 40.5l-172 -9l4 91h404l-4 -68q-49 -7 -94.5 -35t-87.5 -68t-80.5 -88t-73.5 -94l-249 -328l466 -667l119 4l-4 -90h-504l4 68h12
q60 0 84.5 20t24.5 49q0 27 -24.5 71.5t-279.5 407.5l-220 -303q-42 -55 -83.5 -114t-95.5 -119l170 10l-4 -90h-401l4 68q49 10 87 30.5t71 51t65 71.5t70 92l284 380q-85 124 -187 276.5t-128.5 195.5t-43 74.5t-26.5 56t-20 52.5l-115 -5z" />
    <glyph glyph-name="Y" unicode="Y" horiz-adv-x="1313" 
d="M591 553l-324 563q-49 82 -71 137.5t-27 94.5l-127 -5l4 91h520l-4 -68q-71 0 -108.5 -16.5t-49.5 -46t-1 -70.5t38 -90q97 -169 161.5 -276.5t105.5 -168.5h4q40 70 76.5 133t213.5 363l21 35t26 41.5t29.5 42.5t30.5 37l-162 -7l4 91h418l-4 -68q-51 -3 -91.5 -20
t-77.5 -49.5t-72 -81t-74 -113.5q-79 -133 -149 -254t-136 -234q-22 -370 -21 -370q-2 -56 -5.5 -96t-8.5 -66l170 8l-4 -90h-473l4 68q58 2 88 22t43.5 53.5t15.5 78.5t5 97z" />
    <glyph glyph-name="Z" unicode="Z" horiz-adv-x="1254" 
d="M65 94q61 81 140 184t177 235t215.5 295.5t255.5 365.5q32 46 65.5 92t75.5 92l-528 -8q-61 -3 -107.5 -23.5t-79 -62t-51 -104.5t-22.5 -150h-70l35 424h1016l-4 -72l-803 -1116q-24 -33 -43.5 -58t-37 -45t-34 -36t-33.5 -31l506 8q68 1 127 21.5t104 61.5t72.5 104
t32.5 149h70l-35 -420h-1051z" />
    <glyph glyph-name="bracketleft" unicode="[" horiz-adv-x="739" 
d="M239 1546h543l-8 -114l-399 -7l-135 -1826l411 -7l-9 -114h-548z" />
    <glyph glyph-name="backslash" unicode="\" horiz-adv-x="1607" 
d="M99 0zM99.083 1480l1295.92 -2035l96.9941 68l-1279.92 2043z" />
    <glyph glyph-name="bracketright" unicode="]" horiz-adv-x="739" 
d="M0 0zM486.015 -521.905h-542.967l7.99902 113.993l398.976 6.99902l134.992 1825.89l-410.975 6.99902l8.99902 113.993h547.967z" />
    <glyph glyph-name="asciicircum" unicode="^" horiz-adv-x="1686" 
d="M946 1454l596 -571h-176l-517 501h-2l-573 -493h-163l661 563h174z" />
    <glyph glyph-name="underscore" unicode="_" horiz-adv-x="1454" 
d="M55 -102l1260 -9l-7 -106h-1259z" />
    <glyph glyph-name="grave" unicode="`" horiz-adv-x="491" 
d="M139 1405q-26 28 -36 50.5t-10 40.5q0 31 16 48.5t44 17.5q18 0 41 -13.5t46 -51.5l159 -270l-49 -41z" />
    <glyph glyph-name="a" unicode="a" horiz-adv-x="1123" 
d="M948 1012q-17 -126 -33 -252.5t-29 -237t-21 -197.5t-8 -133q0 -20 1 -40t7 -36t17.5 -26t32.5 -10q17 0 36.5 10.5t39.5 34t39 61.5t34 92l58 -12q-7 -36 -26.5 -85.5t-52.5 -95t-80 -77t-108 -31.5q-41 0 -70 13.5t-47 37.5t-26 58t-8 76q0 58 10.5 127t26.5 147h-6
q-32 -101 -66.5 -174t-69.5 -124t-70.5 -82.5t-69 -49t-65 -23.5t-59.5 -6q-55 0 -102.5 19.5t-82.5 62t-55 110.5t-20 165q0 144 37.5 273t112 227t186.5 155.5t262 57.5q63 0 135.5 -9t139.5 -26zM769 948q-31 13 -71 19t-88 6q-93 0 -161.5 -52t-113 -137.5t-66.5 -194
t-22 -221.5q0 -65 6.5 -120.5t22.5 -95.5t41 -62.5t63 -22.5q47 0 94 40t89.5 107t80 156t65 187t43.5 199t17 192z" />
    <glyph glyph-name="b" unicode="b" horiz-adv-x="1047" 
d="M355 1200q-14 -137 -29 -281t-31 -309h6q27 99 58.5 170t65 119.5t69 77.5t70.5 44.5t69 20.5t64 5q70 0 119 -31t79.5 -83t44 -120.5t13.5 -142.5q0 -141 -31.5 -267t-100 -220.5t-176.5 -150t-260 -55.5q-25 0 -58.5 2t-69.5 7.5t-72.5 13.5t-67.5 20q48 763 90 1289
q2 26 3.5 41l2.5 25t2.5 19t3.5 23l-147 -8l8 82q67 0 111.5 4.5t74 12t46 17.5t28.5 21h60q-7 -43 -13.5 -89.5t-12 -92t-10.5 -88zM269 96q25 -25 67.5 -36t83.5 -11q72 1 126.5 27.5t94.5 70.5t66 102t41.5 122.5t22 131t6.5 128.5q0 153 -33 236.5t-107 83.5
q-49 -2 -94.5 -42.5t-85.5 -107t-73.5 -153t-58.5 -181t-39.5 -190.5t-16.5 -181z" />
    <glyph glyph-name="c" unicode="c" horiz-adv-x="969" 
d="M876 807q0 -48 -24 -74.5t-68 -26.5q-23 0 -38.5 8.5t-25 21.5t-14 27t-4.5 26q0 18 4.5 38.5t21.5 38.5q-11 57 -56.5 83t-105.5 26q-59 0 -105 -22t-80 -60t-57.5 -88t-37.5 -105.5t-20.5 -114t-6.5 -112.5q0 -108 18.5 -183t52 -122t79.5 -68.5t100 -21.5
q40 0 83 12.5t84 42.5t78.5 79t67.5 123l72 -34q-39 -89 -87 -150.5t-102 -100t-112.5 -56t-118.5 -17.5q-90 0 -163 27t-124.5 82.5t-79.5 140t-28 199.5q0 67 12.5 139t39 141t66 131t94 108.5t124 74t154.5 27.5q66 0 122 -18.5t97.5 -51t64.5 -76t23 -94.5z" />
    <glyph glyph-name="d" unicode="d" horiz-adv-x="1136" 
d="M842 1417l-149 -8l8 82q67 0 111.5 4.5t73.5 12t46 17.5t29 21h59q-6 -38 -13 -85t-14 -95t-12.5 -93t-9.5 -79l-37 -320q-11 -98 -22 -197t-19 -189t-13 -167.5t-5 -132.5q0 -20 1 -39.5t6.5 -34.5t16.5 -24.5t31 -9.5q17 0 36.5 10.5t39 34t38 61.5t33.5 93l60 -13
q-7 -36 -26.5 -85.5t-52.5 -95t-79.5 -77t-107.5 -31.5q-42 0 -71.5 13.5t-49 37.5t-28.5 58t-9 76q0 60 7.5 123t23.5 141h-6q-42 -141 -90.5 -228.5t-98.5 -136.5t-99.5 -66.5t-94.5 -17.5q-71 0 -123 30.5t-86.5 83.5t-51 123.5t-16.5 151.5q0 150 37.5 275t112.5 215
t186.5 140.5t259.5 50.5q59 0 115 -9q6 57 13 119.5t17 134.5q5 37 10 66.5t13 58.5zM639 973q-72 0 -128.5 -25t-99.5 -67.5t-73 -99t-48.5 -120t-27 -130.5t-8.5 -129q0 -70 7.5 -130t24.5 -104.5t44.5 -69.5t67.5 -25q48 0 97.5 43.5t93.5 115.5t80 165.5t58 194.5
q16 72 27.5 159t24.5 202q-34 11 -69.5 15.5t-70.5 4.5z" />
    <glyph glyph-name="e" unicode="e" horiz-adv-x="976" 
d="M864 811q0 -57 -27 -102.5t-73 -81.5t-106.5 -63t-127.5 -47t-136.5 -32.5t-133.5 -19.5q1 -193 57 -289t177 -96q45 0 90 14.5t88.5 44.5t83.5 76.5t74 111.5l67 -38q-86 -161 -192.5 -236.5t-245.5 -75.5q-98 0 -169 32t-118 90t-69.5 139.5t-22.5 181.5
q0 79 13.5 156.5t41 147t68.5 129t96.5 102.5t125 67.5t153.5 24.5q54 0 105.5 -12.5t91.5 -40t64.5 -72.5t24.5 -111zM549 977q-71 0 -122.5 -37.5t-86 -99t-53.5 -140.5t-25 -161q81 11 158.5 34t138.5 58.5t98.5 83t37.5 106.5q0 33 -9 61.5t-27 49.5t-45.5 33t-64.5 12z
" />
    <glyph glyph-name="f" unicode="f" horiz-adv-x="665" 
d="M-93 -459q22 -16 61 -16q48 0 80 34.5t53 98t33.5 152.5t21.5 197.5t17 233.5t20 261q10 109 17 219.5t19 216.5l-179 -2l10 88h180q16 113 43.5 210t75.5 168.5t120.5 112.5t177.5 41q71 0 109.5 -28t38.5 -78q0 -12 -4 -26.5t-14 -27t-25.5 -20.5t-38.5 -8
q-38 0 -59.5 26t-21.5 68v8q-5 4 -17.5 6.5t-26.5 2.5q-54 0 -89.5 -33.5t-58 -93.5t-35 -144t-19.5 -184h290l-6 -80l-290 -4q-7 -106 -12.5 -221.5t-16.5 -235.5q-11 -124 -20.5 -249t-26 -240t-44 -215.5t-74.5 -174.5t-118 -116.5t-174 -42.5q-160 0 -160 106
q0 12 4.5 26.5t14 27.5t25.5 21.5t39 8.5q38 0 59 -26t21 -68z" />
    <glyph glyph-name="g" unicode="g" horiz-adv-x="1060" 
d="M331 -555q-25 0 -56.5 3.5t-65 11.5t-65.5 21t-57.5 32t-41.5 45t-17 60q0 21 7.5 40t20 33.5t30 22.5t38.5 8q37 0 65 -23t28 -71q0 -26 -13 -53q10 -16 26 -27t35.5 -18t40 -10t39.5 -3q73 0 127 25.5t92 70t63.5 105.5t41.5 131t25 146.5t16 153.5t13 150t16 137h-7
q-29 -99 -59.5 -171.5t-62.5 -123.5t-64 -83t-64.5 -50t-64.5 -24.5t-63 -6.5q-72 0 -124 30t-86 83.5t-50.5 126t-16.5 158.5q0 132 35.5 253.5t109 214.5t186 148.5t266.5 55.5q34 0 70 -2.5t70.5 -7t65.5 -11t55 -14.5q-16 -250 -39 -502t-41 -481q-12 -149 -53 -258.5
t-108 -182t-158.5 -108t-204.5 -35.5zM777 946q-27 14 -62 20.5t-72 6.5q-75 0 -133.5 -26t-102.5 -69.5t-74 -100.5t-48.5 -119.5t-27 -126.5t-8.5 -121q0 -71 7.5 -132.5t25 -106.5t45.5 -71t70 -26q48 0 94 40t86.5 108t75 156.5t60.5 185.5t42.5 195.5t21.5 186.5z" />
    <glyph glyph-name="h" unicode="h" horiz-adv-x="1171" 
d="M429 1546q-6 -38 -14 -84.5t-15.5 -93.5t-14.5 -91.5t-11 -78.5q-5 -35 -10.5 -83.5t-11.5 -104t-12 -115t-11 -115.5t-9.5 -105t-7.5 -85h7q52 140 103 229t101 139.5t99.5 69.5t99.5 19q61 0 104 -21.5t70 -58t39 -85t12 -101.5q0 -85 -9 -174t-19.5 -170.5
t-19.5 -149.5t-9 -112q0 -19 1.5 -36.5t7.5 -30.5t17 -21t29 -8q16 0 36 10.5t40.5 34t39.5 61.5t34 93l51 -13q-7 -36 -25.5 -85.5t-50 -94.5t-77.5 -76.5t-107 -31.5q-48 0 -80 13t-51 38.5t-27 62t-8 84.5q0 57 9 135.5t20.5 166.5t20.5 178t9 171q0 18 -4 39.5t-15 40.5
t-30 32t-49 13q-46 0 -92.5 -36t-90 -98t-81.5 -145t-66 -176.5t-44.5 -192.5t-16.5 -194q0 -31 1 -57t3 -52h-168q-2 22 -2 30q0 26 2.5 81t6.5 130.5t10 166t13 188.5t15.5 198t17.5 193.5t18 176t19 145.5q4 26 6.5 41t5 25.5t4 19.5t3.5 22l-144 -8l9 82q67 0 111.5 4.5
t73.5 12t46 17.5t29 21h59z" />
    <glyph glyph-name="i" unicode="i" horiz-adv-x="663" 
d="M498 1372q0 -26 -9 -47t-24 -36t-35 -23.5t-42 -8.5q-23 0 -42.5 8.5t-34.5 23.5t-23.5 36t-8.5 47t9 47.5t24.5 37t35.5 24t42 8.5q48 0 78 -31.5t30 -85.5zM445 834q0 -62 -12 -141.5t-27 -168t-27 -180.5t-12 -178q0 -42 15 -64t49 -22q17 0 36.5 10.5t39.5 34
t39 61.5t34 92l58 -12q-9 -43 -28.5 -93.5t-50.5 -94t-74.5 -72.5t-100.5 -29q-185 0 -185 193q0 89 12.5 174t27.5 168.5t27.5 168t12.5 171.5q0 13 -2.5 29t-8.5 30t-17 23.5t-29 9.5q-17 0 -36.5 -10.5t-40 -34t-39.5 -61.5t-34 -92l-57 12q7 36 25 85.5t49.5 95t76.5 77
t107 31.5q43 0 75.5 -15.5t54 -43.5t32 -67t10.5 -87z" />
    <glyph glyph-name="j" unicode="j" horiz-adv-x="609" 
d="M494 1374q0 -26 -9 -47t-24 -36t-35 -23t-42 -8q-45 0 -77 30t-32 82q0 26 8.5 48t23.5 37.5t34.5 24.5t42.5 9q48 0 79 -31.5t31 -85.5zM-37 -460q17 -11 40 -11q44 0 79 34.5t62.5 92t48.5 131.5t36 152.5t25.5 156.5t17 142.5t9.5 110.5t4 61q6 88 10.5 180.5
t4.5 174.5q0 22 0.5 52t-4.5 57.5t-18 46.5t-40 19q-16 0 -34.5 -10.5t-37 -34t-36.5 -62t-33 -95.5l-57 12q6 36 22.5 87t46.5 97.5t76 79.5t111 33q81 0 125.5 -52t44.5 -157q0 -42 -1 -93.5t-3.5 -108.5t-6.5 -118.5t-10 -124.5q-10 -104 -23.5 -215t-36 -216t-57.5 -199
t-87.5 -164.5t-125.5 -112t-172 -41.5q-26 0 -53.5 5.5t-50 18.5t-37 34t-14.5 53q0 17 5.5 34t16.5 30.5t27.5 22t38.5 8.5q38 0 63 -24t25 -69v-9t-1 -9z" />
    <glyph glyph-name="k" unicode="k" horiz-adv-x="1064" 
d="M374 1198q-19 -144 -34 -298t-26 -310h7q46 136 94 224t98 140t102.5 72.5t106.5 20.5q52 0 90 -19t62 -50t35.5 -71t11.5 -81q0 -55 -24 -113.5t-73 -110t-123.5 -91.5t-175.5 -58v-2q35 -1 61.5 -9t47 -25t38 -44t34.5 -66t34 -77.5t35 -69t38.5 -49.5t44.5 -19
q30 0 53 28.5t40 99.5l58 -12q-9 -43 -27 -84.5t-45 -74t-64 -52.5t-85 -20q-39 0 -71 15.5t-59.5 48t-53 83.5t-52.5 122q-20 50 -37 86.5t-34.5 60t-38.5 35t-50 12.5l-54 -1q-23 -85 -35.5 -170t-12.5 -160q0 -31 1 -57t3 -52h-168q-2 22 -2 30q0 27 2.5 82t6.5 130
t10 165.5t13 188t15.5 197.5t17.5 193.5t18 176t19 146.5q4 26 6.5 41t5 25.5t4 19.5t3.5 22l-144 -8l9 82q67 0 111 4.5t72.5 12t44.5 17.5t28 21h59q-8 -38 -15.5 -84.5t-14 -93.5t-12 -91.5t-9.5 -78.5zM666 951q-49 -3 -91.5 -41t-82 -100t-75 -143t-62.5 -169h2
q196 0 297 82.5t101 241.5q0 19 -3 41.5t-12.5 42t-27 32.5t-46.5 13z" />
    <glyph glyph-name="l" unicode="l" horiz-adv-x="579" 
d="M238 1307q4 27 7 43.5t5 28t3.5 19.5t3.5 19l-146 -8l9 82q67 0 111.5 4.5t73.5 12t46 17.5t29 21h59q-6 -38 -14 -84.5t-15.5 -93.5t-14.5 -91.5t-11 -78.5q-9 -72 -19.5 -161.5t-20.5 -185.5t-19.5 -193t-16.5 -185.5t-11.5 -162.5t-4.5 -123q0 -20 1.5 -39.5t7 -34.5
t17 -24.5t31.5 -9.5q16 0 36 10.5t39.5 34t38.5 61.5t34 93l59 -13q-7 -36 -26.5 -85.5t-52 -94.5t-79.5 -76.5t-108 -31.5q-89 0 -126.5 45.5t-37.5 137.5q0 48 5 127t13.5 177.5t20 209t24 222t25 217.5t24.5 194z" />
    <glyph glyph-name="m" unicode="m" horiz-adv-x="1794" 
d="M768 53q0 50 5.5 114.5t13.5 135t17.5 143.5t17.5 141.5t13.5 128.5t5.5 104q0 18 -3 40.5t-13 43t-29.5 34t-52.5 13.5q-47 0 -93 -38.5t-87.5 -103t-77.5 -149.5t-62 -178.5t-40.5 -190t-14.5 -182.5q0 -31 1 -57t3 -52h-172q-2 22 -2 30q0 28 1.5 59t6 78.5t12 118
t19.5 177.5q9 80 15.5 136t11 94t7.5 62t4.5 40.5t2 29t0.5 27.5q0 18 -2 35t-8 29.5t-16.5 20t-28.5 7.5q-17 0 -36.5 -10.5t-40 -34t-39.5 -61.5t-34 -92l-57 12q7 36 26.5 85.5t52.5 95t79.5 77t107.5 31.5q45 0 75 -17t47 -45.5t24 -66t7 -79.5q0 -33 -3.5 -67t-8 -66
t-10.5 -62t-10 -54h6q48 140 97 229t97 139.5t94 69.5t88 19q61 0 103 -22.5t67.5 -57t36.5 -76t11 -78.5q0 -29 -2 -52t-6.5 -47t-11 -51.5t-15.5 -66.5h7q51 140 101.5 228t99 137.5t94.5 67.5t88 18q61 0 102.5 -21.5t66.5 -58t35.5 -85t10.5 -101.5q0 -85 -10.5 -174
t-23.5 -170.5t-23.5 -149.5t-10.5 -112q0 -19 1.5 -36.5t7.5 -30.5t17 -21t29 -8q16 0 36.5 10.5t41 34t40 61.5t34.5 93l57 -13q-7 -36 -26.5 -85.5t-52.5 -94.5t-80 -76.5t-109 -31.5q-48 0 -80 13t-50.5 38.5t-26 62t-7.5 84.5q0 56 11.5 134.5t25.5 166t25.5 178.5
t11.5 172q0 18 -4 39.5t-15 40.5t-30 32t-49 13q-48 0 -94.5 -38.5t-88.5 -103t-77 -149.5t-60.5 -178.5t-40 -190t-14.5 -182.5q0 -31 1 -57t3 -52h-172q-2 22 -2 30v23z" />
    <glyph glyph-name="n" unicode="n" horiz-adv-x="1259" 
d="M367 109q0 -31 1 -57t3 -52h-172q-2 22 -2 30q0 28 2 59t6.5 78.5t12.5 117.5t20 178q9 80 15.5 136t10.5 94t7 62t4 40.5t1.5 29t0.5 27.5q0 18 -2 35t-8 29.5t-16.5 20t-28.5 7.5q-17 0 -36.5 -10.5t-40 -34t-39.5 -61.5t-34 -92l-57 12q7 36 26.5 85.5t52.5 95
t79.5 77t107.5 31.5q45 0 75 -17.5t47 -47t24 -68t7 -81.5q0 -33 -3.5 -68t-8 -68t-10.5 -63t-10 -54h6q52 140 103 230.5t101.5 143t100 73t99.5 20.5q61 0 104 -21.5t69 -58t38 -85t12 -101.5q0 -85 -9.5 -174t-21 -170.5t-21 -149.5t-9.5 -112q0 -19 1.5 -36.5t7.5 -30.5
t17 -21t29 -8q16 0 36 10.5t40 34t39 61.5t34 93l58 -13q-7 -36 -26.5 -85.5t-52.5 -94.5t-79.5 -76.5t-107.5 -31.5q-49 0 -81 13t-51 38.5t-26.5 62t-7.5 84.5q0 57 10 135t21.5 165.5t21.5 178t10 172.5q0 18 -4 39.5t-14.5 40.5t-29 32t-48.5 13q-47 0 -95.5 -38.5
t-93.5 -103t-84 -149.5t-68 -178.5t-46 -190t-17 -182.5z" />
    <glyph glyph-name="o" unicode="o" horiz-adv-x="1068" 
d="M794 558q0 47 -4.5 96t-15.5 95t-29 86t-45 70.5t-64 48t-86 17.5q-69 0 -123.5 -38.5t-91.5 -105t-56.5 -155.5t-19.5 -190q0 -47 4.5 -97t15.5 -97.5t28.5 -89.5t44 -74t62 -50.5t81.5 -18.5q53 0 95.5 22t75.5 58.5t57 85t39.5 102t23 108.5t8.5 127zM472 -23
q-101 0 -175 36t-122.5 98t-72 146t-23.5 179q0 124 35 235.5t100 194.5t159 132t212 49q83 0 154 -30t123.5 -87t82 -140.5t29.5 -191.5q0 -124 -33.5 -236.5t-98 -198t-158 -136t-212.5 -50.5z" />
    <glyph glyph-name="p" unicode="p" horiz-adv-x="1169" 
d="M405 266q-8 -46 -13 -93.5t-10 -101.5q32 -11 61.5 -17.5t63.5 -6.5q72 0 129.5 24.5t101 67t74.5 98.5t50.5 118.5t28.5 129t9 128.5q0 70 -6.5 131.5t-22.5 107.5t-44 72.5t-70 26.5q-37 0 -74 -27.5t-72 -76t-66.5 -114.5t-58 -142t-47.5 -159t-34 -166zM360 -274
q-3 -42 -5.5 -88.5t-11.5 -81.5l129 6v-84h-387v61q43 0 66.5 22.5t34.5 61t15 91t9 112.5q9 118 19 231t20 216.5t18.5 194.5t15.5 164t11 125.5t4 78.5q0 20 -1 39.5t-6.5 34.5t-16.5 24.5t-31 9.5q-17 0 -36.5 -10.5t-39 -34t-38 -61.5t-33.5 -92l-60 12q7 36 26.5 85.5
t52.5 95t79.5 77t107.5 31.5q46 0 76.5 -17.5t48 -47t24.5 -68.5t7 -81q0 -63 -10 -125t-19 -109h7q42 141 87 228.5t91.5 136t93.5 66t92 17.5q70 0 122.5 -32t86.5 -86t51 -126t17 -153q0 -150 -39 -273.5t-115 -212.5t-189.5 -138t-261.5 -49q-50 0 -96 6z" />
    <glyph glyph-name="q" unicode="q" horiz-adv-x="1061" 
d="M790 959q-62 18 -146 18q-72 -1 -129 -27t-100.5 -70t-74 -101.5t-50 -122t-28.5 -131.5t-9 -129q1 -71 8.5 -130t24 -102t44.5 -67t71 -24q48 0 94.5 40.5t88 108.5t77 158t62.5 188t44.5 199t22.5 192zM827 -274q-3 -42 -7.5 -88.5t-13.5 -81.5l129 6v-84h-387v61
q44 0 67 22.5t34.5 61t15 91t8.5 112.5q12 156 28.5 307.5t35.5 292.5h-7q-41 -143 -88 -231t-95.5 -136.5t-98 -65t-95.5 -16.5q-71 0 -122.5 30t-86 82.5t-51 123.5t-16.5 152q0 149 38.5 273.5t114.5 214.5t188 141t259 53q25 0 61.5 -1.5t74 -4t72.5 -6.5t58 -9
q-7 -86 -16.5 -190.5t-20.5 -219t-22.5 -234t-22 -235t-19.5 -223.5t-15 -198z" />
    <glyph glyph-name="r" unicode="r" horiz-adv-x="932" 
d="M748 915q-6 2 -11.5 2h-10.5q-46 0 -89.5 -39.5t-83 -105t-72.5 -151t-56.5 -177.5t-37 -184.5t-13.5 -171.5v-26t0.5 -20.5t1.5 -19t2 -22.5h-170q-2 22 -2 30q0 27 0.5 59.5t3.5 81.5t9.5 121.5t18.5 180.5q9 80 15 135t10.5 92t7.5 59.5t4.5 38t2 27.5t0.5 28
q0 18 -2 34t-8 29t-17 20.5t-29 7.5q-17 0 -36.5 -10.5t-40 -34t-39.5 -61.5t-34 -92l-57 12q7 36 26.5 85.5t52.5 95t79.5 77t107.5 31.5q42 0 71 -14t46.5 -40t25 -63t7.5 -82q0 -53 -8 -115.5t-22 -132.5h6q45 133 92 219.5t95.5 137t98.5 70.5t100 20q31 0 57 -8.5
t45.5 -24t30.5 -37.5t11 -49q0 -18 -6.5 -36t-18.5 -31.5t-29.5 -22t-39.5 -8.5q-38 0 -64 21.5t-31 63.5z" />
    <glyph glyph-name="s" unicode="s" horiz-adv-x="876" 
d="M215 147q8 -22 25 -39.5t40.5 -29.5t50.5 -18.5t55 -6.5q111 0 166 50.5t55 144.5q0 52 -36.5 93.5t-92 79t-119.5 73.5t-119.5 76.5t-92 89t-36.5 110.5q0 56 25.5 106.5t72 88.5t111.5 60t145 22q58 0 112.5 -14.5t97 -40.5t68 -63t25.5 -83q0 -45 -24.5 -70t-61.5 -25
t-59.5 25t-22.5 57q0 16 4 32t15 33q-11 34 -51 57.5t-109 23.5q-34 0 -67.5 -11.5t-60.5 -33t-43.5 -51.5t-16.5 -66q0 -37 21.5 -68.5t57 -59.5t81 -54.5t92.5 -54.5t92.5 -59t81 -67.5t57 -80t21.5 -97.5q0 -65 -28 -119.5t-79 -94.5t-122 -62.5t-156 -22.5
q-62 0 -121.5 14.5t-105.5 42t-74 68.5t-28 94q0 45 25.5 73t63.5 28q41 0 62 -27t21 -60q0 -15 -3.5 -30.5t-14.5 -32.5z" />
    <glyph glyph-name="t" unicode="t" horiz-adv-x="746" 
d="M51 1024q126 0 200.5 75t114.5 214h78l-37 -289h326l-6 -77l-328 -5q-9 -86 -19.5 -177.5t-19 -181t-14.5 -172.5t-6 -151q0 -30 2.5 -61.5t12 -57.5t28.5 -42.5t53 -16.5q15 0 36 4t46.5 18.5t53.5 43t57 77.5l53 -35q-30 -53 -61.5 -92.5t-67 -66.5t-76.5 -40.5
t-90 -13.5q-60 0 -101 19.5t-65.5 53t-35.5 77.5t-11 92q0 58 3.5 136.5t10 171.5t16.5 197.5t23 215.5l-182 -2z" />
    <glyph glyph-name="u" unicode="u" horiz-adv-x="1215" 
d="M855 915q0 31 -1 57t-3 52h172q2 -22 2 -30q0 -29 -1.5 -61t-6 -80.5t-12.5 -120t-21 -179.5q-9 -80 -15.5 -135t-10.5 -92.5t-7 -60.5t-4 -38.5t-1.5 -27.5t-0.5 -27q0 -37 11.5 -63.5t43.5 -26.5q16 0 36 10t40.5 33.5t39.5 61t34 91.5l57 -12q-7 -36 -26.5 -85.5
t-52 -95t-79 -77t-108.5 -31.5q-42 0 -71.5 13.5t-49 37.5t-28.5 58t-9 76q0 58 11 127t26 147h-6q-52 -140 -100 -229t-95 -140t-94 -70.5t-97 -19.5q-62 0 -104.5 21.5t-69 58.5t-38.5 85.5t-12 101.5q0 85 10 173.5t22.5 169.5t22.5 149t10 112q0 19 -1.5 36.5t-7.5 30.5
t-17 21t-29 8q-17 0 -36 -10.5t-38 -34t-37 -61.5t-33 -92l-57 12q7 36 25.5 85.5t50 95t77 77t107.5 31.5q82 0 124 -51t42 -148q0 -39 -5 -90t-12.5 -108.5t-16 -118t-16 -119.5t-12.5 -112.5t-5 -96.5q0 -18 3.5 -40t14 -42t29.5 -33.5t49 -13.5q47 0 94 38.5t90 103
t80 149.5t64.5 178.5t43 189.5t15.5 182z" />
    <glyph glyph-name="v" unicode="v" horiz-adv-x="1078" 
d="M744 1047q63 0 110 -28.5t77.5 -77.5t45.5 -114t15 -138q0 -68 -12 -139t-38 -138q-31 -83 -82 -161t-116 -139t-140.5 -98t-155.5 -37q-69 0 -113 25t-69.5 66t-35.5 95t-10 111q0 82 6.5 167t14.5 162t14.5 141t6.5 105q0 19 -2 36t-8.5 30t-18 20.5t-29.5 7.5
q-17 0 -35.5 -11t-36.5 -35t-35 -62.5t-32 -92.5l-57 13q6 37 23.5 87t49 95.5t78 77.5t109.5 32q84 0 124 -56t40 -159q0 -45 -3 -99.5t-7.5 -113t-9.5 -117.5t-9.5 -112t-7.5 -98t-3 -75q0 -24 3.5 -47t14 -41t30 -29.5t51.5 -11.5q50 1 106 31.5t107.5 81t93.5 117.5
t66 141q11 36 20.5 92t9.5 118q0 39 -5 77t-16.5 70t-31 56.5t-47.5 36.5q-12 -27 -33.5 -39t-47.5 -12q-14 0 -29 5t-27.5 15.5t-21 26.5t-9.5 39q0 15 6 33t19.5 33.5t36.5 26t56 10.5z" />
    <glyph glyph-name="w" unicode="w" horiz-adv-x="1641" 
d="M1505 412q-34 -92 -86 -171t-119 -138t-145.5 -92.5t-165.5 -33.5q-36 0 -73.5 11t-68 39.5t-49.5 77t-19 122.5q0 27 3 59h-4q-21 -60 -57.5 -116t-83.5 -99t-101.5 -68.5t-110.5 -25.5q-60 0 -100.5 21t-65.5 57.5t-36 85t-11 103.5q0 81 8.5 169t18.5 170t18.5 151.5
t8.5 113.5q0 19 -1.5 36.5t-7.5 30.5t-17 21t-30 8q-17 0 -36 -10.5t-37.5 -34t-36.5 -61.5t-33 -92l-57 12q7 36 25.5 85.5t50 95t77 77t107.5 31.5q81 0 123.5 -51t42.5 -148q0 -45 -4 -101.5t-10.5 -117.5t-13.5 -123.5t-13.5 -119t-10.5 -102.5t-4 -75q0 -23 4 -45
t14 -39t27 -28t43 -11q66 0 130 48t114.5 139t82 223.5t31.5 301.5q0 53 -3 109.5t-11 116.5h175q2 -9 3.5 -21.5t2.5 -25.5t1.5 -25.5t0.5 -19.5q0 -103 -10.5 -197.5t-23.5 -180t-23.5 -163.5t-10.5 -148q0 -30 4.5 -59t17 -51t35 -35.5t58.5 -13.5q50 0 100.5 21.5
t96.5 60.5t85.5 93t69 119.5t46 140t16.5 154.5q0 39 -5 76t-16 69t-30.5 55.5t-47.5 35.5q-12 -27 -35 -39t-49 -12q-14 0 -29 5t-27.5 16t-20.5 27.5t-8 39.5q0 17 6.5 35t20.5 32.5t37.5 24t58.5 9.5q62 0 108 -29t76 -78t45 -114t15 -138q0 -68 -12.5 -138.5
t-37.5 -137.5z" />
    <glyph glyph-name="x" unicode="x" horiz-adv-x="1117" 
d="M632 506q108 -257 137.5 -306.5t55 -73.5t51.5 -24q74 0 104 162l58 -7q-7 -53 -20.5 -103t-37.5 -89.5t-60 -63.5t-87 -24q-34 0 -61 6.5t-50.5 24.5t-46 49t-47 79t-53 116.5t-64.5 160.5h-2q-52 -150 -99.5 -237t-91 -131t-84 -56t-78.5 -12q-60 0 -93 29t-33 75
q0 45 24.5 70t58.5 25q24 0 39 -8.5t23 -21t11.5 -27.5t4.5 -27q4 -1 7 -1.5t7 -0.5q27 0 57 23t63 74t69.5 132t75.5 197q-94 259 -116 308.5t-43 73.5t-48 24q-18 0 -35.5 -9t-32 -31.5t-24 -62t-12.5 -99.5l-59 -2q0 28 3 63t12 71.5t24 71.5t39.5 62.5t58.5 44t80 16.5
q55 0 90.5 -26.5t62.5 -77.5t51.5 -126.5t58.5 -172.5h2q54 133 106.5 213t99.5 122t86.5 55t68.5 13q54 0 82.5 -28.5t28.5 -71.5q0 -18 -6.5 -34t-18 -28t-26.5 -19t-33 -7q-23 0 -39 7t-27 16.5t-17.5 20t-10.5 17.5q-21 -3 -47.5 -22t-59 -62t-70 -114.5t-81.5 -179.5z
" />
    <glyph glyph-name="y" unicode="y" horiz-adv-x="1053" 
d="M61 -332q41 0 64 -25.5t23 -73.5v-8q26 -13 52 -13q29 0 60.5 17t62 44t59 61t52.5 67t42.5 62.5t29.5 47.5q-18 118 -43 244t-56.5 250.5t-69 243.5t-80.5 223q-7 18 -16 36.5t-21 34t-26 25.5t-32 10q-35 0 -56.5 -43.5t-21.5 -115.5q0 -27 3 -55l-66 -7q-3 28 -3 60
q0 51 9 103.5t30.5 95t58 69t91.5 26.5q52 0 89.5 -22t64.5 -56t45.5 -75t32.5 -78q23 -62 43.5 -132t39 -143t35 -147.5t33.5 -145.5q11 -49 18 -97t13 -112h4q43 75 85 163.5t75 180.5t53.5 184.5t20.5 176.5q0 51 -9.5 89.5t-21.5 55.5q-19 -13 -50 -13q-37 0 -59.5 24.5
t-22.5 56.5q0 22 8 38.5t21 28t30.5 17.5t35.5 6q47 0 78.5 -23t50.5 -60t27 -84t8 -95q0 -102 -23 -207.5t-61 -210t-87 -206t-101 -196.5q-78 -141 -149.5 -239.5t-139 -161t-132.5 -91t-130 -28.5q-72 4 -114 39.5t-42 89.5q0 23 8 40.5t20.5 29.5t27.5 18t29 6z" />
    <glyph glyph-name="z" unicode="z" horiz-adv-x="965" 
d="M288 51q-45 0 -90.5 -13.5t-96.5 -60.5l-65 51q49 73 166.5 234t240 318.5t177.5 226t102 125.5h-4q-47 -50 -91 -67t-81 -17t-69 9.5t-63 20.5t-62.5 20.5t-68.5 9.5q-18 0 -37.5 -5t-36 -18.5t-27.5 -37t-11 -59.5q0 -17 3 -36.5t11 -41.5l-55 -18q-11 31 -19 65.5
t-8 69.5q0 49 18 89.5t48.5 69.5t70.5 45t84 16q46 0 83.5 -10t72.5 -22.5t72 -22.5t84 -10q13 0 33.5 2t45.5 9t52 20t53 35l61 -57q-26 -33 -74.5 -93t-110.5 -136.5t-203.5 -254.5t-208 -263.5t-118.5 -156.5h4q48 54 103.5 80t130.5 26q37 0 73.5 -11t71.5 -23.5
t69.5 -23.5t68.5 -11q18 0 37.5 4t36.5 15.5t28 33.5t11 58q0 34 -15 78l55 18q11 -31 18 -65.5t7 -69.5q0 -49 -16.5 -89.5t-45.5 -69t-68 -44.5t-84 -16q-46 0 -91.5 11.5t-91 25.5t-90.5 25.5t-90 11.5z" />
    <glyph glyph-name="braceleft" unicode="{" horiz-adv-x="680" 
d="M191 525q42 -8 79.5 -27.5t66 -51.5t45 -77.5t16.5 -104.5q0 -33 -6.5 -84.5t-14.5 -107t-15.5 -108t-8.5 -79t-1.5 -41.5t-0.5 -30q0 -73 12.5 -131t41 -98t75.5 -61.5t116 -21.5h11l-4 -57h-58q-96 0 -161.5 26t-105.5 76t-57.5 122.5t-17.5 164.5q0 55 6.5 116
t14.5 122t14.5 119t6.5 106q0 45 -9.5 78t-31.5 55t-58 33t-88 11h-47v107h53q64 0 104.5 14t63.5 44.5t31.5 77.5t8.5 113q0 59 -3 122.5t-3 126.5q0 123 19 213t64 148.5t119.5 87t185.5 28.5h57l-4 -70h-23q-74 0 -125 -21t-82.5 -65t-45.5 -111t-14 -160q0 -32 1.5 -69
t4 -75.5t4 -76t1.5 -69.5q0 -74 -18.5 -128t-51 -91t-75.5 -59t-92 -32v-4z" />
    <glyph glyph-name="bar" unicode="|" horiz-adv-x="482" 
d="M361 1556l-120 -2111h-128l105 2111h143z" />
    <glyph glyph-name="braceright" unicode="}" horiz-adv-x="679" 
d="M0 0zM472.012 476.032q-41.9971 7.99902 -79.4951 27.498t-65.9961 51.4971t-44.9971 77.4951t-16.499 104.493q0 32.998 6.49902 84.4951q6.5 51.4971 14.5 106.993q7.99902 55.4971 15.499 107.994q7.49902 52.4961 8.49902 78.9951q1 26.498 1.5 41.4971t0.5 29.998
q0 72.9961 -12.499 130.992t-40.998 97.9941q-28.498 39.998 -75.4951 61.4961q-46.9971 21.499 -115.993 21.499h-10.999l4 56.9961h57.9961q95.9941 0 161.49 -25.998q65.4961 -25.999 105.493 -75.9951q39.998 -49.9971 57.4971 -122.493
q17.499 -72.4951 17.499 -164.489q0 -54.9971 -6.5 -115.993q-6.49902 -60.9961 -14.499 -121.993q-8 -60.9961 -14.499 -118.992q-6.5 -57.9961 -6.5 -105.993q0 -44.998 9.5 -77.9961q9.49902 -32.9971 31.498 -54.9961q21.998 -21.999 57.9961 -32.998t87.9951 -10.999
h46.9971v-106.994h-52.9971q-63.9961 0 -104.493 -13.999q-40.498 -13.999 -63.4971 -44.4971q-22.998 -30.498 -31.498 -77.4951q-8.49902 -46.9971 -8.49902 -112.993q0 -58.9961 3 -122.492t3 -126.492q0 -122.993 -18.999 -212.987q-18.999 -89.9951 -63.9961 -148.491
t-119.493 -86.9941q-74.4951 -28.499 -185.488 -28.499h-56.9971l4 69.9961h22.999q73.9951 0 124.992 20.999q50.9971 20.998 82.4951 64.9961q31.498 43.9971 45.4971 110.992q13.999 66.9961 13.999 159.99q0 31.998 -1.5 68.9961t-4 75.4961
q-2.49902 38.4971 -3.99902 75.9951q-1.5 37.4971 -1.5 69.4951q0 73.9961 18.499 127.992q18.498 53.9971 50.9961 90.9951q32.498 36.9971 75.4961 58.9961q42.9971 21.999 91.9941 31.998v4z" />
    <glyph glyph-name="asciitilde" unicode="~" horiz-adv-x="1172" 
d="M385 623q-42 0 -76 -7.5t-64 -20t-58.5 -30t-59.5 -37.5l6 121q36 26 67.5 46.5t63.5 34.5t66 21t76 7q55 0 95 -11.5t70.5 -28.5t55 -37.5t50.5 -37.5t55.5 -28.5t70.5 -11.5q68 0 129 26t115 71l-6 -120q-48 -48 -112.5 -77.5t-145.5 -29.5q-51 0 -89 11t-68.5 28
t-56.5 36t-53.5 36t-58.5 28t-72 11z" />
    <glyph glyph-name="exclamdown" unicode="&#xa1;" horiz-adv-x="518" 
d="M89 0zM148.023 926.006q2 26.998 12.999 50.9971q10.999 23.998 28.998 41.9971t40.4971 27.998q22.499 10 46.498 10q22.998 0 42.9971 -9.5q19.999 -9.49902 34.998 -25.498t23.998 -37.998q9 -21.998 9 -47.9961q0 -29.999 -10.5 -55.9971
q-10.499 -25.998 -27.998 -45.4971t-40.4971 -30.998q-22.999 -11.5 -47.9971 -11.5q-49.9971 3 -81.4951 35.998t-31.498 97.9941zM212.02 553.028h74.9951l30.998 -851.947q0 -25.999 -7.99902 -51.9971q-8 -25.998 -23.499 -46.4971t-38.498 -32.998
q-22.998 -12.499 -52.9961 -12.499q-27.999 0 -48.4971 9.99902q-20.499 9.99902 -32.998 26.998t-18.499 38.998t-6 44.9971q0 10 1 14.999q0 4 121.993 859.947z" />
    <glyph glyph-name="cent" unicode="&#xa2;" horiz-adv-x="988" 
d="M881 807q0 -48 -24 -74.5t-68 -26.5q-23 0 -38.5 8.5t-25 21.5t-14 27t-4.5 26q0 18 4.5 38.5t21.5 38.5q-11 57 -56.5 83.5t-105.5 26.5q-59 0 -105 -22t-80 -60t-57.5 -88t-37.5 -106t-20.5 -114.5t-6.5 -112.5q0 -108 18.5 -183.5t52 -123.5t79.5 -70t100 -22
q40 0 83 15t84 47.5t78.5 84t67.5 124.5l72 -34q-35 -80 -77 -139.5t-89.5 -100.5t-99 -64t-104.5 -30l-23 -241h-107l21 241q-78 9 -140 40.5t-105.5 87t-67 135.5t-23.5 186q0 65 12 134.5t36 136.5t61.5 128t88 108t115.5 77.5t144 36.5l18 227h121l-22 -235
q49 -10 90.5 -32t70.5 -52.5t45.5 -68t16.5 -79.5z" />
    <glyph glyph-name="sterling" unicode="&#xa3;" horiz-adv-x="1120" 
d="M816 1277q-5 19 -17 39.5t-31.5 37t-47 27t-64.5 10.5q-62 0 -113 -30t-82.5 -79t-46 -101.5t-14.5 -136.5q0 -86 11.5 -160t22.5 -147h315l-7 -98h-295l4 -54t2 -55q0 -95 -31.5 -164.5t-94.5 -141.5q28 4 56.5 6t57.5 2q67 0 126 -18t109.5 -39.5t93 -39.5t77.5 -18
q46 0 76.5 31.5t40.5 97.5h63q-6 -62 -23 -113t-45.5 -88t-67.5 -57.5t-89 -20.5q-43 0 -82.5 14t-78 35t-76.5 45.5t-77.5 45.5t-81.5 35t-101 14l-19 -2q-6 -39 -21 -73.5t-35 -59.5t-44 -39.5t-49 -14.5q-35 0 -56 21t-21 49t14 54t39 48t59 39.5t73 28.5q32 45 50 105.5
t18 135.5q0 53 -7 98.5t-17 92.5h-167l6 98h139q-10 49 -17 101.5t-7 116.5q0 125 28.5 214.5t81 156.5t126.5 104t165 37t150 -26t93.5 -64t48 -80.5t13.5 -76.5q0 -45 -22 -70t-63 -25q-21 0 -35.5 8t-23 20t-12.5 25.5t-4 24.5q0 17 5 37t22 37z" />
    <glyph glyph-name="currency" unicode="&#xa4;" horiz-adv-x="1136" 
d="M245 976l103 -139q48 38 105.5 59.5t129.5 21.5q70 0 126.5 -21.5t99.5 -59.5l118 139l76 -66l-133 -143q33 -51 50 -108.5t17 -118.5q0 -69 -22 -134.5t-63 -119.5l115 -138l-83 -66l-101 134q-48 -36 -107.5 -57t-134.5 -21t-131.5 20.5t-101.5 56.5l-113 -133l-76 66
l127 137q-30 46 -45 99t-15 111q0 72 23 142.5t70 130.5l-117 142zM579 845q-45 0 -79 -18t-59 -47t-41 -65t-25.5 -72.5t-13.5 -69.5t-4 -55q0 -48 8.5 -101t30.5 -97.5t58 -73t92 -28.5q42 0 74.5 17t57.5 45.5t42.5 65t28.5 76t16 78.5t5 71q0 40 -9.5 87.5t-31.5 89
t-58.5 69.5t-91.5 28z" />
    <glyph glyph-name="yen" unicode="&#xa5;" horiz-adv-x="1431" 
d="M388 649l211 -1l-269 468q-48 83 -70.5 138t-27.5 94l-127 -5l4 91h520l-4 -68q-89 0 -127 -25.5t-38 -70.5q0 -26 11.5 -58t32.5 -69q159 -275 192.5 -329.5t74.5 -115.5h4q40 70 76.5 133t106.5 182t107 181l21 35t26 41.5t29.5 42.5t30.5 37l-162 -7l4 91h418l-4 -68
q-51 -3 -91.5 -20t-77.5 -49.5t-72 -81t-74 -113.5l-266 -456l245 -1l-4 -88l-263 -2l-8 -130l265 -1l-4 -88l-267 -2l-4 -90q-2 -57 -5.5 -96.5t-8.5 -65.5l170 8l-4 -90h-473l4 68q58 2 88 22t43.5 53.5t15.5 78.5t5 97v14l-273 -1l6 96l272 -2l7 128l-273 -1z" />
    <glyph glyph-name="brokenbar" unicode="&#xa6;" horiz-adv-x="535" 
d="M386 1556l-48 -762h-129l33 762h144zM316 207l-47 -762h-129l33 762h143z" />
    <glyph glyph-name="section" unicode="&#xa7;" horiz-adv-x="1074" 
d="M612 1556q81 0 147 -21.5t113 -56.5t72.5 -79.5t25.5 -90.5q0 -20 -5.5 -40t-17.5 -35.5t-29.5 -25t-41.5 -9.5q-22 0 -37.5 7.5t-25.5 19.5t-14.5 27t-4.5 30q0 20 7 37.5t18 31.5q0 25 -17.5 48t-46.5 40.5t-66 28t-77 10.5q-77 0 -128.5 -23.5t-82.5 -58.5t-44.5 -76
t-13.5 -75q0 -61 28 -109.5t73.5 -89.5t103.5 -77.5t118.5 -73t118.5 -76.5t103.5 -88.5t73.5 -107.5t28 -134q0 -47 -13.5 -96t-39.5 -97t-64.5 -93t-88.5 -84q35 -43 56 -94t21 -117q0 -32 -8.5 -72t-27.5 -81.5t-50 -81t-77 -70.5t-107 -50t-141 -19q-81 0 -147 21.5
t-113 56.5t-72.5 79.5t-25.5 90.5q0 21 6 40.5t17.5 35.5t29 25.5t41.5 9.5q22 0 37.5 -7.5t25.5 -19.5t14.5 -27t4.5 -30q0 -20 -7 -38t-18 -32q0 -25 17.5 -48t46.5 -40.5t66 -28t77 -10.5q82 0 134.5 23t83 57.5t42 75.5t11.5 78q0 48 -19 87t-54 74.5t-84 70t-110 74.5
q-66 43 -133 87t-122 96t-89.5 116t-34.5 146q0 45 12 94t36.5 98.5t61.5 96t87 86.5q-32 42 -51.5 90.5t-19.5 111.5q0 31 8.5 71.5t27.5 83t50.5 83t77 73t107 52t140.5 19.5zM232 674q0 -67 25.5 -119t67 -95t95 -79t110.5 -70t112.5 -70t100.5 -78q45 50 68 119.5
t23 134.5q0 67 -26 119t-68.5 94.5t-97 78t-112 69.5t-113.5 69.5t-101 77.5q-38 -48 -58.5 -108t-23 -91.5t-2.5 -38v-13.5z" />
    <glyph glyph-name="dieresis" unicode="&#xa8;" horiz-adv-x="719" 
d="M303 1373q-1 -24 -9.5 -44.5t-22 -35.5t-31 -23.5t-35.5 -8.5q-20 0 -36.5 8.5t-28.5 23.5t-18.5 35.5t-6.5 44.5q1 23 10 43.5t23 35.5t32 24t37 9q20 0 36.5 -9t27.5 -24t17 -35.5t5 -43.5zM604 1373q-1 -24 -9.5 -44.5t-22 -35.5t-31 -23.5t-35.5 -8.5
q-20 0 -36.5 8.5t-28.5 23.5t-18.5 35.5t-6.5 44.5q1 23 10 43.5t23 35.5t32 24t37 9q20 0 36.5 -9t27.5 -24t17 -35.5t5 -43.5z" />
    <glyph glyph-name="copyright" unicode="&#xa9;" horiz-adv-x="1794" 
d="M94 713q6 114 39 219t88.5 196.5t131.5 166.5t169 128.5t200.5 83t225.5 29.5q116 0 217.5 -27.5t187 -77.5t152.5 -120.5t114 -156.5t71.5 -185t24.5 -207q0 -119 -30.5 -229.5t-86 -206.5t-133.5 -174.5t-173 -135t-204.5 -87.5t-227.5 -31q-176 0 -318 56
t-241.5 157.5t-153.5 241.5t-54 308v25.5t1 26.5zM225 713q-1 -11 -1 -22.5v-22.5q0 -137 43 -259t125.5 -213.5t202.5 -145.5t273 -54q107 0 202 28.5t174.5 79.5t142.5 121.5t107 155t67 179.5t23 195q0 138 -45 262.5t-129 219t-203.5 150t-268.5 55.5q-153 0 -280 -57
t-220.5 -155.5t-148.5 -231.5t-64 -285zM950 1122q-60 0 -122.5 -27t-113.5 -80t-83 -130.5t-32 -178.5q0 -80 26.5 -148.5t73.5 -118.5t112.5 -78.5t142.5 -28.5q34 0 74.5 10t81 29t78.5 47t68 63l59 -63q-48 -62 -104.5 -102.5t-114 -64t-112 -33t-97.5 -9.5
q-103 0 -189 36t-148.5 100t-97.5 150.5t-35 187.5q0 62 15.5 126t46 124.5t75.5 114t104 93.5t132 63t158 23q75 0 144.5 -23t120.5 -61h2l-5 74h99l-19 -345h-77q-5 67 -26.5 114.5t-56.5 77.5t-81 44t-99 14z" />
    <glyph glyph-name="ordfeminine" unicode="&#xaa;" horiz-adv-x="824" 
d="M686 1445q-10 -78 -20.5 -157.5t-18.5 -150t-13.5 -127t-5.5 -87.5q0 -28 3 -48t20 -20q9 0 18.5 3.5t19.5 15t20 32t20 55.5l45 -10q-7 -28 -18 -58t-30 -55.5t-46 -42t-66 -16.5q-53 0 -73.5 31.5t-20.5 85.5q0 37 6.5 80t17.5 94h-4q-31 -96 -64.5 -153.5t-66.5 -88
t-64.5 -40t-58.5 -9.5q-35 0 -64 12t-49 39t-31 69.5t-11 104.5q0 91 22 175t67.5 148t115.5 102t165 38q19 0 42.5 -1.5t48.5 -4.5t49 -7t45 -9zM559 1392q-14 8 -36 13t-48 5q-63 0 -107 -31.5t-71.5 -84.5t-39.5 -122.5t-12 -144.5q0 -88 21 -127.5t57 -39.5
q26 0 53.5 24t53 64t48 93.5t40 112.5t28.5 120.5t13 117.5z" />
    <glyph glyph-name="guillemotleft" unicode="&#xab;" horiz-adv-x="1058" 
d="M51 0zM51.0605 540.035v7.99902l601.964 574.965l48.9971 -54.9971l-447.973 -527.967v-4l371.977 -497.97l-58.9961 -52.9971zM487.034 546.034v6l433.974 398.976l50.9971 -50.9971l-279.983 -341.979v-3.99902l228.986 -341.979l-58.9961 -54.9971z" />
    <glyph glyph-name="logicalnot" unicode="&#xac;" horiz-adv-x="1199" 
d="M146 705l911 -5l-18 -378h-98l5 265l-806 -3z" />
    <glyph glyph-name="uni00AD" unicode="&#xad;" horiz-adv-x="987" 
d="M132 723h727v-129l-727 -8v137z" />
    <glyph glyph-name="registered" unicode="&#xae;" horiz-adv-x="1794" 
d="M94 713q6 114 39 219t88.5 196.5t131.5 166.5t169 128.5t200.5 83t225.5 29.5q116 0 217.5 -27.5t187 -77.5t152.5 -120.5t114 -156.5t71.5 -185t24.5 -207q0 -119 -30.5 -229.5t-86 -206.5t-133.5 -174.5t-173 -135t-204.5 -87.5t-227.5 -31q-176 0 -318 56
t-241.5 157.5t-153.5 241.5t-54 308v25.5t1 26.5zM225 713q-1 -11 -1 -22.5v-22.5q0 -137 43 -259t125.5 -213.5t202.5 -145.5t273 -54q107 0 202 28.5t174.5 79.5t142.5 121.5t107 155t67 179.5t23 195q0 138 -45 262.5t-129 219t-203.5 150t-268.5 55.5q-153 0 -280 -57
t-220.5 -155.5t-148.5 -231.5t-64 -285zM756 461q-2 -35 -5 -60.5t-5 -44.5l98 4v-81h-338l4 69q37 1 58 13t31 33.5t13 51.5t5 66l28 535q2 27 3.5 52.5t4.5 45.5l-102 -10l4 86q31 1 70.5 2.5t82 3t85.5 2.5t81 1q110 0 187.5 -19.5t126 -54t70.5 -82.5t22 -106
q0 -35 -12 -76.5t-42 -81.5t-80.5 -74.5t-126.5 -54.5v-2q17 -8 36.5 -27.5t42.5 -55.5q53 -86 88.5 -137t61.5 -77.5t46 -34t43 -7.5l-4 -70h-168q-31 8 -65.5 50t-79.5 114q-40 63 -76 122t-65 104h-26.5t-32 1t-31 2t-23.5 3zM770 748h2q17 -2 35 -3t36 -1q23 0 53 3.5
t62 13t63 25.5t55.5 40.5t39.5 58.5t15 79q0 43 -18 76.5t-48 56t-69.5 34t-81.5 11.5q-48 0 -73.5 -12t-38 -34.5t-15.5 -54.5t-5 -72z" />
    <glyph glyph-name="macron" unicode="&#xaf;" horiz-adv-x="733" 
d="M98 1436h543l-6 -107l-543 -8z" />
    <glyph glyph-name="degree" unicode="&#xb0;" horiz-adv-x="793" 
d="M244 1156q-2 -42 9 -81t34.5 -69t57.5 -47.5t77 -17.5q42 0 77.5 17.5t61.5 47.5t41.5 69t17.5 81q1 42 -10 81.5t-34 69.5t-56.5 48t-76.5 18q-42 0 -78 -18t-62.5 -48t-42 -69.5t-16.5 -81.5zM121 1150q4 67 31.5 124.5t72 100.5t103 67.5t123.5 24.5q72 0 128 -24.5
t93.5 -67.5t55.5 -100.5t14 -124.5q-3 -67 -30.5 -123t-71.5 -96.5t-102.5 -63t-123.5 -22.5q-72 0 -128 22.5t-93.5 63t-56 96.5t-15.5 123z" />
    <glyph glyph-name="plusminus" unicode="&#xb1;" horiz-adv-x="1164" 
d="M132 733l392 -2l17 326h123l-17 -326l396 -2l-6 -107l-396 -2l-18 -344h-123l18 343l-392 -1zM1004 0h-911l6 102l911 9z" />
    <glyph glyph-name="twosuperior" unicode="&#xb2;" horiz-adv-x="766" 
d="M166 1259q0 32 18 68.5t52 67.5t83 51.5t111 20.5q46 0 89 -12t75.5 -37.5t52 -64t19.5 -91.5q0 -31 -8 -64.5t-35 -73.5t-78 -88t-137 -108q-75 -53 -120 -98.5t-60 -91.5l258 -7q27 0 49.5 3t39 12.5t26.5 26t12 43.5h49l-19 -189h-524q3 63 25.5 116t58 99t81 86.5
t95.5 79.5q47 37 76 72.5t45 67.5t21.5 60t5.5 49q0 62 -32 101t-95 39q-26 0 -49 -8t-41 -21t-30 -29.5t-16 -33.5q12 -13 15.5 -26.5t3.5 -25.5q0 -22 -16.5 -39t-42.5 -17q-24 0 -41 17t-17 45z" />
    <glyph glyph-name="threesuperior" unicode="&#xb3;" horiz-adv-x="733" 
d="M116 809q0 15 4 31t13 29t22.5 21.5t32.5 8.5q29 0 44 -19t15 -43q0 -13 -4 -27t-16 -27q3 -42 39.5 -66t87.5 -24q42 0 74.5 16.5t55 42.5t34.5 59t12 65q0 25 -7 55.5t-26 56.5t-51.5 43.5t-98.5 17.5h-27t-17 -2l2 55h24q64 0 102 20.5t57.5 48t25.5 54.5t6 40
q0 30 -7.5 55t-24 43.5t-40 29t-65.5 10.5q-51 -2 -84 -30.5t-41 -64.5q8 -11 10.5 -21.5t2.5 -21.5q0 -22 -16 -38t-42 -16q-23 0 -38.5 17t-15.5 43q0 31 17 65.5t49.5 63.5t79 48t106.5 19q52 0 93.5 -13.5t71 -38t45.5 -60t16 -78.5q0 -27 -11.5 -56t-34.5 -55.5
t-58 -48t-81 -31.5q52 -4 90.5 -22.5t64 -46.5t38 -64t12.5 -75q0 -53 -20.5 -98.5t-58.5 -79.5t-92.5 -53.5t-123.5 -19.5q-57 0 -102.5 14t-77.5 38.5t-49 58t-17 71.5z" />
    <glyph glyph-name="acute" unicode="&#xb4;" horiz-adv-x="492" 
d="M142 1186l-49 41l159 270q23 38 45 51.5t40 13.5q29 0 45.5 -17t16.5 -49q0 -18 -10 -40.5t-36 -50.5z" />
    <glyph glyph-name="mu" unicode="&#xb5;" horiz-adv-x="1212" 
d="M973 1024q-39 -757 -39 -767.5v-19.5q0 -83 21.5 -116.5t60.5 -33.5q19 0 39.5 7.5t49.5 27.5l20 -31q-14 -18 -36 -38.5t-49.5 -37t-59.5 -27.5t-68 -11q-37 0 -61.5 12.5t-39.5 33t-22 45.5t-10 50q-137 -141 -306 -141q-42 0 -76 9.5t-61 29.5t-48.5 52.5t-39.5 78.5
h-6q0 -100 8 -188t17 -161.5t17 -131.5t8 -97q0 -22 -3.5 -44t-13 -40t-26 -29t-41.5 -11q-51 0 -70.5 34.5t-19.5 98.5q0 8 75 1446h160q-32 -573 -32 -612q0 -72 9.5 -132.5t33 -104.5t62 -68.5t97.5 -24.5q75 0 141 37t111 97l43 808h155z" />
    <glyph glyph-name="mu" unicode="&#x3bc;" horiz-adv-x="1212" 
d="M973 1024q-39 -757 -39 -767.5v-19.5q0 -83 21.5 -116.5t60.5 -33.5q19 0 39.5 7.5t49.5 27.5l20 -31q-14 -18 -36 -38.5t-49.5 -37t-59.5 -27.5t-68 -11q-37 0 -61.5 12.5t-39.5 33t-22 45.5t-10 50q-137 -141 -306 -141q-42 0 -76 9.5t-61 29.5t-48.5 52.5t-39.5 78.5
h-6q0 -100 8 -188t17 -161.5t17 -131.5t8 -97q0 -22 -3.5 -44t-13 -40t-26 -29t-41.5 -11q-51 0 -70.5 34.5t-19.5 98.5q0 8 75 1446h160q-32 -573 -32 -612q0 -72 9.5 -132.5t33 -104.5t62 -68.5t97.5 -24.5q75 0 141 37t111 97l43 808h155z" />
    <glyph glyph-name="paragraph" unicode="&#xb6;" horiz-adv-x="1003" 
d="M855 1434l-104 -1956h-135l99 1872l-178 -5l-101 -1867h-136l74 1358q-50 4 -100.5 21.5t-90 53t-63 90.5t-18.5 134q4 73 32 129t70.5 94t95.5 57t107 19h448z" />
    <glyph glyph-name="periodcentered" unicode="&#xb7;" horiz-adv-x="485" 
d="M361 667q-1 -27 -11.5 -51t-27.5 -41t-38.5 -27t-44.5 -10t-43 9.5t-35 26t-24 39t-9 48.5q0 28 10.5 52.5t28.5 43t41 29t47 10.5q48 0 77 -35t29 -87v-7z" />
    <glyph glyph-name="cedilla" unicode="&#xb8;" horiz-adv-x="600" 
d="M371 -119q66 0 100.5 -35.5t34.5 -87.5q0 -43 -20.5 -77t-53.5 -60t-76 -45t-88 -32.5t-89 -22t-79 -13.5l-8 64q52 9 99.5 23.5t83.5 34t57.5 44t21.5 54.5q0 34 -20 48.5t-48 14.5q-24 0 -50 -8.5t-46 -22.5l-69 35l72 221h102l-62 -174q29 19 66 29t72 10z" />
    <glyph glyph-name="onesuperior" unicode="&#xb9;" horiz-adv-x="553" 
d="M153 695q31 0 51.5 11.5t33 32t17.5 47.5t7 58l25 479h-5l-131 -76l-28 54l231 166h51l-32 -684q-2 -23 -4 -43t-7 -37l107 4l-4 -70h-314l2 58v0z" />
    <glyph glyph-name="ordmasculine" unicode="&#xba;" horiz-adv-x="742" 
d="M563 1151q0 44 -6.5 89.5t-22 82t-42.5 60t-68 23.5q-42 0 -74.5 -24t-55 -66t-34.5 -98.5t-12 -121.5q0 -44 6 -90.5t22 -85t43 -63t68 -24.5q48 0 81 29.5t53.5 74t30 97.5t11.5 117zM370 769q-64 0 -110 24.5t-76 66t-44.5 96.5t-14.5 116q0 78 21.5 149.5t62.5 126
t99.5 87t133.5 32.5q52 0 96.5 -20.5t77.5 -58.5t51.5 -92.5t18.5 -122.5q0 -78 -21 -150.5t-61.5 -129t-99.5 -90.5t-134 -34z" />
    <glyph glyph-name="guillemotright" unicode="&#xbb;" horiz-adv-x="1067" 
d="M996 568v-8l-602 -575l-49 55l448 528v4l-372 498l59 53zM560 562v-6l-434 -399l-51 51l280 342v4l-229 342l59 55z" />
    <glyph glyph-name="onequarter" unicode="&#xbc;" horiz-adv-x="1469" 
d="M116 0zM1290 1412l-1035 -1445l-63 47l1026 1453zM146 695q31 0 51.5 11.5t33 32t17.5 47.5t7 58l25 479h-5l-131 -76l-28 54l231 166h51l-32 -684q-2 -23 -4 -43t-7 -37l107 4l-4 -70h-314l2 58v0zM1326 0h-299l2 59q31 1 51.5 10.5t33 27t17.5 41t7 52.5l1 25h-347
l4 61l432 566h55l-27 -551l115 -2l-4 -74h-115l-7 -149l86 4zM891 296l253 -4l21 367h-2z" />
    <glyph glyph-name="onehalf" unicode="&#xbd;" horiz-adv-x="1579" 
d="M116 0zM1280 1412l-1035 -1445l-63 47l1026 1453zM146 695q31 0 51.5 11.5t33 32t17.5 47.5t7 58l25 479h-5l-131 -76l-28 54l231 166h51l-32 -684q-2 -23 -4 -43t-7 -37l107 4l-4 -70h-314l2 58v0zM975 632q0 32 18 68.5t52 67.5t83 51.5t111 20.5q46 0 89 -12
t75.5 -37.5t52 -64t19.5 -91.5q0 -31 -8 -64.5t-35 -73.5t-78 -88t-137 -108q-75 -53 -120 -98.5t-60 -91.5l258 -7q27 0 49.5 3t39 12.5t26.5 26t12 43.5h49l-19 -189h-524q3 63 25.5 116t58 99t81 86.5t95.5 79.5q47 37 76 72.5t45 67.5t21.5 60t5.5 49q0 62 -32 101
t-95 39q-26 0 -49 -8t-41 -21t-30 -29.5t-16 -33.5q12 -13 15.5 -26.5t3.5 -25.5q0 -22 -16.5 -39t-42.5 -17q-24 0 -41 17t-17 45z" />
    <glyph glyph-name="threequarters" unicode="&#xbe;" horiz-adv-x="1535" 
d="M93 0zM1357 1412l-1035 -1445l-63 47l1026 1453zM93 809q0 15 4 31t13 29t22.5 21.5t32.5 8.5q29 0 44 -19t15 -43q0 -13 -4 -27t-16 -27q3 -42 39.5 -66t87.5 -24q42 0 74.5 16.5t55 42.5t34.5 59t12 65q0 25 -7 55.5t-26 56.5t-51.5 43.5t-98.5 17.5h-27t-17 -2l2 55
h24q64 0 102 20.5t57.5 48t25.5 54.5t6 40q0 30 -7.5 55t-24 43.5t-40 29t-65.5 10.5q-51 -2 -84 -30.5t-41 -64.5q8 -11 10.5 -21.5t2.5 -21.5q0 -22 -16 -38t-42 -16q-23 0 -38.5 17t-15.5 43q0 31 17 65.5t49.5 63.5t79 48t106.5 19q52 0 93.5 -13.5t71 -38t45.5 -60
t16 -78.5q0 -27 -11.5 -56t-34.5 -55.5t-58 -48t-81 -31.5q52 -4 90.5 -22.5t64 -46.5t38 -64t12.5 -75q0 -53 -20.5 -98.5t-58.5 -79.5t-92.5 -53.5t-123.5 -19.5q-57 0 -102.5 14t-77.5 38.5t-49 58t-17 71.5zM1394 0h-299l2 59q31 1 51.5 10.5t33 27t17.5 41t7 52.5l1 25
h-347l4 61l432 566h55l-27 -551l115 -2l-4 -74h-115l-7 -149l86 4zM959 296l253 -4l21 367h-2z" />
    <glyph glyph-name="questiondown" unicode="&#xbf;" horiz-adv-x="952" 
d="M26 0zM387.034 936.006q1 24.998 10.499 46.9971q9.5 21.998 24.999 38.4971t35.9971 25.998q20.499 9.5 44.498 9.5q41.9971 0 73.4951 -29.998t31.498 -83.9951q0 -25.998 -10.499 -49.4971q-10.5 -23.498 -27.499 -40.9971t-37.9971 -27.499
q-20.999 -9.99902 -42.998 -9.99902q-43.9971 0 -72.9951 31.998t-28.998 78.9951v10zM840.006 -147.929q0 -45.9971 -30.498 -97.9941q-30.498 -51.9961 -86.4941 -95.4941q-55.9971 -43.4971 -134.992 -72.4951t-175.989 -28.998q-107.993 0 -181.488 26.498
q-73.4961 26.498 -118.993 70.4961q-45.4971 43.9971 -65.4961 99.9932q-19.999 55.9971 -19.999 114.993q0 23.999 7 70.4961q6.99902 46.4971 43.4971 105.993t91.4941 111.493q54.9971 51.9971 112.993 95.9941q57.9971 43.9971 110.493 83.9951
q52.4971 39.9971 83.4951 75.9951t30.998 69.9961q0 22.998 -17.999 42.4971q-17.998 19.499 -62.9961 19.499q-13.999 0 -35.9971 -3.5q-21.999 -3.5 -41.998 -11.499l-20.998 71.9951q33.9971 19.999 75.9951 28.499q41.9971 8.49902 87.9941 8.49902q17.999 0 44.498 -7
q26.498 -6.99902 50.9961 -22.498q24.499 -15.499 41.498 -39.998q16.999 -24.498 16.999 -60.4961q0 -48.9971 -31.998 -91.4941t-82.4951 -84.9951q-50.4971 -42.4971 -104.494 -86.4941q-53.9961 -43.998 -103.493 -98.4941q-49.4971 -54.4971 -79.9951 -121.493
t-30.498 -152.99q0 -48.9971 11.999 -91.9941q11.999 -42.998 39.498 -74.9961q27.498 -31.998 72.9951 -50.4961q45.4971 -18.499 111.493 -18.499q44.9971 0 84.9951 13.499q39.9971 13.499 71.4951 34.498q31.498 20.998 51.9971 46.4971q20.499 25.498 25.498 48.4971
q-17.998 16.999 -23.998 39.4971q-6 22.499 -6 41.498q0 35.9971 25.499 63.9961q25.498 27.998 67.4951 27.998q41.998 0 68.9961 -27.998q26.998 -27.999 26.998 -72.9961z" />
    <glyph glyph-name="Agrave" unicode="&#xc0;" horiz-adv-x="1293" 
d="M0 0zM260 223q-9 -24 -16.5 -43t-15 -35t-15 -31t-16.5 -32l153 8v-90h-379l3 68q38 1 68 19.5t55.5 52t48 80.5t45.5 104l462 1149h46l391 -1166q6 -20 13.5 -46.5t14 -55t11 -56.5t4.5 -52v-15l133 8v-90h-449l2 68q37 1 61 9.5t38 22.5t19.5 32.5t5.5 38.5
q0 23 -5.5 47t-11.5 44l-59 192l-524 -12zM539 958q-53 -134 -92.5 -238.5t-71.5 -189.5h469l-216 658h-4zM498 1747q-39 25 -52.5 46.5t-13.5 40.5q0 23 14 42.5t51 19.5q16 0 36.5 -9t46.5 -32l260 -241l-43 -58z" />
    <glyph glyph-name="Aacute" unicode="&#xc1;" horiz-adv-x="1293" 
d="M0 0zM260 223q-9 -24 -16.5 -43t-15 -35t-15 -31t-16.5 -32l153 8v-90h-379l3 68q38 1 68 19.5t55.5 52t48 80.5t45.5 104l462 1149h46l391 -1166q6 -20 13.5 -46.5t14 -55t11 -56.5t4.5 -52v-15l133 8v-90h-449l2 68q37 1 61 9.5t38 22.5t19.5 32.5t5.5 38.5
q0 23 -5.5 47t-11.5 44l-59 192l-524 -12zM539 958q-53 -134 -92.5 -238.5t-71.5 -189.5h469l-216 658h-4zM669 1556l-43 58l260 241q26 23 46.5 32t36.5 9q37 0 51 -19.5t14 -42.5q0 -19 -14 -40.5t-52 -46.5z" />
    <glyph glyph-name="Acircumflex" unicode="&#xc2;" horiz-adv-x="1293" 
d="M0 0zM260 223q-9 -24 -16.5 -43t-15 -35t-15 -31t-16.5 -32l153 8v-90h-379l3 68q38 1 68 19.5t55.5 52t48 80.5t45.5 104l462 1149h46l391 -1166q6 -20 13.5 -46.5t14 -55t11 -56.5t4.5 -52v-15l133 8v-90h-449l2 68q37 1 61 9.5t38 22.5t19.5 32.5t5.5 38.5
q0 23 -5.5 47t-11.5 44l-59 192l-524 -12zM539 958q-53 -134 -92.5 -238.5t-71.5 -189.5h469l-216 658h-4zM695 1905h4l370 -289l-37 -57l-356 182h-4l-348 -178l-31 55z" />
    <glyph glyph-name="Atilde" unicode="&#xc3;" horiz-adv-x="1293" 
d="M0 0zM260 223q-9 -24 -16.5 -43t-15 -35t-15 -31t-16.5 -32l153 8v-90h-379l3 68q38 1 68 19.5t55.5 52t48 80.5t45.5 104l462 1149h46l391 -1166q6 -20 13.5 -46.5t14 -55t11 -56.5t4.5 -52v-15l133 8v-90h-449l2 68q37 1 61 9.5t38 22.5t19.5 32.5t5.5 38.5
q0 23 -5.5 47t-11.5 44l-59 192l-524 -12zM539 958q-53 -134 -92.5 -238.5t-71.5 -189.5h469l-216 658h-4zM518 1737q-45 0 -87 -30t-80 -87l-58 35q21 46 50 83t62 62.5t68.5 39t68.5 13.5q59 0 99.5 -21t74 -46.5t65.5 -46.5t73 -21q57 0 100.5 33.5t77.5 87.5l54 -29
q-25 -63 -54.5 -103.5t-61.5 -63.5t-66 -32t-68 -9q-53 0 -93 21t-75.5 46.5t-71 46.5t-78.5 21z" />
    <glyph glyph-name="Adieresis" unicode="&#xc4;" horiz-adv-x="1293" 
d="M0 0zM260 223q-9 -24 -16.5 -43t-15 -35t-15 -31t-16.5 -32l153 8v-90h-379l3 68q38 1 68 19.5t55.5 52t48 80.5t45.5 104l462 1149h46l391 -1166q6 -20 13.5 -46.5t14 -55t11 -56.5t4.5 -52v-15l133 8v-90h-449l2 68q37 1 61 9.5t38 22.5t19.5 32.5t5.5 38.5
q0 23 -5.5 47t-11.5 44l-59 192l-524 -12zM539 958q-53 -134 -92.5 -238.5t-71.5 -189.5h469l-216 658h-4zM629 1715q-1 -26 -10 -48t-23.5 -38.5t-33.5 -26t-38 -9.5q-21 0 -39 9.5t-31 26t-20 38.5t-6 48t10.5 48.5t24.5 39t34.5 26t40.5 9.5t38.5 -9.5t29.5 -26t18 -39
t5 -48.5zM960 1715q-1 -26 -10 -48t-23.5 -38.5t-33.5 -26t-38 -9.5q-21 0 -39 9.5t-31 26t-20 38.5t-6 48t10.5 48.5t24.5 39t34.5 26t40.5 9.5t38.5 -9.5t29.5 -26t18 -39t5 -48.5z" />
    <glyph glyph-name="Aring" unicode="&#xc5;" horiz-adv-x="1293" 
d="M0 0zM260 223q-9 -24 -16.5 -43t-15 -35t-15 -31t-16.5 -32l153 8v-90h-379l3 68q38 1 68 19.5t55.5 52t48 80.5t45.5 104l462 1149h46l391 -1166q6 -20 13.5 -46.5t14 -55t11 -56.5t4.5 -52v-15l133 8v-90h-449l2 68q37 1 61 9.5t38 22.5t19.5 32.5t5.5 38.5
q0 23 -5.5 47t-11.5 44l-59 192l-524 -12zM539 958q-53 -134 -92.5 -238.5t-71.5 -189.5h469l-216 658h-4zM678 1908q-26 0 -49 -12.5t-37 -33t-22 -47.5t-8 -60q0 -38 9.5 -69.5t26.5 -54t40.5 -34.5t52.5 -12q21 1 40.5 12t34.5 30t24 45t9 58q0 46 -9.5 79.5t-26 55.5
t-38.5 32.5t-47 10.5zM678 1968q42 0 83 -12.5t73.5 -38.5t53 -66.5t20.5 -97.5q0 -54 -19 -96.5t-50.5 -72.5t-72 -45.5t-83.5 -15.5q-44 0 -85.5 12.5t-73.5 39t-51.5 68t-19.5 100.5q0 51 19.5 93t51 71t72 45t82.5 16z" />
    <glyph glyph-name="AE" unicode="&#xc6;" horiz-adv-x="1956" 
d="M1504 530q3 68 -9 104.5t-40.5 53.5t-74 19.5t-110.5 2.5q-38 0 -76 -1t-74 -3l-25 -464q-3 -56 -6.5 -95t-8.5 -65l396 -6q67 -1 121.5 15.5t94 54.5t63 100.5t28.5 152.5h69l-32 -399h-1049l4 74q46 1 74.5 13.5t45 36.5t23.5 59.5t9 82.5l10 187l-500 -11l-260 -359
v-2l158 9l-4 -90h-381l4 68q40 0 73.5 18t62.5 45.5t54 60.5t47 64l796 1094l1 2l-184 -9l4 91h1016l-8 -359h-68q4 91 -14.5 147.5t-54.5 88t-86 42t-107 9.5l-176 -4q-58 -2 -90 -16.5t-48.5 -44.5t-21.5 -75.5t-8 -107.5l-18 -330h151q64 0 110.5 5t77 24t46 57.5
t18.5 106.5h67l-22 -447h-68zM941 530l33 662h-2l-472 -662h441z" />
    <glyph glyph-name="Ccedilla" unicode="&#xc7;" horiz-adv-x="1411" 
d="M509 -446q54 9 102.5 25.5t86 38.5t59.5 49t22 58t-19 47t-51 16q-24 0 -50 -7.5t-47 -24.5l-66 35l59 190q-116 24 -209.5 83.5t-158.5 147t-100 198.5t-35 237q0 100 20.5 199.5t62 190.5t103.5 169.5t144.5 136.5t185.5 91t227 33q118 0 215.5 -30t190.5 -93l-5 111
h111l-25 -475h-74q-5 96 -35.5 171t-83 126.5t-125 78.5t-161.5 27q-113 0 -214 -50t-177.5 -142t-121.5 -222.5t-45 -290.5q0 -135 39.5 -246.5t108.5 -191t163 -123t204 -43.5q66 0 133 14.5t130 43.5t119 71.5t101 99.5l51 -43q-71 -89 -149 -146t-156 -89.5t-152 -45
t-137 -12.5q-9 0 -17.5 0.5t-17.5 0.5l-46 -122q15 9 34 16t38.5 11.5t37 7t29.5 2.5q36 0 62.5 -10t43.5 -27.5t25.5 -40.5t8.5 -49q0 -45 -21 -81t-56 -64.5t-80 -49.5t-92.5 -36t-94 -24.5t-83.5 -14.5z" />
    <glyph glyph-name="Egrave" unicode="&#xc8;" horiz-adv-x="1268" 
d="M83 0zM407 236q-3 -56 -6 -95t-8 -65l391 6q67 1 122 16.5t95.5 52t64.5 97t29 151.5h70l-33 -399h-1049l5 68q57 2 87.5 21t44 52t16.5 78.5t5 99.5l49 885q2 42 6 79.5t9 68.5l-150 -9l4 91h977l-8 -359h-68q5 91 -13.5 147.5t-54.5 88t-86 42t-108 9.5l-176 -4
q-58 -2 -90 -16.5t-48 -44.5t-21 -75.5t-9 -107.5l-18 -328l147 -2q64 -1 111 4t78.5 24.5t47.5 58t19 106.5h68l-23 -447h-67q3 68 -9 105.5t-40.5 55t-74.5 20t-112 0.5l-149 -6zM573 1747q-39 25 -52.5 46.5t-13.5 40.5q0 23 14 42.5t51 19.5q16 0 36.5 -9t46.5 -32
l260 -241l-43 -58z" />
    <glyph glyph-name="Eacute" unicode="&#xc9;" horiz-adv-x="1268" 
d="M83 0zM407 236q-3 -56 -6 -95t-8 -65l391 6q67 1 122 16.5t95.5 52t64.5 97t29 151.5h70l-33 -399h-1049l5 68q57 2 87.5 21t44 52t16.5 78.5t5 99.5l49 885q2 42 6 79.5t9 68.5l-150 -9l4 91h977l-8 -359h-68q5 91 -13.5 147.5t-54.5 88t-86 42t-108 9.5l-176 -4
q-58 -2 -90 -16.5t-48 -44.5t-21 -75.5t-9 -107.5l-18 -328l147 -2q64 -1 111 4t78.5 24.5t47.5 58t19 106.5h68l-23 -447h-67q3 68 -9 105.5t-40.5 55t-74.5 20t-112 0.5l-149 -6zM632 1556l-43 58l260 241q26 23 46.5 32t36.5 9q37 0 51 -19.5t14 -42.5q0 -19 -14 -40.5
t-52 -46.5z" />
    <glyph glyph-name="Ecircumflex" unicode="&#xca;" horiz-adv-x="1268" 
d="M83 0zM407 236q-3 -56 -6 -95t-8 -65l391 6q67 1 122 16.5t95.5 52t64.5 97t29 151.5h70l-33 -399h-1049l5 68q57 2 87.5 21t44 52t16.5 78.5t5 99.5l49 885q2 42 6 79.5t9 68.5l-150 -9l4 91h977l-8 -359h-68q5 91 -13.5 147.5t-54.5 88t-86 42t-108 9.5l-176 -4
q-58 -2 -90 -16.5t-48 -44.5t-21 -75.5t-9 -107.5l-18 -328l147 -2q64 -1 111 4t78.5 24.5t47.5 58t19 106.5h68l-23 -447h-67q3 68 -9 105.5t-40.5 55t-74.5 20t-112 0.5l-149 -6zM739 1905h4l370 -289l-37 -57l-356 182h-4l-348 -178l-31 55z" />
    <glyph glyph-name="Edieresis" unicode="&#xcb;" horiz-adv-x="1268" 
d="M83 0zM407 236q-3 -56 -6 -95t-8 -65l391 6q67 1 122 16.5t95.5 52t64.5 97t29 151.5h70l-33 -399h-1049l5 68q57 2 87.5 21t44 52t16.5 78.5t5 99.5l49 885q2 42 6 79.5t9 68.5l-150 -9l4 91h977l-8 -359h-68q5 91 -13.5 147.5t-54.5 88t-86 42t-108 9.5l-176 -4
q-58 -2 -90 -16.5t-48 -44.5t-21 -75.5t-9 -107.5l-18 -328l147 -2q64 -1 111 4t78.5 24.5t47.5 58t19 106.5h68l-23 -447h-67q3 68 -9 105.5t-40.5 55t-74.5 20t-112 0.5l-149 -6zM670 1715q-1 -26 -10 -48t-23.5 -38.5t-33.5 -26t-38 -9.5q-21 0 -39 9.5t-31 26t-20 38.5
t-6 48t10.5 48.5t24.5 39t34.5 26t40.5 9.5t38.5 -9.5t29.5 -26t18 -39t5 -48.5zM1001 1715q-1 -26 -10 -48t-23.5 -38.5t-33.5 -26t-38 -9.5q-21 0 -39 9.5t-31 26t-20 38.5t-6 48t10.5 48.5t24.5 39t34.5 26t40.5 9.5t38.5 -9.5t29.5 -26t18 -39t5 -48.5z" />
    <glyph glyph-name="Igrave" unicode="&#xcc;" horiz-adv-x="680" 
d="M83 0zM288 1204q2 42 6 79.5t9 68.5l-148 -9l4 91h453l-4 -68q-54 -2 -84 -18t-45 -45t-19 -71.5t-6 -97.5l-47 -890q-2 -57 -5.5 -96.5t-8.5 -65.5l147 8l-4 -90h-453l5 68q57 2 87.5 21t44.5 52t16.5 78.5t4.5 99.5zM164 1747q-39 25 -52.5 46.5t-13.5 40.5
q0 23 14 42.5t51 19.5q16 0 36.5 -9t46.5 -32l260 -241l-43 -58z" />
    <glyph glyph-name="Iacute" unicode="&#xcd;" horiz-adv-x="681" 
d="M84 0zM289 1204q2 42 6 79.5t9 68.5l-148 -9l4 91h453l-4 -68q-54 -2 -84 -18t-45 -45t-19 -71.5t-6 -97.5l-47 -890q-2 -57 -5.5 -96.5t-8.5 -65.5l147 8l-4 -90h-453l5 68q57 2 87.5 21t44.5 52t16.5 78.5t4.5 99.5zM367 1556l-43 58l260 241q26 23 46.5 32t36.5 9
q37 0 51 -19.5t14 -42.5q0 -19 -14 -40.5t-52 -46.5z" />
    <glyph glyph-name="Icircumflex" unicode="&#xce;" horiz-adv-x="680" 
d="M411 1905h4l350 -289l-37 -57l-333 182h-4l-330 -176l-33 51zM288 1204q2 42 6 79.5t9 68.5l-148 -9l4 91h453l-4 -68q-54 -2 -84 -18t-45 -45.5t-19 -71.5t-6 -97l-47 -890q-2 -56 -5.5 -96t-8.5 -66l147 8l-4 -90h-453l5 68q57 2 87.5 21t44 52t16.5 78.5t5 99.5z" />
    <glyph glyph-name="Idieresis" unicode="&#xcf;" horiz-adv-x="681" 
d="M289 1204q2 42 6 79.5t9 68.5l-148 -9l4 91h453l-4 -68q-54 -2 -84 -18t-45 -45t-19 -71.5t-6 -97.5l-47 -890q-2 -57 -5.5 -96.5t-8.5 -65.5l147 8l-4 -90h-453l5 68q57 2 87.5 21t44.5 52t16.5 78.5t4.5 99.5zM346 1715q-1 -26 -10 -48t-23.5 -38.5t-33 -26t-38.5 -9.5
q-41 0 -68.5 33t-27.5 82q0 27 9 50.5t24 41.5t35 28t42 10q42 0 66.5 -33t24.5 -82v-8zM658 1715q-1 -26 -10 -48t-23.5 -38.5t-33 -26t-38.5 -9.5q-41 0 -68.5 33t-27.5 82q0 27 9 50.5t24 41.5t35 28t42 10q42 0 66.5 -33t24.5 -82v-8z" />
    <glyph glyph-name="Eth" unicode="&#xd0;" horiz-adv-x="1514" 
d="M54 772h213l24 432q2 42 6 79.5t9 68.5l-152 -9l6 91l475 2q178 0 324 -40t249.5 -122t160 -207.5t56.5 -296.5q0 -100 -22.5 -195.5t-67 -181.5t-112 -158t-157.5 -124t-203 -81.5t-248 -29.5h-531l5 68q57 2 87.5 21t44.5 54t16.5 78.5t4.5 97.5l19 355l-214 -2z
M436 772h263l-6 -92l-262 -4l-23 -434q-3 -57 -6 -95.5t-8 -64.5q34 -2 62.5 -3t54.5 -1h51h51q139 0 253.5 54t196 148.5t126.5 222t45 275.5q0 132 -37 239.5t-112.5 183.5t-190.5 117.5t-272 41.5q-59 0 -91.5 -13.5t-48 -42t-20 -72t-7.5 -103.5z" />
    <glyph glyph-name="Ntilde" unicode="&#xd1;" horiz-adv-x="1561" 
d="M92 0zM1311 -23h-99l-837 1197h-4l-33 -889q-3 -53 -5 -104t-9 -99l147 8l-4 -90h-375l2 68q47 0 75 16.5t43 40.5t20 52t6 52l55 1123l-137 -9l4 91h243l824 -1172h4l43 942q2 45 5.5 81.5t8.5 66.5l-147 -9l4 91h377l-4 -68q-58 -2 -87.5 -21.5t-42.5 -52.5t-15 -78
t-5 -100zM665 1737q-45 0 -87 -30t-80 -87l-58 35q21 46 50 83t62 62.5t68.5 39t68.5 13.5q59 0 99.5 -21t74 -46.5t65.5 -46.5t73 -21q57 0 100.5 33.5t77.5 87.5l54 -29q-25 -63 -54.5 -103.5t-61.5 -63.5t-66 -32t-68 -9q-53 0 -93 21t-75.5 46.5t-71 46.5t-78.5 21z" />
    <glyph glyph-name="Ograve" unicode="&#xd2;" horiz-adv-x="1613" 
d="M100 0zM835 1385q-87 0 -160.5 -28.5t-133 -77.5t-105.5 -115.5t-77 -142.5t-47 -157.5t-16 -160.5q0 -70 11.5 -145t36.5 -147.5t64 -137.5t94.5 -114.5t127.5 -78.5t162 -29q88 0 162.5 28t134.5 76.5t105.5 114t76 140t46 155t15.5 158.5q0 80 -14 160.5t-42 154
t-70 137t-97 110.5t-123.5 73.5t-150.5 26.5zM100 670q0 159 52.5 303t149.5 254t235 175t309 65q120 0 217.5 -29.5t173 -81t130.5 -120.5t91 -148t53 -164t17 -168q0 -87 -20.5 -179.5t-61.5 -180t-103 -165.5t-144.5 -136.5t-187 -93t-229.5 -34.5q-120 0 -217.5 29
t-173 79.5t-130.5 118.5t-91 146t-53 162.5t-17 167.5zM676 1747q-39 25 -52.5 46.5t-13.5 40.5q0 23 14 42.5t51 19.5q16 0 36.5 -9t46.5 -32l260 -241l-43 -58z" />
    <glyph glyph-name="Oacute" unicode="&#xd3;" horiz-adv-x="1613" 
d="M100 0zM835 1385q-87 0 -160.5 -28.5t-133 -77.5t-105.5 -115.5t-77 -142.5t-47 -157.5t-16 -160.5q0 -70 11.5 -145t36.5 -147.5t64 -137.5t94.5 -114.5t127.5 -78.5t162 -29q88 0 162.5 28t134.5 76.5t105.5 114t76 140t46 155t15.5 158.5q0 80 -14 160.5t-42 154
t-70 137t-97 110.5t-123.5 73.5t-150.5 26.5zM100 670q0 159 52.5 303t149.5 254t235 175t309 65q120 0 217.5 -29.5t173 -81t130.5 -120.5t91 -148t53 -164t17 -168q0 -87 -20.5 -179.5t-61.5 -180t-103 -165.5t-144.5 -136.5t-187 -93t-229.5 -34.5q-120 0 -217.5 29
t-173 79.5t-130.5 118.5t-91 146t-53 162.5t-17 167.5zM755 1556l-43 58l260 241q26 23 46.5 32t36.5 9q37 0 51 -19.5t14 -42.5q0 -19 -14 -40.5t-52 -46.5z" />
    <glyph glyph-name="Ocircumflex" unicode="&#xd4;" horiz-adv-x="1613" 
d="M100 0zM835 1385q-87 0 -160.5 -28.5t-133 -77.5t-105.5 -115.5t-77 -142.5t-47 -157.5t-16 -160.5q0 -70 11.5 -145t36.5 -147.5t64 -137.5t94.5 -114.5t127.5 -78.5t162 -29q88 0 162.5 28t134.5 76.5t105.5 114t76 140t46 155t15.5 158.5q0 80 -14 160.5t-42 154
t-70 137t-97 110.5t-123.5 73.5t-150.5 26.5zM100 670q0 159 52.5 303t149.5 254t235 175t309 65q120 0 217.5 -29.5t173 -81t130.5 -120.5t91 -148t53 -164t17 -168q0 -87 -20.5 -179.5t-61.5 -180t-103 -165.5t-144.5 -136.5t-187 -93t-229.5 -34.5q-120 0 -217.5 29
t-173 79.5t-130.5 118.5t-91 146t-53 162.5t-17 167.5zM883 1905h4l370 -289l-37 -57l-356 182h-4l-348 -178l-31 55z" />
    <glyph glyph-name="Otilde" unicode="&#xd5;" horiz-adv-x="1613" 
d="M100 0zM835 1385q-87 0 -160.5 -28.5t-133 -77.5t-105.5 -115.5t-77 -142.5t-47 -157.5t-16 -160.5q0 -70 11.5 -145t36.5 -147.5t64 -137.5t94.5 -114.5t127.5 -78.5t162 -29q88 0 162.5 28t134.5 76.5t105.5 114t76 140t46 155t15.5 158.5q0 80 -14 160.5t-42 154
t-70 137t-97 110.5t-123.5 73.5t-150.5 26.5zM100 670q0 159 52.5 303t149.5 254t235 175t309 65q120 0 217.5 -29.5t173 -81t130.5 -120.5t91 -148t53 -164t17 -168q0 -87 -20.5 -179.5t-61.5 -180t-103 -165.5t-144.5 -136.5t-187 -93t-229.5 -34.5q-120 0 -217.5 29
t-173 79.5t-130.5 118.5t-91 146t-53 162.5t-17 167.5zM704 1737q-45 0 -87 -30t-80 -87l-58 35q21 46 50 83t62 62.5t68.5 39t68.5 13.5q59 0 99.5 -21t74 -46.5t65.5 -46.5t73 -21q57 0 100.5 33.5t77.5 87.5l54 -29q-25 -63 -54.5 -103.5t-61.5 -63.5t-66 -32t-68 -9
q-53 0 -93 21t-75.5 46.5t-71 46.5t-78.5 21z" />
    <glyph glyph-name="Odieresis" unicode="&#xd6;" horiz-adv-x="1613" 
d="M100 0zM835 1385q-87 0 -160.5 -28.5t-133 -77.5t-105.5 -115.5t-77 -142.5t-47 -157.5t-16 -160.5q0 -70 11.5 -145t36.5 -147.5t64 -137.5t94.5 -114.5t127.5 -78.5t162 -29q88 0 162.5 28t134.5 76.5t105.5 114t76 140t46 155t15.5 158.5q0 80 -14 160.5t-42 154
t-70 137t-97 110.5t-123.5 73.5t-150.5 26.5zM100 670q0 159 52.5 303t149.5 254t235 175t309 65q120 0 217.5 -29.5t173 -81t130.5 -120.5t91 -148t53 -164t17 -168q0 -87 -20.5 -179.5t-61.5 -180t-103 -165.5t-144.5 -136.5t-187 -93t-229.5 -34.5q-120 0 -217.5 29
t-173 79.5t-130.5 118.5t-91 146t-53 162.5t-17 167.5zM810 1715q-1 -26 -10 -48t-23.5 -38.5t-33.5 -26t-38 -9.5q-21 0 -39 9.5t-31 26t-20 38.5t-6 48t10.5 48.5t24.5 39t34.5 26t40.5 9.5t38.5 -9.5t29.5 -26t18 -39t5 -48.5zM1141 1715q-1 -26 -10 -48t-23.5 -38.5
t-33.5 -26t-38 -9.5q-21 0 -39 9.5t-31 26t-20 38.5t-6 48t10.5 48.5t24.5 39t34.5 26t40.5 9.5t38.5 -9.5t29.5 -26t18 -39t5 -48.5z" />
    <glyph glyph-name="multiply" unicode="&#xd7;" horiz-adv-x="1093" 
d="M75 279l383 358l-329 354l88 92l334 -359l397 370l69 -88l-387 -367l344 -369l-86 -94l-351 376l-384 -364z" />
    <glyph glyph-name="Oslash" unicode="&#xd8;" horiz-adv-x="1611" 
d="M99 670q0 159 52.5 303t149.5 254t235 175t309 65q105 0 190 -22t157 -62l103 163l103 -69l-106 -164q61 -53 105 -118.5t73 -138t43 -149t14 -151.5q0 -87 -20.5 -179.5t-61.5 -180t-103 -165.5t-144.5 -136.5t-187 -93t-229.5 -34.5q-93 0 -170.5 17t-143.5 48
l-122 -190l-90 56l119 189q-72 51 -123.5 118t-85.5 143.5t-50 158.5t-16 163zM834 1385q-87 0 -161 -28.5t-133.5 -78.5t-105.5 -116.5t-76.5 -142.5t-46.5 -158t-16 -161q0 -60 9 -125.5t28 -129.5t48.5 -124.5t71.5 -110.5l670 1062q-57 54 -128.5 83.5t-159.5 29.5z
M1331 723q0 121 -32 239t-95 214l-672 -1043q52 -38 116.5 -60t142.5 -22q88 0 162.5 28t134.5 76.5t105.5 114t76 140t46 155t15.5 158.5z" />
    <glyph glyph-name="Ugrave" unicode="&#xd9;" horiz-adv-x="1524" 
d="M111 0zM1336 637q-8 -134 -43 -255t-104.5 -213.5t-177.5 -147t-261 -54.5q-150 0 -253 35.5t-166.5 110t-91.5 188.5t-28 272q0 79 31 613q1 27 2.5 48.5t3.5 41t4.5 38t5.5 38.5l-147 -6l4 88h455l-4 -68q-52 0 -82 -17.5t-45 -42.5t-19.5 -53t-5.5 -49
q-30 -568 -30 -617q0 -100 16 -191t60 -160.5t121 -110.5t200 -41q109 0 190.5 40t136.5 111.5t85 171.5t38 220l37 577q2 42 5.5 79.5t8.5 68.5l-147 -9l4 91h383l-2 -68q-59 -2 -89.5 -21t-44.5 -52.5t-16.5 -79t-5.5 -99.5zM588 1747q-39 25 -52.5 46.5t-13.5 40.5
q0 23 14 42.5t51 19.5q16 0 36.5 -9t46.5 -32l260 -241l-43 -58z" />
    <glyph glyph-name="Uacute" unicode="&#xda;" horiz-adv-x="1524" 
d="M111 0zM1336 637q-8 -134 -43 -255t-104.5 -213.5t-177.5 -147t-261 -54.5q-150 0 -253 35.5t-166.5 110t-91.5 188.5t-28 272q0 79 31 613q1 27 2.5 48.5t3.5 41t4.5 38t5.5 38.5l-147 -6l4 88h455l-4 -68q-52 0 -82 -17.5t-45 -42.5t-19.5 -53t-5.5 -49
q-30 -568 -30 -617q0 -100 16 -191t60 -160.5t121 -110.5t200 -41q109 0 190.5 40t136.5 111.5t85 171.5t38 220l37 577q2 42 5.5 79.5t8.5 68.5l-147 -9l4 91h383l-2 -68q-59 -2 -89.5 -21t-44.5 -52.5t-16.5 -79t-5.5 -99.5zM792 1556l-43 58l260 241q26 23 46.5 32
t36.5 9q37 0 51 -19.5t14 -42.5q0 -19 -14 -40.5t-52 -46.5z" />
    <glyph glyph-name="Ucircumflex" unicode="&#xdb;" horiz-adv-x="1524" 
d="M111 0zM1336 637q-8 -134 -43 -255t-104.5 -213.5t-177.5 -147t-261 -54.5q-150 0 -253 35.5t-166.5 110t-91.5 188.5t-28 272q0 79 31 613q1 27 2.5 48.5t3.5 41t4.5 38t5.5 38.5l-147 -6l4 88h455l-4 -68q-52 0 -82 -17.5t-45 -42.5t-19.5 -53t-5.5 -49
q-30 -568 -30 -617q0 -100 16 -191t60 -160.5t121 -110.5t200 -41q109 0 190.5 40t136.5 111.5t85 171.5t38 220l37 577q2 42 5.5 79.5t8.5 68.5l-147 -9l4 91h383l-2 -68q-59 -2 -89.5 -21t-44.5 -52.5t-16.5 -79t-5.5 -99.5zM877 1905h4l370 -289l-37 -57l-356 182h-4
l-348 -178l-31 55z" />
    <glyph glyph-name="Udieresis" unicode="&#xdc;" horiz-adv-x="1524" 
d="M111 0zM1336 637q-8 -134 -43 -255t-104.5 -213.5t-177.5 -147t-261 -54.5q-150 0 -253 35.5t-166.5 110t-91.5 188.5t-28 272q0 79 31 613q1 27 2.5 48.5t3.5 41t4.5 38t5.5 38.5l-147 -6l4 88h455l-4 -68q-52 0 -82 -17.5t-45 -42.5t-19.5 -53t-5.5 -49
q-30 -568 -30 -617q0 -100 16 -191t60 -160.5t121 -110.5t200 -41q109 0 190.5 40t136.5 111.5t85 171.5t38 220l37 577q2 42 5.5 79.5t8.5 68.5l-147 -9l4 91h383l-2 -68q-59 -2 -89.5 -21t-44.5 -52.5t-16.5 -79t-5.5 -99.5zM808 1715q-1 -26 -10 -48t-23.5 -38.5
t-33.5 -26t-38 -9.5q-21 0 -39 9.5t-31 26t-20 38.5t-6 48t10.5 48.5t24.5 39t34.5 26t40.5 9.5t38.5 -9.5t29.5 -26t18 -39t5 -48.5zM1139 1715q-1 -26 -10 -48t-23.5 -38.5t-33.5 -26t-38 -9.5q-21 0 -39 9.5t-31 26t-20 38.5t-6 48t10.5 48.5t24.5 39t34.5 26t40.5 9.5
t38.5 -9.5t29.5 -26t18 -39t5 -48.5z" />
    <glyph glyph-name="Yacute" unicode="&#xdd;" horiz-adv-x="1312" 
d="M42 0zM591 553l-324 563q-49 82 -71 137.5t-27 94.5l-127 -5l4 91h520l-4 -68q-71 0 -108.5 -16.5t-49.5 -46t-1 -70.5t38 -90q97 -169 161.5 -276.5t105.5 -168.5h4q40 70 76.5 133t213.5 363l21 35t26 41.5t29.5 42.5t30.5 37l-162 -7l4 91h418l-4 -68
q-51 -3 -91.5 -20t-77.5 -49.5t-72 -81t-74 -113.5q-79 -133 -149 -254t-136 -234q-22 -370 -21 -370q-2 -56 -5.5 -96t-8.5 -66l170 8l-4 -90h-473l4 68q58 2 88 22t43.5 53.5t15.5 78.5t5 97zM709 1556l-43 58l260 241q26 23 46.5 32t36.5 9q37 0 51 -19.5t14 -42.5
q0 -19 -14 -40.5t-52 -46.5z" />
    <glyph glyph-name="Thorn" unicode="&#xde;" horiz-adv-x="1182" 
d="M289 1204q2 42 6 79.5t9 68.5l-148 -9l4 91h453l-4 -68q-48 -2 -76.5 -15t-44.5 -36t-22 -56.5t-9 -76.5q27 1 54 1.5t53 0.5q148 0 257.5 -26t181.5 -75.5t107 -120t35 -159.5q0 -48 -13 -102t-44 -107t-82.5 -101.5t-129.5 -85.5t-184.5 -59t-246.5 -22h-33l-5 -107
q-1 -28 -2.5 -48t-3 -35.5t-3 -28t-4.5 -25.5l147 8l-4 -90h-453l5 68q57 2 87.5 21t44 52t16.5 78.5t5 99.5zM547 1104h-33.5t-60.5 -2l-37 -696q23 -2 44.5 -1t47.5 1q97 1 176.5 26.5t137.5 73t92 114t39 148.5q5 89 -22.5 153t-81.5 104.5t-131 59.5t-171 19z" />
    <glyph glyph-name="germandbls" unicode="&#xdf;" horiz-adv-x="1331" 
d="M918 -23q-62 0 -120 14.5t-102 42t-70.5 68.5t-26.5 94q0 45 25.5 73t63.5 28q41 0 62 -27t21 -60q0 -15 -3.5 -30.5t-14.5 -32.5q16 -45 60.5 -69.5t100.5 -24.5q94 0 137 51t43 144q0 39 -18 73.5t-47 65.5t-66 60.5t-75.5 58.5t-75 59t-64.5 62.5t-44 69t-13 77.5
q4 56 26.5 95.5t54.5 71.5t68.5 61t69 64t56 80.5t28.5 110.5q3 42 -9 83.5t-40.5 74.5t-75 53.5t-111.5 20.5q-74 0 -129 -22.5t-94 -64.5t-65 -101t-42 -132q-14 -65 -23.5 -142t-17 -163.5t-14 -182t-14.5 -198.5q-8 -93 -15 -187t-17.5 -184.5t-25 -175.5t-36.5 -159
t-53.5 -135.5t-75 -105.5t-101.5 -68t-133 -23q-160 2 -160 106q0 12 4.5 27t15 28.5t26.5 22.5t39 8q38 -1 58 -27.5t20 -68.5q12 -8 31.5 -12t30.5 -4q48 0 80 34.5t53.5 98t34 152.5t21 197.5t16.5 233.5t19 261q9 112 18 222.5t23 214.5l-184 -3l10 88h188
q21 114 56.5 211.5t95.5 169t150 111.5t219 40q114 0 190.5 -29t121 -74.5t60 -100.5t8.5 -107q-8 -60 -34.5 -104t-61.5 -79t-73 -63.5t-70 -56.5t-53 -59t-21 -70q0 -40 31.5 -75.5t79.5 -71t103 -74t103 -85t79.5 -103t31.5 -128.5q0 -65 -24.5 -119.5t-69.5 -94.5
t-108.5 -62.5t-141.5 -22.5z" />
    <glyph glyph-name="agrave" unicode="&#xe0;" horiz-adv-x="1123" 
d="M75 0zM948 1012q-17 -126 -33 -252.5t-29 -237t-21 -197.5t-8 -133q0 -20 1 -40t7 -36t17.5 -26t32.5 -10q17 0 36.5 10.5t39.5 34t39 61.5t34 92l58 -12q-7 -36 -26.5 -85.5t-52.5 -95t-80 -77t-108 -31.5q-41 0 -70 13.5t-47 37.5t-26 58t-8 76q0 58 10.5 127t26.5 147
h-6q-32 -101 -66.5 -174t-69.5 -124t-70.5 -82.5t-69 -49t-65 -23.5t-59.5 -6q-55 0 -102.5 19.5t-82.5 62t-55 110.5t-20 165q0 144 37.5 273t112 227t186.5 155.5t262 57.5q63 0 135.5 -9t139.5 -26zM769 948q-31 13 -71 19t-88 6q-93 0 -161.5 -52t-113 -137.5
t-66.5 -194t-22 -221.5q0 -65 6.5 -120.5t22.5 -95.5t41 -62.5t63 -22.5q47 0 94 40t89.5 107t80 156t65 187t43.5 199t17 192zM474 1405q-26 28 -36 50.5t-10 40.5q0 31 16 48.5t44 17.5q18 0 41 -13.5t46 -51.5l159 -270l-49 -41z" />
    <glyph glyph-name="aacute" unicode="&#xe1;" horiz-adv-x="1123" 
d="M75 0zM948 1012q-17 -126 -33 -252.5t-29 -237t-21 -197.5t-8 -133q0 -20 1 -40t7 -36t17.5 -26t32.5 -10q17 0 36.5 10.5t39.5 34t39 61.5t34 92l58 -12q-7 -36 -26.5 -85.5t-52.5 -95t-80 -77t-108 -31.5q-41 0 -70 13.5t-47 37.5t-26 58t-8 76q0 58 10.5 127t26.5 147
h-6q-32 -101 -66.5 -174t-69.5 -124t-70.5 -82.5t-69 -49t-65 -23.5t-59.5 -6q-55 0 -102.5 19.5t-82.5 62t-55 110.5t-20 165q0 144 37.5 273t112 227t186.5 155.5t262 57.5q63 0 135.5 -9t139.5 -26zM769 948q-31 13 -71 19t-88 6q-93 0 -161.5 -52t-113 -137.5
t-66.5 -194t-22 -221.5q0 -65 6.5 -120.5t22.5 -95.5t41 -62.5t63 -22.5q47 0 94 40t89.5 107t80 156t65 187t43.5 199t17 192zM645 1186l-49 41l159 270q23 38 45 51.5t40 13.5q29 0 45.5 -17t16.5 -49q0 -18 -10 -40.5t-36 -50.5z" />
    <glyph glyph-name="acircumflex" unicode="&#xe2;" horiz-adv-x="1123" 
d="M75 0zM948 1012q-17 -126 -33 -252.5t-29 -237t-21 -197.5t-8 -133q0 -20 1 -40t7 -36t17.5 -26t32.5 -10q17 0 36.5 10.5t39.5 34t39 61.5t34 92l58 -12q-7 -36 -26.5 -85.5t-52.5 -95t-80 -77t-108 -31.5q-41 0 -70 13.5t-47 37.5t-26 58t-8 76q0 58 10.5 127t26.5 147
h-6q-32 -101 -66.5 -174t-69.5 -124t-70.5 -82.5t-69 -49t-65 -23.5t-59.5 -6q-55 0 -102.5 19.5t-82.5 62t-55 110.5t-20 165q0 144 37.5 273t112 227t186.5 155.5t262 57.5q63 0 135.5 -9t139.5 -26zM769 948q-31 13 -71 19t-88 6q-93 0 -161.5 -52t-113 -137.5
t-66.5 -194t-22 -221.5q0 -65 6.5 -120.5t22.5 -95.5t41 -62.5t63 -22.5q47 0 94 40t89.5 107t80 156t65 187t43.5 199t17 192zM659 1589h4l287 -329l-51 -54l-256 232h-4l-279 -224l-45 54z" />
    <glyph glyph-name="atilde" unicode="&#xe3;" horiz-adv-x="1123" 
d="M75 0zM948 1012q-17 -126 -33 -252.5t-29 -237t-21 -197.5t-8 -133q0 -20 1 -40t7 -36t17.5 -26t32.5 -10q17 0 36.5 10.5t39.5 34t39 61.5t34 92l58 -12q-7 -36 -26.5 -85.5t-52.5 -95t-80 -77t-108 -31.5q-41 0 -70 13.5t-47 37.5t-26 58t-8 76q0 58 10.5 127t26.5 147
h-6q-32 -101 -66.5 -174t-69.5 -124t-70.5 -82.5t-69 -49t-65 -23.5t-59.5 -6q-55 0 -102.5 19.5t-82.5 62t-55 110.5t-20 165q0 144 37.5 273t112 227t186.5 155.5t262 57.5q63 0 135.5 -9t139.5 -26zM769 948q-31 13 -71 19t-88 6q-93 0 -161.5 -52t-113 -137.5
t-66.5 -194t-22 -221.5q0 -65 6.5 -120.5t22.5 -95.5t41 -62.5t63 -22.5q47 0 94 40t89.5 107t80 156t65 187t43.5 199t17 192zM548 1372q-35 0 -77 -24t-73 -68l-51 27q15 37 41 68.5t56.5 54t63 35t61.5 12.5q48 0 82 -16.5t62.5 -37t56.5 -37t63 -16.5q45 0 80.5 27.5
t68.5 77.5l49 -25q-19 -51 -44 -86t-53.5 -57.5t-57.5 -32.5t-56 -10q-48 0 -83 17t-65 37t-59 37t-65 17z" />
    <glyph glyph-name="adieresis" unicode="&#xe4;" horiz-adv-x="1123" 
d="M75 0zM948 1012q-17 -126 -33 -252.5t-29 -237t-21 -197.5t-8 -133q0 -20 1 -40t7 -36t17.5 -26t32.5 -10q17 0 36.5 10.5t39.5 34t39 61.5t34 92l58 -12q-7 -36 -26.5 -85.5t-52.5 -95t-80 -77t-108 -31.5q-41 0 -70 13.5t-47 37.5t-26 58t-8 76q0 58 10.5 127t26.5 147
h-6q-32 -101 -66.5 -174t-69.5 -124t-70.5 -82.5t-69 -49t-65 -23.5t-59.5 -6q-55 0 -102.5 19.5t-82.5 62t-55 110.5t-20 165q0 144 37.5 273t112 227t186.5 155.5t262 57.5q63 0 135.5 -9t139.5 -26zM769 948q-31 13 -71 19t-88 6q-93 0 -161.5 -52t-113 -137.5
t-66.5 -194t-22 -221.5q0 -65 6.5 -120.5t22.5 -95.5t41 -62.5t63 -22.5q47 0 94 40t89.5 107t80 156t65 187t43.5 199t17 192zM617 1373q-1 -24 -9.5 -44.5t-22 -35.5t-31 -23.5t-35.5 -8.5q-20 0 -36.5 8.5t-28.5 23.5t-18.5 35.5t-6.5 44.5q1 23 10 43.5t23 35.5t32 24
t37 9q20 0 36.5 -9t27.5 -24t17 -35.5t5 -43.5zM918 1373q-1 -24 -9.5 -44.5t-22 -35.5t-31 -23.5t-35.5 -8.5q-20 0 -36.5 8.5t-28.5 23.5t-18.5 35.5t-6.5 44.5q1 23 10 43.5t23 35.5t32 24t37 9q20 0 36.5 -9t27.5 -24t17 -35.5t5 -43.5z" />
    <glyph glyph-name="aring" unicode="&#xe5;" horiz-adv-x="1123" 
d="M75 0zM948 1012q-17 -126 -33 -252.5t-29 -237t-21 -197.5t-8 -133q0 -20 1 -40t7 -36t17.5 -26t32.5 -10q17 0 36.5 10.5t39.5 34t39 61.5t34 92l58 -12q-7 -36 -26.5 -85.5t-52.5 -95t-80 -77t-108 -31.5q-41 0 -70 13.5t-47 37.5t-26 58t-8 76q0 58 10.5 127t26.5 147
h-6q-32 -101 -66.5 -174t-69.5 -124t-70.5 -82.5t-69 -49t-65 -23.5t-59.5 -6q-55 0 -102.5 19.5t-82.5 62t-55 110.5t-20 165q0 144 37.5 273t112 227t186.5 155.5t262 57.5q63 0 135.5 -9t139.5 -26zM769 948q-31 13 -71 19t-88 6q-93 0 -161.5 -52t-113 -137.5
t-66.5 -194t-22 -221.5q0 -65 6.5 -120.5t22.5 -95.5t41 -62.5t63 -22.5q47 0 94 40t89.5 107t80 156t65 187t43.5 199t17 192zM673 1501q-22 -1 -40.5 -12.5t-32.5 -30.5t-22 -44.5t-8 -55.5q0 -57 27 -95t72 -38q19 1 36.5 11.5t30.5 28.5t21 43t8 54q0 62 -24 100.5
t-68 38.5zM677 1559q37 0 71.5 -11t61.5 -34t43.5 -57.5t16.5 -82.5q-1 -48 -20.5 -86t-49.5 -65t-67 -41.5t-74 -14.5q-38 0 -72.5 11t-61.5 34t-43 58.5t-16 83.5q1 45 20 83t49 65t67 42t75 15z" />
    <glyph glyph-name="ae" unicode="&#xe6;" horiz-adv-x="1529" 
d="M270 844q12 -16 15 -32.5t3 -30.5q0 -32 -23 -56t-60 -24q-35 0 -57.5 23.5t-22.5 58.5q0 45 28.5 92t80 85t125 62.5t163.5 24.5q101 0 163.5 -50.5t94.5 -135.5h4q60 91 147.5 138.5t202.5 47.5q62 0 107 -13t75 -33.5t48 -45.5t27.5 -49.5t12.5 -46t3 -33.5
q0 -30 -10.5 -64.5t-36.5 -69.5t-69.5 -69t-110 -63t-158 -52t-212.5 -36q0 -87 13.5 -159.5t44 -124t79.5 -80t120 -28.5q48 0 93 19t85.5 52.5t76.5 78.5t66 97l66 -38q-47 -90 -100 -150t-108 -96t-110.5 -51t-107.5 -15q-61 0 -110 10.5t-89 33.5t-72.5 58.5t-60.5 86.5
q-88 -97 -186 -143t-195 -46q-66 0 -115 16t-82 45t-49 70t-16 91q0 57 23 104.5t63.5 85.5t95 66.5t117 48t130.5 29t135 9.5q11 0 20.5 -0.5t19.5 -0.5q0 2 1 23t5 83q3 40 3 79q0 52 -7.5 97.5t-28 79.5t-56.5 54t-93 20q-39 0 -74 -10t-62.5 -27.5t-47 -42t-27.5 -53.5z
M669 233q-10 46 -14.5 95.5t-4.5 99.5v24t1 24q-47 -1 -97 -6t-98 -16t-90 -29t-74 -45.5t-50.5 -66t-18.5 -90.5q0 -41 17 -66.5t41.5 -40t52 -20t49.5 -5.5q37 0 75.5 10.5t75.5 29.5t71 45t64 57zM1098 979q-60 -2 -109 -35t-85.5 -90.5t-60 -136.5t-32.5 -172
q81 8 159 28.5t138.5 55.5t97.5 85t37 116q0 47 -14.5 76t-36 45.5t-47 22t-47.5 5.5z" />
    <glyph glyph-name="ccedilla" unicode="&#xe7;" horiz-adv-x="971" 
d="M572 -119q66 0 100.5 -35.5t34.5 -87.5q0 -43 -20.5 -77t-53.5 -60t-76 -45t-88 -32.5t-89 -22t-79 -13.5l-8 64q52 9 99.5 23.5t83.5 34t57.5 44t21.5 54.5q0 34 -20 48.5t-48 14.5q-24 0 -50 -8.5t-46 -22.5l-69 35l61 190q-70 12 -126 45t-95.5 87.5t-60.5 131.5
t-21 177q0 67 12.5 139t39 141t66 131t94 108.5t124 74t154.5 27.5q66 0 122 -18.5t97.5 -51t64.5 -76t23 -94.5q0 -48 -24 -74.5t-68 -26.5q-23 0 -38.5 8.5t-25 21.5t-14 27t-4.5 26q0 18 4.5 38.5t21.5 38.5q-11 57 -56.5 83t-105.5 26q-59 0 -105 -22t-80 -60t-57.5 -88
t-37.5 -105.5t-20.5 -114t-6.5 -112.5q0 -108 18.5 -183t52 -122t79.5 -68.5t100 -21.5q40 0 83 12.5t84 42.5t78.5 79t67.5 123l72 -34q-39 -88 -86 -149t-100 -99.5t-110.5 -56.5t-116.5 -19l-48 -135q29 19 66 29t72 10z" />
    <glyph glyph-name="egrave" unicode="&#xe8;" horiz-adv-x="976" 
d="M80 0zM864 811q0 -57 -27 -102.5t-73 -81.5t-106.5 -63t-127.5 -47t-136.5 -32.5t-133.5 -19.5q1 -193 57 -289t177 -96q45 0 90 14.5t88.5 44.5t83.5 76.5t74 111.5l67 -38q-86 -161 -192.5 -236.5t-245.5 -75.5q-98 0 -169 32t-118 90t-69.5 139.5t-22.5 181.5
q0 79 13.5 156.5t41 147t68.5 129t96.5 102.5t125 67.5t153.5 24.5q54 0 105.5 -12.5t91.5 -40t64.5 -72.5t24.5 -111zM549 977q-71 0 -122.5 -37.5t-86 -99t-53.5 -140.5t-25 -161q81 11 158.5 34t138.5 58.5t98.5 83t37.5 106.5q0 33 -9 61.5t-27 49.5t-45.5 33t-64.5 12z
M397 1405q-26 28 -36 50.5t-10 40.5q0 31 16 48.5t44 17.5q18 0 41 -13.5t46 -51.5l159 -270l-49 -41z" />
    <glyph glyph-name="eacute" unicode="&#xe9;" horiz-adv-x="976" 
d="M80 0zM864 811q0 -57 -27 -102.5t-73 -81.5t-106.5 -63t-127.5 -47t-136.5 -32.5t-133.5 -19.5q1 -193 57 -289t177 -96q45 0 90 14.5t88.5 44.5t83.5 76.5t74 111.5l67 -38q-86 -161 -192.5 -236.5t-245.5 -75.5q-98 0 -169 32t-118 90t-69.5 139.5t-22.5 181.5
q0 79 13.5 156.5t41 147t68.5 129t96.5 102.5t125 67.5t153.5 24.5q54 0 105.5 -12.5t91.5 -40t64.5 -72.5t24.5 -111zM549 977q-71 0 -122.5 -37.5t-86 -99t-53.5 -140.5t-25 -161q81 11 158.5 34t138.5 58.5t98.5 83t37.5 106.5q0 33 -9 61.5t-27 49.5t-45.5 33t-64.5 12z
M541 1186l-49 41l159 270q23 38 45 51.5t40 13.5q29 0 45.5 -17t16.5 -49q0 -18 -10 -40.5t-36 -50.5z" />
    <glyph glyph-name="ecircumflex" unicode="&#xea;" horiz-adv-x="976" 
d="M80 0zM864 811q0 -57 -27 -102.5t-73 -81.5t-106.5 -63t-127.5 -47t-136.5 -32.5t-133.5 -19.5q1 -193 57 -289t177 -96q45 0 90 14.5t88.5 44.5t83.5 76.5t74 111.5l67 -38q-86 -161 -192.5 -236.5t-245.5 -75.5q-98 0 -169 32t-118 90t-69.5 139.5t-22.5 181.5
q0 79 13.5 156.5t41 147t68.5 129t96.5 102.5t125 67.5t153.5 24.5q54 0 105.5 -12.5t91.5 -40t64.5 -72.5t24.5 -111zM549 977q-71 0 -122.5 -37.5t-86 -99t-53.5 -140.5t-25 -161q81 11 158.5 34t138.5 58.5t98.5 83t37.5 106.5q0 33 -9 61.5t-27 49.5t-45.5 33t-64.5 12z
M586 1589h4l287 -329l-51 -54l-256 232h-4l-279 -224l-45 54z" />
    <glyph glyph-name="edieresis" unicode="&#xeb;" horiz-adv-x="976" 
d="M80 0zM864 811q0 -57 -27 -102.5t-73 -81.5t-106.5 -63t-127.5 -47t-136.5 -32.5t-133.5 -19.5q1 -193 57 -289t177 -96q45 0 90 14.5t88.5 44.5t83.5 76.5t74 111.5l67 -38q-86 -161 -192.5 -236.5t-245.5 -75.5q-98 0 -169 32t-118 90t-69.5 139.5t-22.5 181.5
q0 79 13.5 156.5t41 147t68.5 129t96.5 102.5t125 67.5t153.5 24.5q54 0 105.5 -12.5t91.5 -40t64.5 -72.5t24.5 -111zM549 977q-71 0 -122.5 -37.5t-86 -99t-53.5 -140.5t-25 -161q81 11 158.5 34t138.5 58.5t98.5 83t37.5 106.5q0 33 -9 61.5t-27 49.5t-45.5 33t-64.5 12z
M524 1373q-1 -24 -9.5 -44.5t-22 -35.5t-31 -23.5t-35.5 -8.5q-20 0 -36.5 8.5t-28.5 23.5t-18.5 35.5t-6.5 44.5q1 23 10 43.5t23 35.5t32 24t37 9q20 0 36.5 -9t27.5 -24t17 -35.5t5 -43.5zM825 1373q-1 -24 -9.5 -44.5t-22 -35.5t-31 -23.5t-35.5 -8.5q-20 0 -36.5 8.5
t-28.5 23.5t-18.5 35.5t-6.5 44.5q1 23 10 43.5t23 35.5t32 24t37 9q20 0 36.5 -9t27.5 -24t17 -35.5t5 -43.5z" />
    <glyph glyph-name="igrave" unicode="&#xec;" horiz-adv-x="663" 
d="M15 0zM445 834q0 -62 -12 -141.5t-27 -168t-27 -180.5t-12 -178q0 -42 15 -64t49 -22q17 0 36.5 10.5t39.5 34t39 61.5t34 92l58 -12q-9 -43 -28.5 -93.5t-50.5 -94t-74.5 -72.5t-100.5 -29q-185 0 -185 193q0 89 12.5 174t27.5 168.5t27.5 168t12.5 171.5q0 13 -2.5 29
t-8.5 30t-17 23.5t-29 9.5q-17 0 -36.5 -10.5t-40 -34t-39.5 -61.5t-34 -92l-57 12q7 36 25 85.5t49.5 95t76.5 77t107 31.5q43 0 75.5 -15.5t54 -43.5t32 -67t10.5 -87zM168 1405q-26 28 -36 50.5t-10 40.5q0 31 16 48.5t44 17.5q18 0 41 -13.5t46 -51.5l159 -270l-49 -41z
" />
    <glyph glyph-name="iacute" unicode="&#xed;" horiz-adv-x="663" 
d="M15 0zM445 834q0 -62 -12 -141.5t-27 -168t-27 -180.5t-12 -178q0 -42 15 -64t49 -22q17 0 36.5 10.5t39.5 34t39 61.5t34 92l58 -12q-9 -43 -28.5 -93.5t-50.5 -94t-74.5 -72.5t-100.5 -29q-185 0 -185 193q0 89 12.5 174t27.5 168.5t27.5 168t12.5 171.5q0 13 -2.5 29
t-8.5 30t-17 23.5t-29 9.5q-17 0 -36.5 -10.5t-40 -34t-39.5 -61.5t-34 -92l-57 12q7 36 25 85.5t49.5 95t76.5 77t107 31.5q43 0 75.5 -15.5t54 -43.5t32 -67t10.5 -87zM335 1186l-49 41l159 270q23 38 45 51.5t40 13.5q29 0 45.5 -17t16.5 -49q0 -18 -10 -40.5t-36 -50.5z
" />
    <glyph glyph-name="icircumflex" unicode="&#xee;" horiz-adv-x="663" 
d="M347 1589h4l258 -329l-53 -54l-225 232h-5l-258 -224l-45 54zM445 834q0 -62 -12 -141.5t-27 -168t-27 -180.5t-12 -178q0 -42 15 -64t49 -22q17 0 36.5 10.5t39.5 34t39 61.5t34 92l58 -12q-9 -43 -28.5 -93.5t-50.5 -94t-74.5 -72.5t-100.5 -29q-185 0 -185 193
q0 89 12.5 174t27.5 168.5t27.5 168t12.5 171.5q0 13 -2.5 29t-8.5 30t-17 23.5t-29 9.5q-17 0 -36.5 -10.5t-40 -34t-39.5 -61.5t-34 -92l-57 12q7 36 25 85.5t49.5 95t76.5 77t107 31.5q43 0 75.5 -15.5t54 -43.5t32 -67t10.5 -87z" />
    <glyph glyph-name="idieresis" unicode="&#xef;" horiz-adv-x="663" 
d="M15 0zM445 834q0 -62 -12 -141.5t-27 -168t-27 -180.5t-12 -178q0 -42 15 -64t49 -22q17 0 36.5 10.5t39.5 34t39 61.5t34 92l58 -12q-9 -43 -28.5 -93.5t-50.5 -94t-74.5 -72.5t-100.5 -29q-185 0 -185 193q0 89 12.5 174t27.5 168.5t27.5 168t12.5 171.5q0 13 -2.5 29
t-8.5 30t-17 23.5t-29 9.5q-17 0 -36.5 -10.5t-40 -34t-39.5 -61.5t-34 -92l-57 12q7 36 25 85.5t49.5 95t76.5 77t107 31.5q43 0 75.5 -15.5t54 -43.5t32 -67t10.5 -87zM308 1373q-1 -24 -9.5 -44.5t-22 -35.5t-31 -23.5t-35.5 -8.5q-20 0 -36.5 8.5t-28.5 23.5t-18.5 35.5
t-6.5 44.5q1 23 10 43.5t23 35.5t32 24t37 9q20 0 36.5 -9t27.5 -24t17 -35.5t5 -43.5zM609 1373q-1 -24 -9.5 -44.5t-22 -35.5t-31 -23.5t-35.5 -8.5q-20 0 -36.5 8.5t-28.5 23.5t-18.5 35.5t-6.5 44.5q1 23 10 43.5t23 35.5t32 24t37 9q20 0 36.5 -9t27.5 -24t17 -35.5
t5 -43.5z" />
    <glyph glyph-name="eth" unicode="&#xf0;" horiz-adv-x="1057" 
d="M366 1294l128 143q-47 23 -103 35t-126 12h-22v69q37 3 72 3q70 0 130 -12.5t113 -35.5l119 134l59 -53l-102 -122q80 -52 137 -130.5t93.5 -176t53.5 -211t17 -236.5q0 -138 -19 -246.5t-53 -190t-81 -138.5t-103.5 -93t-120 -52t-129.5 -16q-69 0 -132 28.5t-111 85.5
t-76.5 141.5t-28.5 195.5q0 138 36.5 249.5t98 190t142.5 120.5t170 42q69 0 127.5 -22t105.5 -79q-6 67 -18.5 132.5t-34.5 125.5t-56 112t-83 91l-134 -161zM769 721q0 20 -0.5 41t-0.5 42q-39 78 -97.5 111t-130.5 33q-46 0 -96 -32t-91.5 -95t-68.5 -156t-27 -215
q0 -95 16 -169t44 -124t66 -76t83 -26q59 0 104.5 32t79 85t56.5 121.5t37 142.5t20 148t6 137z" />
    <glyph glyph-name="ntilde" unicode="&#xf1;" horiz-adv-x="1259" 
d="M15 0zM367 109q0 -31 1 -57t3 -52h-172q-2 22 -2 30q0 28 2 59t6.5 78.5t12.5 117.5t20 178q9 80 15.5 136t10.5 94t7 62t4 40.5t1.5 29t0.5 27.5q0 18 -2 35t-8 29.5t-16.5 20t-28.5 7.5q-17 0 -36.5 -10.5t-40 -34t-39.5 -61.5t-34 -92l-57 12q7 36 26.5 85.5t52.5 95
t79.5 77t107.5 31.5q45 0 75 -17.5t47 -47t24 -68t7 -81.5q0 -33 -3.5 -68t-8 -68t-10.5 -63t-10 -54h6q52 140 103 230.5t101.5 143t100 73t99.5 20.5q61 0 104 -21.5t69 -58t38 -85t12 -101.5q0 -85 -9.5 -174t-21 -170.5t-21 -149.5t-9.5 -112q0 -19 1.5 -36.5t7.5 -30.5
t17 -21t29 -8q16 0 36 10.5t40 34t39 61.5t34 93l58 -13q-7 -36 -26.5 -85.5t-52.5 -94.5t-79.5 -76.5t-107.5 -31.5q-49 0 -81 13t-51 38.5t-26.5 62t-7.5 84.5q0 57 10 135t21.5 165.5t21.5 178t10 172.5q0 18 -4 39.5t-14.5 40.5t-29 32t-48.5 13q-47 0 -95.5 -38.5
t-93.5 -103t-84 -149.5t-68 -178.5t-46 -190t-17 -182.5zM570 1372q-35 0 -77 -24t-73 -68l-51 27q15 37 41 68.5t56.5 54t63 35t61.5 12.5q48 0 82 -16.5t62.5 -37t56.5 -37t63 -16.5q45 0 80.5 27.5t68.5 77.5l49 -25q-19 -51 -44 -86t-53.5 -57.5t-57.5 -32.5t-56 -10
q-48 0 -83 17t-65 37t-59 37t-65 17z" />
    <glyph glyph-name="ograve" unicode="&#xf2;" horiz-adv-x="1068" 
d="M79 0zM794 558q0 47 -4.5 96t-15.5 95t-29 86t-45 70.5t-64 48t-86 17.5q-69 0 -123.5 -38.5t-91.5 -105t-56.5 -155.5t-19.5 -190q0 -47 4.5 -97t15.5 -97.5t28.5 -89.5t44 -74t62 -50.5t81.5 -18.5q53 0 95.5 22t75.5 58.5t57 85t39.5 102t23 108.5t8.5 127zM472 -23
q-101 0 -175 36t-122.5 98t-72 146t-23.5 179q0 124 35 235.5t100 194.5t159 132t212 49q83 0 154 -30t123.5 -87t82 -140.5t29.5 -191.5q0 -124 -33.5 -236.5t-98 -198t-158 -136t-212.5 -50.5zM415 1405q-26 28 -36 50.5t-10 40.5q0 31 16 48.5t44 17.5q18 0 41 -13.5
t46 -51.5l159 -270l-49 -41z" />
    <glyph glyph-name="oacute" unicode="&#xf3;" horiz-adv-x="1068" 
d="M79 0zM794 558q0 47 -4.5 96t-15.5 95t-29 86t-45 70.5t-64 48t-86 17.5q-69 0 -123.5 -38.5t-91.5 -105t-56.5 -155.5t-19.5 -190q0 -47 4.5 -97t15.5 -97.5t28.5 -89.5t44 -74t62 -50.5t81.5 -18.5q53 0 95.5 22t75.5 58.5t57 85t39.5 102t23 108.5t8.5 127zM472 -23
q-101 0 -175 36t-122.5 98t-72 146t-23.5 179q0 124 35 235.5t100 194.5t159 132t212 49q83 0 154 -30t123.5 -87t82 -140.5t29.5 -191.5q0 -124 -33.5 -236.5t-98 -198t-158 -136t-212.5 -50.5zM563 1186l-49 41l159 270q23 38 45 51.5t40 13.5q29 0 45.5 -17t16.5 -49
q0 -18 -10 -40.5t-36 -50.5z" />
    <glyph glyph-name="ocircumflex" unicode="&#xf4;" horiz-adv-x="1068" 
d="M79 0zM794 558q0 47 -4.5 96t-15.5 95t-29 86t-45 70.5t-64 48t-86 17.5q-69 0 -123.5 -38.5t-91.5 -105t-56.5 -155.5t-19.5 -190q0 -47 4.5 -97t15.5 -97.5t28.5 -89.5t44 -74t62 -50.5t81.5 -18.5q53 0 95.5 22t75.5 58.5t57 85t39.5 102t23 108.5t8.5 127zM472 -23
q-101 0 -175 36t-122.5 98t-72 146t-23.5 179q0 124 35 235.5t100 194.5t159 132t212 49q83 0 154 -30t123.5 -87t82 -140.5t29.5 -191.5q0 -124 -33.5 -236.5t-98 -198t-158 -136t-212.5 -50.5zM593 1589h4l287 -329l-51 -54l-256 232h-4l-279 -224l-45 54z" />
    <glyph glyph-name="otilde" unicode="&#xf5;" horiz-adv-x="1068" 
d="M79 0zM794 558q0 47 -4.5 96t-15.5 95t-29 86t-45 70.5t-64 48t-86 17.5q-69 0 -123.5 -38.5t-91.5 -105t-56.5 -155.5t-19.5 -190q0 -47 4.5 -97t15.5 -97.5t28.5 -89.5t44 -74t62 -50.5t81.5 -18.5q53 0 95.5 22t75.5 58.5t57 85t39.5 102t23 108.5t8.5 127zM472 -23
q-101 0 -175 36t-122.5 98t-72 146t-23.5 179q0 124 35 235.5t100 194.5t159 132t212 49q83 0 154 -30t123.5 -87t82 -140.5t29.5 -191.5q0 -124 -33.5 -236.5t-98 -198t-158 -136t-212.5 -50.5zM440 1372q-35 0 -77 -24t-73 -68l-51 27q15 37 41 68.5t56.5 54t63 35
t61.5 12.5q48 0 82 -16.5t62.5 -37t56.5 -37t63 -16.5q45 0 80.5 27.5t68.5 77.5l49 -25q-19 -51 -44 -86t-53.5 -57.5t-57.5 -32.5t-56 -10q-48 0 -83 17t-65 37t-59 37t-65 17z" />
    <glyph glyph-name="odieresis" unicode="&#xf6;" horiz-adv-x="1068" 
d="M79 0zM794 558q0 47 -4.5 96t-15.5 95t-29 86t-45 70.5t-64 48t-86 17.5q-69 0 -123.5 -38.5t-91.5 -105t-56.5 -155.5t-19.5 -190q0 -47 4.5 -97t15.5 -97.5t28.5 -89.5t44 -74t62 -50.5t81.5 -18.5q53 0 95.5 22t75.5 58.5t57 85t39.5 102t23 108.5t8.5 127zM472 -23
q-101 0 -175 36t-122.5 98t-72 146t-23.5 179q0 124 35 235.5t100 194.5t159 132t212 49q83 0 154 -30t123.5 -87t82 -140.5t29.5 -191.5q0 -124 -33.5 -236.5t-98 -198t-158 -136t-212.5 -50.5zM510 1373q-1 -24 -9.5 -44.5t-22 -35.5t-31 -23.5t-35.5 -8.5
q-20 0 -36.5 8.5t-28.5 23.5t-18.5 35.5t-6.5 44.5q1 23 10 43.5t23 35.5t32 24t37 9q20 0 36.5 -9t27.5 -24t17 -35.5t5 -43.5zM811 1373q-1 -24 -9.5 -44.5t-22 -35.5t-31 -23.5t-35.5 -8.5q-20 0 -36.5 8.5t-28.5 23.5t-18.5 35.5t-6.5 44.5q1 23 10 43.5t23 35.5t32 24
t37 9q20 0 36.5 -9t27.5 -24t17 -35.5t5 -43.5z" />
    <glyph glyph-name="divide" unicode="&#xf7;" horiz-adv-x="550" 
d="M378 219q-1 -27 -11.5 -51t-27.5 -41t-38.5 -27t-44.5 -10t-43 9.5t-35 26t-24 39t-9 48.5q0 28 10.5 52.5t28.5 43t41 29t47 10.5q48 0 77 -35t29 -87v-7zM398 927q-1 -27 -11.5 -51t-27.5 -41t-38.5 -27t-44.5 -10t-43 9.5t-35 26t-24 39t-9 48.5q0 28 10.5 52.5
t28.5 43t41 29t47 10.5q48 0 77 -35t29 -87v-7z" />
    <glyph glyph-name="oslash" unicode="&#xf8;" horiz-adv-x="1068" 
d="M472 -23q-63 0 -114.5 13.5t-93.5 39.5l-130 -188l-65 52l128 190q-60 63 -89 153.5t-29 198.5q0 124 35 235.5t100 194.5t159 132t212 49q123 0 218 -65l114 169l84 -59l-124 -179q46 -57 71.5 -136t25.5 -179q0 -124 -33.5 -236.5t-98 -198t-158 -136t-212.5 -50.5z
M258 474q0 -61 8.5 -124.5t28.5 -120.5l432 640q-29 46 -71.5 74t-105.5 28q-67 0 -120.5 -36.5t-91 -99.5t-58 -148.5t-22.5 -212.5zM794 535q0 55 -4.5 113.5t-18.5 112.5l-431 -622q27 -40 64.5 -62t90.5 -22t95.5 22t75.5 58.5t57 85t39.5 102t23 108.5t8.5 104z" />
    <glyph glyph-name="ugrave" unicode="&#xf9;" horiz-adv-x="1215" 
d="M13 0zM855 915q0 31 -1 57t-3 52h172q2 -22 2 -30q0 -29 -1.5 -61t-6 -80.5t-12.5 -120t-21 -179.5q-9 -80 -15.5 -135t-10.5 -92.5t-7 -60.5t-4 -38.5t-1.5 -27.5t-0.5 -27q0 -37 11.5 -63.5t43.5 -26.5q16 0 36 10t40.5 33.5t39.5 61t34 91.5l57 -12
q-7 -36 -26.5 -85.5t-52 -95t-79 -77t-108.5 -31.5q-42 0 -71.5 13.5t-49 37.5t-28.5 58t-9 76q0 58 11 127t26 147h-6q-52 -140 -100 -229t-95 -140t-94 -70.5t-97 -19.5q-62 0 -104.5 21.5t-69 58.5t-38.5 85.5t-12 101.5q0 85 10 173.5t22.5 169.5t22.5 149t10 112
q0 19 -1.5 36.5t-7.5 30.5t-17 21t-29 8q-17 0 -36 -10.5t-38 -34t-37 -61.5t-33 -92l-57 12q7 36 25.5 85.5t50 95t77 77t107.5 31.5q82 0 124 -51t42 -148q0 -39 -5 -90t-12.5 -108.5t-16 -118t-16 -119.5t-12.5 -112.5t-5 -96.5q0 -18 3.5 -40t14 -42t29.5 -33.5
t49 -13.5q47 0 94 38.5t90 103t80 149.5t64.5 178.5t43 189.5t15.5 182zM474 1405q-26 28 -36 50.5t-10 40.5q0 31 16 48.5t44 17.5q18 0 41 -13.5t46 -51.5l159 -270l-49 -41z" />
    <glyph glyph-name="uacute" unicode="&#xfa;" horiz-adv-x="1215" 
d="M13 0zM855 915q0 31 -1 57t-3 52h172q2 -22 2 -30q0 -29 -1.5 -61t-6 -80.5t-12.5 -120t-21 -179.5q-9 -80 -15.5 -135t-10.5 -92.5t-7 -60.5t-4 -38.5t-1.5 -27.5t-0.5 -27q0 -37 11.5 -63.5t43.5 -26.5q16 0 36 10t40.5 33.5t39.5 61t34 91.5l57 -12
q-7 -36 -26.5 -85.5t-52 -95t-79 -77t-108.5 -31.5q-42 0 -71.5 13.5t-49 37.5t-28.5 58t-9 76q0 58 11 127t26 147h-6q-52 -140 -100 -229t-95 -140t-94 -70.5t-97 -19.5q-62 0 -104.5 21.5t-69 58.5t-38.5 85.5t-12 101.5q0 85 10 173.5t22.5 169.5t22.5 149t10 112
q0 19 -1.5 36.5t-7.5 30.5t-17 21t-29 8q-17 0 -36 -10.5t-38 -34t-37 -61.5t-33 -92l-57 12q7 36 25.5 85.5t50 95t77 77t107.5 31.5q82 0 124 -51t42 -148q0 -39 -5 -90t-12.5 -108.5t-16 -118t-16 -119.5t-12.5 -112.5t-5 -96.5q0 -18 3.5 -40t14 -42t29.5 -33.5
t49 -13.5q47 0 94 38.5t90 103t80 149.5t64.5 178.5t43 189.5t15.5 182zM599 1186l-49 41l159 270q23 38 45 51.5t40 13.5q29 0 45.5 -17t16.5 -49q0 -18 -10 -40.5t-36 -50.5z" />
    <glyph glyph-name="ucircumflex" unicode="&#xfb;" horiz-adv-x="1215" 
d="M13 0zM855 915q0 31 -1 57t-3 52h172q2 -22 2 -30q0 -29 -1.5 -61t-6 -80.5t-12.5 -120t-21 -179.5q-9 -80 -15.5 -135t-10.5 -92.5t-7 -60.5t-4 -38.5t-1.5 -27.5t-0.5 -27q0 -37 11.5 -63.5t43.5 -26.5q16 0 36 10t40.5 33.5t39.5 61t34 91.5l57 -12
q-7 -36 -26.5 -85.5t-52 -95t-79 -77t-108.5 -31.5q-42 0 -71.5 13.5t-49 37.5t-28.5 58t-9 76q0 58 11 127t26 147h-6q-52 -140 -100 -229t-95 -140t-94 -70.5t-97 -19.5q-62 0 -104.5 21.5t-69 58.5t-38.5 85.5t-12 101.5q0 85 10 173.5t22.5 169.5t22.5 149t10 112
q0 19 -1.5 36.5t-7.5 30.5t-17 21t-29 8q-17 0 -36 -10.5t-38 -34t-37 -61.5t-33 -92l-57 12q7 36 25.5 85.5t50 95t77 77t107.5 31.5q82 0 124 -51t42 -148q0 -39 -5 -90t-12.5 -108.5t-16 -118t-16 -119.5t-12.5 -112.5t-5 -96.5q0 -18 3.5 -40t14 -42t29.5 -33.5
t49 -13.5q47 0 94 38.5t90 103t80 149.5t64.5 178.5t43 189.5t15.5 182zM679 1589h4l287 -329l-51 -54l-256 232h-4l-279 -224l-45 54z" />
    <glyph glyph-name="udieresis" unicode="&#xfc;" horiz-adv-x="1215" 
d="M13 0zM855 915q0 31 -1 57t-3 52h172q2 -22 2 -30q0 -29 -1.5 -61t-6 -80.5t-12.5 -120t-21 -179.5q-9 -80 -15.5 -135t-10.5 -92.5t-7 -60.5t-4 -38.5t-1.5 -27.5t-0.5 -27q0 -37 11.5 -63.5t43.5 -26.5q16 0 36 10t40.5 33.5t39.5 61t34 91.5l57 -12
q-7 -36 -26.5 -85.5t-52 -95t-79 -77t-108.5 -31.5q-42 0 -71.5 13.5t-49 37.5t-28.5 58t-9 76q0 58 11 127t26 147h-6q-52 -140 -100 -229t-95 -140t-94 -70.5t-97 -19.5q-62 0 -104.5 21.5t-69 58.5t-38.5 85.5t-12 101.5q0 85 10 173.5t22.5 169.5t22.5 149t10 112
q0 19 -1.5 36.5t-7.5 30.5t-17 21t-29 8q-17 0 -36 -10.5t-38 -34t-37 -61.5t-33 -92l-57 12q7 36 25.5 85.5t50 95t77 77t107.5 31.5q82 0 124 -51t42 -148q0 -39 -5 -90t-12.5 -108.5t-16 -118t-16 -119.5t-12.5 -112.5t-5 -96.5q0 -18 3.5 -40t14 -42t29.5 -33.5
t49 -13.5q47 0 94 38.5t90 103t80 149.5t64.5 178.5t43 189.5t15.5 182zM597 1373q-1 -24 -9.5 -44.5t-22 -35.5t-31 -23.5t-35.5 -8.5q-20 0 -36.5 8.5t-28.5 23.5t-18.5 35.5t-6.5 44.5q1 23 10 43.5t23 35.5t32 24t37 9q20 0 36.5 -9t27.5 -24t17 -35.5t5 -43.5z
M898 1373q-1 -24 -9.5 -44.5t-22 -35.5t-31 -23.5t-35.5 -8.5q-20 0 -36.5 8.5t-28.5 23.5t-18.5 35.5t-6.5 44.5q1 23 10 43.5t23 35.5t32 24t37 9q20 0 36.5 -9t27.5 -24t17 -35.5t5 -43.5z" />
    <glyph glyph-name="yacute" unicode="&#xfd;" horiz-adv-x="1053" 
d="M0 0zM61 -332q41 0 64 -25.5t23 -73.5v-8q26 -13 52 -13q29 0 60.5 17t62 44t59 61t52.5 67t42.5 62.5t29.5 47.5q-18 118 -43 244t-56.5 250.5t-69 243.5t-80.5 223q-7 18 -16 36.5t-21 34t-26 25.5t-32 10q-35 0 -56.5 -43.5t-21.5 -115.5q0 -27 3 -55l-66 -7
q-3 28 -3 60q0 51 9 103.5t30.5 95t58 69t91.5 26.5q52 0 89.5 -22t64.5 -56t45.5 -75t32.5 -78q23 -62 43.5 -132t39 -143t35 -147.5t33.5 -145.5q11 -49 18 -97t13 -112h4q43 75 85 163.5t75 180.5t53.5 184.5t20.5 176.5q0 51 -9.5 89.5t-21.5 55.5q-19 -13 -50 -13
q-37 0 -59.5 24.5t-22.5 56.5q0 22 8 38.5t21 28t30.5 17.5t35.5 6q47 0 78.5 -23t50.5 -60t27 -84t8 -95q0 -102 -23 -207.5t-61 -210t-87 -206t-101 -196.5q-78 -141 -149.5 -239.5t-139 -161t-132.5 -91t-130 -28.5q-72 4 -114 39.5t-42 89.5q0 23 8 40.5t20.5 29.5
t27.5 18t29 6zM576 1186l-49 41l159 270q23 38 45 51.5t40 13.5q29 0 45.5 -17t16.5 -49q0 -18 -10 -40.5t-36 -50.5z" />
    <glyph glyph-name="thorn" unicode="&#xfe;" horiz-adv-x="1048" 
d="M265 96q12 -12 31 -21t40.5 -15t44 -8.5t42.5 -2.5q72 1 127 27t94.5 70t65.5 102t41.5 122t21.5 130.5t6 128.5q0 153 -32.5 237.5t-106.5 84.5q-49 -2 -95 -42.5t-87 -107t-75.5 -153t-60 -181t-40.5 -190.5t-17 -181zM253 -274q-3 -42 -5 -88.5t-12 -81.5l129 6v-84
h-387v61q43 0 66.5 22t35 60.5t15.5 90.5t8 112q10 141 18.5 265t16.5 238.5t16 224.5t16 223t17 234t20 259q4 45 6.5 79.5t9.5 69.5l-149 -8l9 82q67 0 111.5 4.5t73.5 12t46 17.5t29 21h59q-7 -43 -13.5 -89.5t-12.5 -92t-11 -88l-9 -76.5q-15 -136 -28.5 -280
t-29.5 -308l6 -2q27 99 58 170t65 119.5t69 77.5t70 44.5t68.5 20.5t64.5 5q71 0 120 -31.5t79 -84t43.5 -121t13.5 -142.5q0 -141 -31.5 -267t-100 -220t-176 -149t-259.5 -55q-25 0 -56.5 1.5t-66.5 6.5z" />
    <glyph glyph-name="ydieresis" unicode="&#xff;" horiz-adv-x="1053" 
d="M0 0zM61 -332q41 0 64 -25.5t23 -73.5v-8q26 -13 52 -13q29 0 60.5 17t62 44t59 61t52.5 67t42.5 62.5t29.5 47.5q-18 118 -43 244t-56.5 250.5t-69 243.5t-80.5 223q-7 18 -16 36.5t-21 34t-26 25.5t-32 10q-35 0 -56.5 -43.5t-21.5 -115.5q0 -27 3 -55l-66 -7
q-3 28 -3 60q0 51 9 103.5t30.5 95t58 69t91.5 26.5q52 0 89.5 -22t64.5 -56t45.5 -75t32.5 -78q23 -62 43.5 -132t39 -143t35 -147.5t33.5 -145.5q11 -49 18 -97t13 -112h4q43 75 85 163.5t75 180.5t53.5 184.5t20.5 176.5q0 51 -9.5 89.5t-21.5 55.5q-19 -13 -50 -13
q-37 0 -59.5 24.5t-22.5 56.5q0 22 8 38.5t21 28t30.5 17.5t35.5 6q47 0 78.5 -23t50.5 -60t27 -84t8 -95q0 -102 -23 -207.5t-61 -210t-87 -206t-101 -196.5q-78 -141 -149.5 -239.5t-139 -161t-132.5 -91t-130 -28.5q-72 4 -114 39.5t-42 89.5q0 23 8 40.5t20.5 29.5
t27.5 18t29 6zM563 1373q-1 -24 -9.5 -44.5t-22 -35.5t-31 -23.5t-35.5 -8.5q-20 0 -36.5 8.5t-28.5 23.5t-18.5 35.5t-6.5 44.5q1 23 10 43.5t23 35.5t32 24t37 9q20 0 36.5 -9t27.5 -24t17 -35.5t5 -43.5zM864 1373q-1 -24 -9.5 -44.5t-22 -35.5t-31 -23.5t-35.5 -8.5
q-20 0 -36.5 8.5t-28.5 23.5t-18.5 35.5t-6.5 44.5q1 23 10 43.5t23 35.5t32 24t37 9q20 0 36.5 -9t27.5 -24t17 -35.5t5 -43.5z" />
    <glyph glyph-name="dotlessi" unicode="&#x131;" horiz-adv-x="663" 
d="M445 834q0 -62 -12 -141.5t-27 -168t-27 -180.5t-12 -178q0 -42 15 -64t49 -22q17 0 36.5 10.5t39.5 34t39 61.5t34 92l58 -12q-9 -43 -28.5 -93.5t-50.5 -94t-74.5 -72.5t-100.5 -29q-185 0 -185 193q0 89 12.5 174t27.5 168.5t27.5 168t12.5 171.5q0 13 -2.5 29
t-8.5 30t-17 23.5t-29 9.5q-17 0 -36.5 -10.5t-40 -34t-39.5 -61.5t-34 -92l-57 12q7 36 25 85.5t49.5 95t76.5 77t107 31.5q43 0 75.5 -15.5t54 -43.5t32 -67t10.5 -87z" />
    <glyph glyph-name="Lslash" unicode="&#x141;" horiz-adv-x="1181" 
d="M439 831l210 154l-7 -111l-209 -154l-26 -484q-3 -57 -6 -95.5t-8 -64.5l383 6q65 1 115 20.5t85 60.5t55 105.5t25 155.5h70l-35 -424h-1008l5 68q57 2 87 21t43.5 52t16.5 78.5t6 99.5l15 271l-167 -123l7 115l166 121l28 501q2 42 5 79.5t10 68.5l-146 -9v91h453
l-4 -68q-54 -2 -84 -21t-45 -52.5t-19 -79t-6 -99.5z" />
    <glyph glyph-name="lslash" unicode="&#x142;" horiz-adv-x="585" 
d="M242 1307q4 27 7 43.5t5 28t3.5 19.5t3.5 19l-146 -8l9 82q67 0 111.5 4.5t73.5 12t46 17.5t29 21h59q-6 -38 -14 -84.5t-15.5 -93.5t-14.5 -91.5t-11 -78.5q-11 -78 -22 -175t-22 -203l190 132l-7 -110l-195 -137q-8 -78 -19.5 -221.5t-14 -200t-2.5 -96.5
q0 -20 1.5 -39.5t7 -34.5t17 -24.5t31.5 -9.5q16 0 36 10.5t39.5 34t38.5 61.5t34 93l59 -13q-7 -36 -26.5 -85.5t-52 -94.5t-79.5 -76.5t-108 -31.5q-46 0 -77.5 12t-51 36t-28 59.5t-8.5 83.5q0 31 12 190t18 225l-162 -114l6 115l167 116q8 79 35.5 311.5t36.5 295.5z
" />
    <glyph glyph-name="OE" unicode="&#x152;" horiz-adv-x="2073" 
d="M1427 1358q-57 -2 -89.5 -16.5t-48.5 -44.5t-21.5 -75.5t-8.5 -107.5l-18 -330h152q64 0 110.5 5t76.5 24t45.5 57.5t18.5 106.5h68l-22 -447h-68q3 68 -9 104.5t-40.5 53.5t-74.5 20t-110 3q-35 0 -76 -2t-75 -7l-25 -454q-2 -56 -5.5 -95t-8.5 -65l393 -12
q67 -2 122 14t95 54t63.5 101t28.5 154h70l-33 -399h-905q-81 -17 -152 -25t-131 -8q-156 0 -280 53t-208.5 147.5t-126.5 224t-34 282.5q5 96 28.5 191.5t66 182.5t104 162.5t142.5 131.5t181 89t220 36q60 1 130 -10t136 -23h833l-8 -359h-67q4 91 -14.5 147.5t-54.5 88
t-86 42t-108 9.5zM815 64q56 0 107.5 7.5t114.5 24.5l65 1237q-57 23 -125 35.5t-127 12.5q-109 0 -207.5 -46.5t-174.5 -133.5t-123 -212.5t-54 -283.5q-6 -146 25.5 -264t98 -202t167.5 -129.5t233 -45.5z" />
    <glyph glyph-name="oe" unicode="&#x153;" horiz-adv-x="1633" 
d="M799 182q-26 -41 -62.5 -78t-81 -65.5t-95.5 -45t-105 -16.5q-102 0 -173 36t-115.5 98t-64.5 146t-20 179q0 126 31.5 237t93 194t152 131.5t208.5 48.5q102 -2 174 -57.5t107 -158.5h6q22 37 58.5 75.5t83.5 69.5t102.5 51t115.5 20q54 0 107.5 -9.5t95.5 -34.5
t68 -68.5t26 -111.5q0 -55 -24 -100.5t-65.5 -82t-98.5 -64.5t-123.5 -48.5t-138.5 -33.5t-145 -20q-1 -9 -1 -18v-18q0 -102 22 -171t56.5 -111t77.5 -59.5t85 -17.5t87.5 16t89.5 47.5t84.5 77.5t72.5 107l68 -38q-87 -162 -196.5 -237t-249.5 -75q-100 0 -182 50
t-127 155h-4zM754 508q0 13 0.5 28t0.5 32q0 39 -2.5 84t-11 90t-24 86t-40.5 73t-61.5 51t-86.5 19q-71 0 -122.5 -39t-85 -106t-49.5 -157.5t-16 -193.5q0 -70 9 -144t33.5 -135t67.5 -100t111 -39q73 0 125 38.5t85 102t49 144.5t18 166zM1184 976q-53 -5 -100 -42
t-83 -96t-58.5 -135t-27.5 -159q49 7 100 18t99 27t91 38.5t74.5 52t50 67t18.5 83.5q0 75 -39 111t-102 36h-11.5t-11.5 -1z" />
    <glyph glyph-name="Scaron" unicode="&#x160;" horiz-adv-x="1161" 
d="M97 0zM204 -16h-107l11 436h80q1 -95 30 -164t80 -114t120.5 -67t151.5 -22q62 0 119 17.5t100.5 52t69 84.5t25.5 116q0 72 -31.5 124.5t-83.5 93.5t-118 74t-135 65.5t-135 68t-118 82t-83.5 107t-31.5 142.5q0 34 7.5 76t26.5 85t51 83.5t80.5 72.5t115 51t154.5 19
q39 0 83.5 -5t90 -17t90 -32.5t85.5 -50.5l-3 87h104l-22 -449h-74q-1 74 -21.5 143.5t-62.5 123t-107 86t-155 32.5q-66 0 -118 -21t-88 -56.5t-55 -82t-19 -97.5q0 -66 32 -114.5t84.5 -87t119.5 -70.5t137 -64.5t137 -69.5t119.5 -85t84.5 -111t32 -148q0 -90 -34 -165.5
t-98 -130t-157.5 -85t-211.5 -30.5q-39 0 -85.5 4t-94 14t-93.5 27t-85 43zM609 1528h-4l-375 293l39 61l342 -196h4l359 200l32 -53z" />
    <glyph glyph-name="scaron" unicode="&#x161;" horiz-adv-x="876" 
d="M61 0zM215 147q8 -22 25 -39.5t40.5 -29.5t50.5 -18.5t55 -6.5q111 0 166 50.5t55 144.5q0 52 -36.5 93.5t-92 79t-119.5 73.5t-119.5 76.5t-92 89t-36.5 110.5q0 56 25.5 106.5t72 88.5t111.5 60t145 22q58 0 112.5 -14.5t97 -40.5t68 -63t25.5 -83q0 -45 -24.5 -70
t-61.5 -25t-59.5 25t-22.5 57q0 16 4 32t15 33q-11 34 -51 57.5t-109 23.5q-34 0 -67.5 -11.5t-60.5 -33t-43.5 -51.5t-16.5 -66q0 -37 21.5 -68.5t57 -59.5t81 -54.5t92.5 -54.5t92.5 -59t81 -67.5t57 -80t21.5 -97.5q0 -65 -28 -119.5t-79 -94.5t-122 -62.5t-156 -22.5
q-62 0 -121.5 14.5t-105.5 42t-74 68.5t-28 94q0 45 25.5 73t63.5 28q41 0 62 -27t21 -60q0 -15 -3.5 -30.5t-14.5 -32.5zM470 1188h-4l-287 330l47 51l250 -234h4l287 242l45 -53z" />
    <glyph glyph-name="Ydieresis" unicode="&#x178;" horiz-adv-x="1312" 
d="M42 0zM591 553l-324 563q-49 82 -71 137.5t-27 94.5l-127 -5l4 91h520l-4 -68q-71 0 -108.5 -16.5t-49.5 -46t-1 -70.5t38 -90q97 -169 161.5 -276.5t105.5 -168.5h4q40 70 76.5 133t213.5 363l21 35t26 41.5t29.5 42.5t30.5 37l-162 -7l4 91h418l-4 -68
q-51 -3 -91.5 -20t-77.5 -49.5t-72 -81t-74 -113.5q-79 -133 -149 -254t-136 -234q-22 -370 -21 -370q-2 -56 -5.5 -96t-8.5 -66l170 8l-4 -90h-473l4 68q58 2 88 22t43.5 53.5t15.5 78.5t5 97zM686 1715q-1 -26 -10 -48t-23.5 -38.5t-33.5 -26t-38 -9.5q-21 0 -39 9.5
t-31 26t-20 38.5t-6 48t10.5 48.5t24.5 39t34.5 26t40.5 9.5t38.5 -9.5t29.5 -26t18 -39t5 -48.5zM1017 1715q-1 -26 -10 -48t-23.5 -38.5t-33.5 -26t-38 -9.5q-21 0 -39 9.5t-31 26t-20 38.5t-6 48t10.5 48.5t24.5 39t34.5 26t40.5 9.5t38.5 -9.5t29.5 -26t18 -39t5 -48.5z
" />
    <glyph glyph-name="Zcaron" unicode="&#x17d;" horiz-adv-x="1254" 
d="M58 0zM65 94q61 81 140 184t177 235t215.5 295.5t255.5 365.5q32 46 65.5 92t75.5 92l-528 -8q-61 -3 -107.5 -23.5t-79 -62t-51 -104.5t-22.5 -150h-70l35 424h1016l-4 -72l-803 -1116q-24 -33 -43.5 -58t-37 -45t-34 -36t-33.5 -31l506 8q68 1 127 21.5t104 61.5
t72.5 104t32.5 149h70l-35 -420h-1051zM654 1528h-4l-375 293l39 61l342 -196h4l359 200l32 -53z" />
    <glyph glyph-name="zcaron" unicode="&#x17e;" horiz-adv-x="965" 
d="M36 0zM288 51q-45 0 -90.5 -13.5t-96.5 -60.5l-65 51q49 73 166.5 234t240 318.5t177.5 226t102 125.5h-4q-47 -50 -91 -67t-81 -17t-69 9.5t-63 20.5t-62.5 20.5t-68.5 9.5q-18 0 -37.5 -5t-36 -18.5t-27.5 -37t-11 -59.5q0 -17 3 -36.5t11 -41.5l-55 -18
q-11 31 -19 65.5t-8 69.5q0 49 18 89.5t48.5 69.5t70.5 45t84 16q46 0 83.5 -10t72.5 -22.5t72 -22.5t84 -10q13 0 33.5 2t45.5 9t52 20t53 35l61 -57q-26 -33 -74.5 -93t-110.5 -136.5t-203.5 -254.5t-208 -263.5t-118.5 -156.5h4q48 54 103.5 80t130.5 26q37 0 73.5 -11
t71.5 -23.5t69.5 -23.5t68.5 -11q18 0 37.5 4t36.5 15.5t28 33.5t11 58q0 34 -15 78l55 18q11 -31 18 -65.5t7 -69.5q0 -49 -16.5 -89.5t-45.5 -69t-68 -44.5t-84 -16q-46 0 -91.5 11.5t-91 25.5t-90.5 25.5t-90 11.5zM486 1188h-4l-287 330l47 51l250 -234h4l287 242
l45 -53z" />
    <glyph glyph-name="florin" unicode="&#x192;" horiz-adv-x="665" 
d="M0 0zM-93 -459q22 -16 61 -16q48 0 80 34.5t53 98t33.5 152.5t21.5 197.5t17 233.5t20 261q10 109 17 219.5t19 216.5l-179 -2l10 88h180q16 113 43.5 210t75.5 168.5t120.5 112.5t177.5 41q71 0 109.5 -28t38.5 -78q0 -12 -4 -26.5t-14 -27t-25.5 -20.5t-38.5 -8
q-38 0 -59.5 26t-21.5 68v8q-5 4 -17.5 6.5t-26.5 2.5q-54 0 -89.5 -33.5t-58 -93.5t-35 -144t-19.5 -184h290l-6 -80l-290 -4q-7 -106 -12.5 -221.5t-16.5 -235.5q-11 -124 -20.5 -249t-26 -240t-44 -215.5t-74.5 -174.5t-118 -116.5t-174 -42.5q-160 0 -160 106
q0 12 4.5 26.5t14 27.5t25.5 21.5t39 8.5q38 0 59 -26t21 -68z" />
    <glyph glyph-name="circumflex" unicode="&#x2c6;" horiz-adv-x="819" 
d="M436 1589h4l287 -329l-51 -54l-256 232h-4l-279 -224l-45 54z" />
    <glyph glyph-name="caron" unicode="&#x2c7;" horiz-adv-x="817" 
d="M383 1188h-4l-287 330l47 51l250 -234h4l287 242l45 -53z" />
    <glyph glyph-name="breve" unicode="&#x2d8;" horiz-adv-x="737" 
d="M350 1245q-35 0 -73 14t-73.5 42.5t-65 72.5t-46.5 105l51 18q14 -29 37.5 -54.5t52.5 -45t63 -30.5t69 -11t69 11t64 30.5t55.5 47t44.5 60.5l47 -22q-25 -62 -58.5 -106.5t-72 -74t-80.5 -43.5t-84 -14z" />
    <glyph glyph-name="dotaccent" unicode="&#x2d9;" horiz-adv-x="406" 
d="M96 1247zM311.391 1366.56q-0.922852 -24.9072 -10.6152 -47.0469q-9.69336 -22.1396 -25.3857 -37.8223q-15.6924 -15.6816 -35.5391 -24.9062q-19.8467 -9.22559 -41.0771 -9.22559q-21.2314 0 -39.6934 8.76367t-32.3086 23.9854q-13.8467 15.2207 -22.1543 35.9766
t-8.30762 44.7402q0 25.8301 9.69238 48.4307t26.3086 39.667q16.6152 17.0664 37.8467 26.752q21.2314 9.68652 43.3857 9.68652q44.3086 0 71.0781 -32.2871t26.7695 -80.2568v-6.45703z" />
    <glyph glyph-name="ring" unicode="&#x2da;" horiz-adv-x="592" 
d="M301 1501q-22 -1 -40.5 -12.5t-32.5 -30.5t-22 -44.5t-8 -55.5q0 -57 27 -95t72 -38q19 1 36.5 11.5t30.5 28.5t21 43t8 54q0 62 -24 100.5t-68 38.5zM305 1559q37 0 71.5 -11t61.5 -34t43.5 -57.5t16.5 -82.5q-1 -48 -20.5 -86t-49.5 -65t-67 -41.5t-74 -14.5
q-38 0 -72.5 11t-61.5 34t-43 58.5t-16 83.5q1 45 20 83t49 65t67 42t75 15z" />
    <glyph glyph-name="ogonek" unicode="&#x2db;" horiz-adv-x="625" 
d="M528 55q-60 -23 -115 -58.5t-97 -79.5t-67.5 -95.5t-25.5 -106.5q0 -66 31.5 -104.5t91.5 -38.5q37 0 77.5 15.5t78.5 50.5l28 -35q-21 -24 -49 -47t-61 -41.5t-69 -29.5t-72 -11q-44 0 -78.5 14.5t-58 40t-36 61.5t-12.5 80q0 78 38 146.5t100 124.5t140.5 99t159.5 69z
" />
    <glyph glyph-name="tilde" unicode="&#x2dc;" horiz-adv-x="868" 
d="M293 1372q-35 0 -77 -24t-73 -68l-51 27q15 37 41 68.5t56.5 54t63 35t61.5 12.5q48 0 82 -16.5t62.5 -37t56.5 -37t63 -16.5q45 0 80.5 27.5t68.5 77.5l49 -25q-19 -51 -44 -86t-53.5 -57.5t-57.5 -32.5t-56 -10q-48 0 -83 17t-65 37t-59 37t-65 17z" />
    <glyph glyph-name="hungarumlaut" unicode="&#x2dd;" horiz-adv-x="858" 
d="M137 1198l-45 45l195 250q29 37 53.5 50t43.5 13q30 0 42.5 -16t12.5 -38q0 -17 -12.5 -39.5t-47.5 -53.5zM416 1217l-37 47l225 231q31 33 57 46t46 13q30 0 43.5 -19.5t13.5 -39.5q1 -20 -15.5 -42.5t-56.5 -49.5z" />
    <glyph glyph-name="Delta" unicode="&#x394;" horiz-adv-x="1430" 
d="M819 1467l518 -1467h-1317l635 1467h164zM187 120v-2l940 -6v2l-417 1237h-2z" />
    <glyph glyph-name="Omega" unicode="&#x3a9;" horiz-adv-x="1570" 
d="M870 150q72 19 144 78.5t128 148.5t88.5 202.5t32.5 242.5q0 118 -28.5 220.5t-85 178.5t-140 120t-192.5 44q-84 0 -154 -27.5t-126.5 -75t-99 -112t-71.5 -139t-43 -155t-14 -160.5q0 -131 32 -232.5t83 -173.5t114.5 -112.5t126.5 -47.5l-8 -150h-536l2 272h61v-11
q0 -41 14 -66t44 -39.5t76 -20t110 -6.5l144 -2v2q-97 32 -180 91.5t-144 140.5t-95.5 180t-34.5 210q0 82 19.5 167.5t58.5 165t98 149.5t137.5 122t177.5 82t218 30q113 0 203.5 -28t161 -75.5t121 -111.5t83.5 -135.5t48.5 -146.5t15.5 -146q0 -83 -20.5 -160
t-56.5 -146.5t-84.5 -130t-105 -110.5t-118 -87.5t-123.5 -60.5v-2l158 2q65 1 113 7t80 21.5t48.5 43t18.5 71.5h61l-26 -272h-543z" />
    <glyph glyph-name="pi" unicode="&#x3c0;" horiz-adv-x="1183" 
d="M188 115q32 12 56 61t40.5 120t27.5 157t18 171.5t11 163t7 132.5q-40 0 -70 -3.5t-55.5 -9.5t-49.5 -15.5t-51 -22.5l-31 45q23 26 51.5 50t64 42.5t77 29.5t89.5 11q79 0 149.5 -8.5t135.5 -18t125 -18t119 -8.5q26 0 49.5 2.5t47.5 8.5t49 16t55 26l32 -43
q-12 -15 -29 -32t-39.5 -34t-50 -32t-58.5 -25l-32 -613q-3 -53 1 -89.5t14 -59t26 -32.5t37 -10q14 0 32.5 6t37.5 19l24 -33q-14 -18 -36 -36t-48 -32.5t-55.5 -24t-58.5 -9.5q-55 0 -84 22.5t-42 55.5t-14 69.5t1 65.5l41 689q-54 3 -103 9.5t-95 14t-90 14.5t-89 10
q-2 -42 -4.5 -92t-5 -102.5t-6 -106.5t-7.5 -104q-5 -53 -12.5 -114t-20 -121.5t-32.5 -116.5t-50 -99t-71 -68.5t-96 -25.5q-44 0 -72 26t-28 65q0 21 7.5 38.5t20 29.5t28.5 19t33 7q49 0 79 -37z" />
    <glyph glyph-name="endash" unicode="&#x2013;" horiz-adv-x="1194" 
d="M136 723h932l-8 -127l-931 -8z" />
    <glyph glyph-name="emdash" unicode="&#x2014;" horiz-adv-x="1421" 
d="M136 723h1157l-6 -127l-1157 -8z" />
    <glyph glyph-name="quoteleft" unicode="&#x2018;" horiz-adv-x="433" 
d="M135 982zM354.007 1507.98q-17.999 -19.999 -37.9971 -53.9971q-19.999 -33.998 -36.998 -75.4951q-16.999 -41.498 -27.998 -87.4951q-11 -45.9971 -11 -107.993h3q12.999 5 24.999 7q11.999 2 22.998 2q19.999 0 36.498 -8t28.498 -20.999t18.499 -30.498t6.5 -35.498
q0 -27.998 -9 -49.4971q-8.99902 -21.498 -24.998 -35.9971t-36.498 -21.999q-20.499 -7.49902 -44.4971 -7.49902q-62.9961 0 -96.9941 44.4971t-33.998 116.492q0 37.998 10.499 88.4951q10.5 50.4971 31.498 104.993q20.999 54.4971 52.4971 109.494
q31.498 54.9961 73.4951 102.993z" />
    <glyph glyph-name="quoteright" unicode="&#x2019;" horiz-adv-x="401" 
d="M124 989zM151 1030q18 20 38 54t37 75.5t28 87.5t11 108h-3q-13 -5 -25 -7t-23 -2q-20 0 -36.5 8t-28.5 21t-18.5 30.5t-6.5 35.5q0 28 9 49.5t25 36t36.5 22t44.5 7.5q63 0 97 -44.5t34 -116.5q0 -38 -10.5 -88.5t-31.5 -105t-52.5 -109.5t-73.5 -103z" />
    <glyph glyph-name="quotesinglbase" unicode="&#x201a;" horiz-adv-x="485" 
d="M89 0zM116 -325q18 20 38 54t37 75.5t28 87.5t11 108h-3q-13 -5 -25 -7t-23 -2q-20 0 -36.5 8t-28.5 21t-18.5 30.5t-6.5 35.5q0 28 9 49.5t25 36t36.5 22t44.5 7.5q63 0 97 -44.5t34 -116.5q0 -38 -10.5 -88.5t-31.5 -105t-52.5 -109.5t-73.5 -103z" />
    <glyph glyph-name="quotedblleft" unicode="&#x201c;" horiz-adv-x="794" 
d="M135 982zM354.007 1507.98q-17.999 -19.999 -37.9971 -53.9971q-19.999 -33.998 -36.998 -75.4951q-16.999 -41.498 -27.998 -87.4951q-11 -45.9971 -11 -107.993h3q12.999 5 24.999 7q11.999 2 22.998 2q19.999 0 36.498 -8t28.498 -20.999t18.499 -30.498t6.5 -35.498
q0 -27.998 -9 -49.4971q-8.99902 -21.498 -24.998 -35.9971t-36.498 -21.999q-20.499 -7.49902 -44.4971 -7.49902q-62.9961 0 -96.9941 44.4971t-33.998 116.492q0 37.998 10.499 88.4951q10.5 50.4971 31.498 104.993q20.999 54.4971 52.4971 109.494
q31.498 54.9961 73.4951 102.993zM715.007 1507.98q-17.999 -19.999 -37.9971 -53.9971q-19.999 -33.998 -36.998 -75.4951q-16.999 -41.498 -27.998 -87.4951q-11 -45.9971 -11 -107.993h3q12.999 5 24.999 7q11.999 2 22.998 2q19.999 0 36.498 -8t28.498 -20.999
t18.499 -30.498t6.5 -35.498q0 -27.998 -9 -49.4971q-8.99902 -21.498 -24.998 -35.9971t-36.498 -21.999q-20.499 -7.49902 -44.4971 -7.49902q-62.9961 0 -96.9941 44.4971t-33.998 116.492q0 37.998 10.499 88.4951q10.5 50.4971 31.498 104.993
q20.999 54.4971 52.4971 109.494q31.498 54.9961 73.4951 102.993z" />
    <glyph glyph-name="quotedblright" unicode="&#x201d;" horiz-adv-x="761" 
d="M124 989zM151 1030q18 20 38 54t37 75.5t28 87.5t11 108h-3q-13 -5 -25 -7t-23 -2q-20 0 -36.5 8t-28.5 21t-18.5 30.5t-6.5 35.5q0 28 9 49.5t25 36t36.5 22t44.5 7.5q63 0 97 -44.5t34 -116.5q0 -38 -10.5 -88.5t-31.5 -105t-52.5 -109.5t-73.5 -103zM511 1030
q18 20 38 54t37 75.5t28 87.5t11 108h-3q-13 -5 -25 -7t-23 -2q-20 0 -36.5 8t-28.5 21t-18.5 30.5t-6.5 35.5q0 28 9 49.5t25 36t36.5 22t44.5 7.5q63 0 97 -44.5t34 -116.5q0 -38 -10.5 -88.5t-31.5 -105t-52.5 -109.5t-73.5 -103z" />
    <glyph glyph-name="quotedblbase" unicode="&#x201e;" horiz-adv-x="846" 
d="M89 0zM116 -325q18 20 38 54t37 75.5t28 87.5t11 108h-3q-13 -5 -25 -7t-23 -2q-20 0 -36.5 8t-28.5 21t-18.5 30.5t-6.5 35.5q0 28 9 49.5t25 36t36.5 22t44.5 7.5q63 0 97 -44.5t34 -116.5q0 -38 -10.5 -88.5t-31.5 -105t-52.5 -109.5t-73.5 -103zM476 -325
q18 20 38 54t37 75.5t28 87.5t11 108h-3q-13 -5 -25 -7t-23 -2q-20 0 -36.5 8t-28.5 21t-18.5 30.5t-6.5 35.5q0 28 9 49.5t25 36t36.5 22t44.5 7.5q63 0 97 -44.5t34 -116.5q0 -38 -10.5 -88.5t-31.5 -105t-52.5 -109.5t-73.5 -103z" />
    <glyph glyph-name="dagger" unicode="&#x2020;" horiz-adv-x="1044" 
d="M438 -555q-1 224 0 331.5t1 236.5t-3.5 274t-14.5 286q25 57 48 140t52 198q-78 -15 -152.5 -26.5t-120 -18t-59 -7.5t-27.5 -1q-18 0 -34.5 3t-29 10.5t-20 21.5t-7.5 35t8 34t21.5 21t31.5 11t37 3q14 0 28 -1t58.5 -7t119 -17.5t149.5 -27.5q-6 47 -13.5 105.5
t-18 182.5t-11.5 186q0 24 5 48.5t16 44.5t29.5 32.5t45.5 12.5q22 0 37.5 -9.5t24.5 -24.5t13 -34.5t4 -39.5q0 -22 -3 -41q-8 -57 -19 -119t-24 -123t-25.5 -118t-23.5 -103q78 16 153.5 27.5t121.5 17.5t61 7t30 1q17 0 32.5 -3t27.5 -10.5t19 -21t7 -34.5t-8 -35
t-22 -21.5t-32 -10.5t-37 -3q-14 0 -28 1t-58 7.5t-118 18t-149 26.5q17 -115 31 -198t34 -140q-25 -135 -42.5 -275t-32 -282t-27.5 -285.5t-29 -285.5h-57z" />
    <glyph glyph-name="daggerdbl" unicode="&#x2021;" horiz-adv-x="1093" 
d="M645 515q-13 -28 -26 -73.5t-26 -100.5t-26.5 -116t-28.5 -119q76 16 152 29.5t126 20t75 6.5q20 0 38 -3.5t31.5 -11.5t21 -22t7.5 -36q-2 -22 -11 -36t-23.5 -22t-33 -11t-38.5 -3q-26 0 -74.5 6t-123 20t-149.5 30q6 -48 14 -108.5t20.5 -191.5t12.5 -189
q0 -24 -5.5 -48.5t-17.5 -44.5t-31 -33t-46 -13q-23 0 -39 9.5t-25.5 25.5t-14 36t-4.5 41q0 19 5.5 56.5t30.5 166t38 187.5t24 106q-78 -16 -154.5 -29.5t-125.5 -20t-73 -6.5q-19 0 -36.5 3t-31 10.5t-22 20t-8.5 32.5q0 24 8.5 39t23.5 24t34 12.5t40 3.5q25 0 74 -6.5
t123 -20.5t149 -29q-9 58 -16 118.5t-14 115.5t-15 100.5t-18 74.5q13 28 25 71.5t24.5 96.5t26 111.5t28.5 116.5q-78 -16 -152.5 -29.5t-125 -20t-73.5 -6.5q-19 0 -37 3t-31.5 10.5t-22 20.5t-8.5 33q0 24 8.5 39t23 23.5t33 12t39.5 3.5q26 0 75.5 -6.5t124 -20
t149.5 -29.5q-6 46 -14.5 104.5t-16 121t-12.5 126t-5 120.5q0 24 5.5 49t18 45t31.5 33t46 13q23 0 39 -9.5t25.5 -25.5t14 -36t4.5 -41q0 -19 -5.5 -56.5t-17.5 -99.5t-25 -123t-26.5 -118t-24.5 -103q78 16 154.5 29.5t126.5 20t76 6.5q40 0 67.5 -14.5t27.5 -57.5
q-2 -22 -11 -36t-23.5 -22.5t-33.5 -11.5t-39 -3q-25 0 -73.5 6t-122.5 20t-149 30q9 -58 16.5 -116.5t15 -111.5t15.5 -96.5t18 -71.5z" />
    <glyph glyph-name="bullet" unicode="&#x2022;" horiz-adv-x="797" 
d="M100 766q3 64 30 119t70.5 96t100.5 64.5t121 23.5q62 0 116 -22t93.5 -61t62.5 -92t23 -114q0 -66 -27 -124t-72 -100.5t-104 -67.5t-123 -25q-61 0 -114.5 21.5t-93 60t-62 90t-22.5 111.5v10t1 10z" />
    <glyph glyph-name="ellipsis" unicode="&#x2026;" horiz-adv-x="1582" 
d="M320 96q-1 -27 -11.5 -51t-27.5 -41t-38.5 -27t-44.5 -10t-43 9.5t-35 26t-24 39t-9 48.5q0 28 10.5 52.5t28.5 43t41 29t47 10.5q48 0 77 -35t29 -87v-7zM873 96q-1 -27 -11.5 -51t-27.5 -41t-38.5 -27t-44.5 -10t-43 9.5t-35 26t-24 39t-9 48.5q0 28 10.5 52.5t28.5 43
t41 29t47 10.5q48 0 77 -35t29 -87v-7zM1426 96q-1 -27 -11.5 -51t-27.5 -41t-38.5 -27t-44.5 -10t-43 9.5t-35 26t-24 39t-9 48.5q0 28 10.5 52.5t28.5 43t41 29t47 10.5q48 0 77 -35t29 -87v-7z" />
    <glyph glyph-name="perthousand" unicode="&#x2030;" horiz-adv-x="2608" 
d="M1956 378q-3 -49 2.5 -107.5t25.5 -109.5t57 -85t98 -34q56 0 94.5 27.5t63 69.5t36.5 93t15 99q3 51 -3.5 110.5t-26.5 110t-56.5 84t-93.5 33.5q-58 0 -97.5 -31t-64 -75.5t-36.5 -95t-14 -89.5zM1778 350q4 72 32 142t78 126.5t121 91.5t161 37q95 2 164 -30.5
t112.5 -86t63 -122.5t16.5 -139q-4 -79 -37 -152t-87 -128.5t-124.5 -88.5t-148.5 -33q-92 0 -159.5 32t-111.5 85.5t-64 122.5t-16 143zM287 1100q-3 -49 2 -107.5t25 -109.5t57.5 -85t98.5 -34q56 0 94.5 27.5t63.5 69.5t37 93t14 99q3 51 -3 110.5t-26.5 110t-57 84
t-93.5 33.5q-58 0 -97.5 -31t-64.5 -75.5t-37 -95t-13 -89.5zM1548 1381l-1230 -1414l-80 78l1219 1422zM109 1070q4 72 32 142t78 126.5t121 91.5t161 37q95 2 164 -30.5t113 -86t63.5 -122.5t15.5 -139q-4 -79 -37 -152t-87 -128.5t-124.5 -88.5t-148.5 -33
q-92 0 -159.5 32t-111.5 85.5t-64 122.5t-16 143zM1137 378q-3 -49 2.5 -107.5t25.5 -109.5t57 -85t98 -34q56 0 94.5 27.5t63 69.5t36.5 93t15 99q3 51 -3.5 110.5t-26.5 110t-56.5 84t-93.5 33.5q-58 0 -97.5 -31t-64 -75.5t-36.5 -95t-14 -89.5zM959 350q4 72 32 142
t78 126.5t121 91.5t161 37q95 2 164 -30.5t112.5 -86t63 -122.5t16.5 -139q-4 -79 -37 -152t-87 -128.5t-124.5 -88.5t-148.5 -33q-92 0 -159.5 32t-111.5 85.5t-64 122.5t-16 143z" />
    <glyph glyph-name="guilsinglleft" unicode="&#x2039;" horiz-adv-x="756" 
d="M52 541v8l602 575l49 -55l-449 -528v-4l373 -498l-59 -53z" />
    <glyph glyph-name="guilsinglright" unicode="&#x203a;" horiz-adv-x="755" 
d="M44 0zM695.003 569.033v-8l-601.963 -574.965l-48.9971 54.9971l448.973 527.968v4l-372.978 497.969l58.9971 52.9971z" />
    <glyph glyph-name="fraction" unicode="&#x2044;" horiz-adv-x="929" 
d="M1021 1412l-1035 -1445l-63 47l1026 1453z" />
    <glyph glyph-name="uni2074" unicode="&#x2074;" horiz-adv-x="766" 
d="M618 625h-299l2 59q31 1 51.5 10.5t33 27t17.5 41t7 52.5l1 25h-347l4 61l432 566h55l-27 -551l115 -2l-4 -74h-115l-7 -149l86 4zM183 921l253 -4l21 367h-2z" />
    <glyph glyph-name="Euro" unicode="&#x20ac;" horiz-adv-x="1549" 
d="M977 1381q-86 0 -166.5 -31t-148.5 -91t-119.5 -148t-78.5 -203l703 -3l-61 -106l-662 -3q-4 -30 -6 -61.5t-2 -63.5q0 -33 3 -63l572 -2l-61 -106l-495 -2q21 -97 64.5 -174.5t106 -131.5t140.5 -83t168 -29q135 0 253.5 57t208.5 172l54 -45q-71 -91 -146.5 -149
t-149.5 -91t-145.5 -45t-134.5 -12q-128 0 -231.5 39.5t-180.5 110t-126 167.5t-68 213l-203 -1l35 114l157 -1q-1 10 -1 19.5v20.5q0 37 3 74t10 72h-187l34 114l177 -1q32 114 91.5 215.5t145 178t195.5 121t243 44.5q111 0 199 -29t172 -86h2l8 101h111l-62 -414h-73
q-7 73 -29 135.5t-63.5 108.5t-104.5 72t-151 26z" />
    <glyph glyph-name="trademark" unicode="&#x2122;" horiz-adv-x="2130" 
d="M987 1434h254l148 -439q17 -49 36.5 -107.5t41.5 -117.5h2q8 18 18 38.5t20 41.5t19 41t16 35q57 126 120.5 248.5t125.5 259.5h225l-4 -68q-30 -1 -48.5 -11.5t-28.5 -29.5t-13 -45.5t-2 -58.5l7 -430q1 -23 0.5 -52.5t-2.5 -49.5l100 5l-4 -71h-324l4 57q31 1 51 12
t31.5 31t15.5 47t4 59l-5 305q-1 34 0.5 68t3.5 72h-2q-13 -36 -26.5 -67.5t-27.5 -61.5l-256 -533h-86q-65 171 -127.5 342.5t-114.5 342.5h-2l-9 -130l-36 -393q-3 -26 -5.5 -47.5t-8.5 -38.5l100 6l-4 -69h-289l5 57q31 1 50.5 11.5t31.5 29t17.5 44.5t8.5 58l45 463
q2 26 4 42.5t4 26.5l-88 -5zM471 1356l-127 -1q-63 -1 -92.5 -50t-34.5 -142h-61l20 271h729l-6 -271h-61q1 50 -5 87t-21.5 61t-44 35.5t-72.5 11.5l-90 -1l-31 -583q-2 -23 -2.5 -45t-3.5 -39l94 4l-4 -73h-320l4 57q29 0 48 9.5t30 26.5t16 40t7 51z" />
    <glyph glyph-name="partialdiff" unicode="&#x2202;" horiz-adv-x="1031" 
d="M302 1553q34 3 68 3q156 0 263.5 -58t174 -159t96 -237.5t29.5 -293.5t-21 -279.5t-59 -214.5t-89.5 -156.5t-112 -104.5t-128.5 -58t-137 -18q-66 0 -125 26t-103.5 77.5t-71 128.5t-26.5 178q0 147 42.5 266t112.5 202.5t160 129t185 45.5q61 0 116.5 -21.5t96.5 -68.5
q-2 68 -10.5 134.5t-28 127t-51.5 112t-81.5 89.5t-118.5 59.5t-161 21.5h-24zM773 815q-32 72 -83.5 102.5t-121.5 30.5q-58 0 -117.5 -36t-108 -106.5t-79 -174t-30.5 -239.5q0 -81 15 -144t41 -106t61.5 -65t76.5 -22q59 0 106.5 32t84 85t63.5 121.5t45 142.5t28.5 148
t14.5 137z" />
    <glyph glyph-name="summation" unicode="&#x2211;" horiz-adv-x="1326" 
d="M1121 1075q4 91 -14.5 147.5t-54 88t-85 42t-106.5 9.5l-485 -10q14 -21 26 -43t23 -45l354 -758l-481 -786q-29 -46 -56 -86.5t-56 -73.5q154 -2 259.5 -3t174 -1.5t105.5 -1t54 -0.5h20h4q66 -2 121 14.5t94.5 55t63.5 101t29 152.5h69l-32 -399h-1119l4 90
q19 -1 40 12t40.5 33t37 43.5t30.5 44.5l452 727l-382 799q-22 45 -32.5 73t-12.5 48l-95 -5l4 91h1082l-8 -359h-68z" />
    <glyph glyph-name="minus" unicode="&#x2212;" horiz-adv-x="1196" 
d="M143 655l911 -4l-6 -125l-911 -4z" />
    <glyph glyph-name="uni2215" unicode="&#x2215;" 
 />
    <glyph glyph-name="radical" unicode="&#x221a;" horiz-adv-x="1712" 
d="M22 1024h398l219 -790l596 1531h616l-8 -79l-543 6l-663 -1698h-92l-232 786q-20 66 -30.5 105.5t-12.5 64.5l-256 6z" />
    <glyph glyph-name="infinity" unicode="&#x221e;" horiz-adv-x="1715" 
d="M491 1139q62 0 114 -18.5t97.5 -55t87 -90.5t81.5 -125q33 63 77.5 118t97 95t111 63t120.5 23q87 0 149.5 -31t103 -85t59.5 -127t19 -157q0 -95 -26 -180.5t-74 -150.5t-115.5 -103.5t-151.5 -38.5q-54 0 -102.5 13.5t-95.5 47.5t-94 90.5t-97 143.5
q-32 -59 -73.5 -111t-91 -91t-106 -61.5t-117.5 -22.5q-95 0 -160 35.5t-106 93t-59 129.5t-18 146q0 93 26 175t74 143t116.5 96.5t153.5 35.5zM1238 424q66 0 118.5 26t89 70t56 101.5t19.5 120.5q0 58 -18 108t-50 87t-76 58t-96 21q-47 0 -92.5 -13t-90.5 -42.5
t-91 -77.5t-93 -117q29 -59 62 -119.5t72.5 -110t86 -81t103.5 -31.5zM464 424q97 0 184.5 57.5t159.5 168.5q-1 0 -2 5q-27 51 -57 109t-69 107t-89.5 81.5t-117.5 32.5q-50 0 -98 -19.5t-86 -57t-61 -92t-23 -124.5q0 -58 19 -107t53.5 -85t82 -56t104.5 -20z" />
    <glyph glyph-name="integral" unicode="&#x222b;" horiz-adv-x="799" 
d="M141 -471q60 6 95.5 72t41.5 191l64 1295q5 101 27 187t67 148.5t114.5 98t169.5 35.5q81 0 124 -29.5t43 -84.5q0 -13 -4.5 -28.5t-15 -29t-27.5 -22.5t-41 -9q-41 0 -63.5 28.5t-22.5 73.5v8q-17 12 -49 12q-42 0 -70.5 -15t-45.5 -47t-26 -82t-12 -119l-64 -1297
q-5 -101 -28 -187t-68.5 -149t-116 -98.5t-170.5 -35.5q-81 0 -124 30.5t-43 85.5q0 13 4.5 28.5t15 29t27.5 22.5t41 9q41 0 63.5 -28.5t22.5 -73.5v-8q8 -5 23 -8.5t32 -3.5q11 0 16 1z" />
    <glyph glyph-name="approxequal" unicode="&#x2248;" horiz-adv-x="1217" 
d="M149 308zM407 776.796q-42 0 -76 -7.02734q-34 -7.02832 -64 -18.7412q-30 -11.7139 -58.5 -28.1123q-28.5 -16.3994 -59.5 -35.1406l6 113.386q36 24.3643 67.5 43.5742t63.5 32.3291q32 13.1182 66 19.6777t76 6.55957q55 0 95 -10.7764t70.5 -26.7061
q30.5 -15.9307 55 -35.1406t50.5 -35.1396q26 -15.9307 55.5 -26.707t70.5 -10.7764q68 0 129 24.3643q61 24.3633 115 66.5322l-6 -112.449q-48 -44.9795 -112.5 -72.623t-145.5 -27.6436q-51 0 -89 10.3076t-68.5 26.2383t-56.5 33.7344q-26 17.8047 -53.5 33.7344
q-27.5 15.9307 -58.5 26.2383t-72 10.3076zM407 448.796q-42 0 -76 -7.02734q-34 -7.02832 -64 -18.7412q-30 -11.7139 -58.5 -28.1123q-28.5 -16.3994 -59.5 -35.1406l6 113.386q36 24.3643 67.5 43.5742t63.5 32.3291q32 13.1182 66 19.6777t76 6.55957q55 0 95 -10.7764
t70.5 -26.7061q30.5 -15.9307 55 -35.1406t50.5 -35.1396q26 -15.9307 55.5 -26.707t70.5 -10.7764q68 0 129 24.3643q61 24.3633 115 66.5322l-6 -112.449q-48 -44.9795 -112.5 -72.623t-145.5 -27.6436q-51 0 -89 10.3076t-68.5 26.2383t-56.5 33.7344
q-26 17.8047 -53.5 33.7344q-27.5 15.9307 -58.5 26.2383t-72 10.3076z" />
    <glyph glyph-name="notequal" unicode="&#x2260;" horiz-adv-x="1124" 
d="M117 879l572 -3l182 254l84 -65l-137 -189l211 -1l-6 -111l-287 -2l-201 -278l473 -2l-6 -111l-551 -3l-205 -284l-79 63l158 221l-234 -1l6 119l312 -2l198 278l-496 -2z" />
    <glyph glyph-name="lessequal" unicode="&#x2264;" horiz-adv-x="1133" 
d="M80 111l912 -9l-5 -102h-912zM108 743l934 405l-8 -123l-794 -342v-2l759 -342l-8 -127l-889 397z" />
    <glyph glyph-name="greaterequal" unicode="&#x2265;" horiz-adv-x="1135" 
d="M1001 0h-912l5 102l912 9zM1028 620l-934 -405l8 123l794 342v2l-759 342l8 127l889 -397z" />
    <glyph glyph-name="lozenge" unicode="&#x25ca;" horiz-adv-x="993" 
d="M476 129h4l352 649l-281 631h-4l-368 -639zM494 -33h-53l-359 770l2 54l447 765h53l348 -751l-2 -53z" />
    <glyph glyph-name="uniE0FF" unicode="&#xe0ff;" 
 />
    <glyph glyph-name="uniEFFD" unicode="&#xeffd;" horiz-adv-x="1031" 
d="M113 1024h848l-53 -1024h-848zM229 75h518l45 874h-518z" />
    <glyph glyph-name="uniF000" unicode="&#xf000;" 
 />
    <glyph glyph-name="Cedilla" unicode="&#xf407;" horiz-adv-x="625" 
d="M92 -446q54 9 102.5 25.5t86 38.5t59.5 49t22 58t-19 47t-51 16q-24 0 -50 -7.5t-47 -24.5l-66 35l70 225h118l-65 -170q15 9 34 16t38.5 11.5t37 7t29.5 2.5q36 0 62.5 -10t43.5 -27.5t25.5 -40.5t8.5 -49q0 -45 -21 -81t-56 -64.5t-80 -49.5t-92.5 -36t-94 -24.5
t-83.5 -14.5z" />
    <glyph glyph-name="Circumflex" unicode="&#xf408;" horiz-adv-x="961" 
d="M494 1905h4l370 -289l-37 -57l-356 182h-4l-348 -178l-31 55z" />
    <glyph glyph-name="Ring" unicode="&#xf40c;" horiz-adv-x="643" 
d="M319 1853q-26 0 -49 -12.5t-37 -33t-22 -47.5t-8 -60q0 -38 9.5 -69.5t26.5 -54t40.5 -34.5t52.5 -12q21 1 40.5 12t34.5 30t24 45t9 58q0 46 -9.5 79.5t-26 55.5t-38.5 32.5t-47 10.5zM319 1913q42 0 83 -12.5t73.5 -38.5t53 -66.5t20.5 -97.5q0 -54 -19 -96.5
t-50.5 -72.5t-72 -45.5t-83.5 -15.5q-44 0 -85.5 12.5t-73.5 39t-51.5 68t-19.5 100.5q0 51 19.5 93t51 71t72 45t82.5 16z" />
    <glyph glyph-name="Tilde" unicode="&#xf40d;" horiz-adv-x="977" 
d="M317 1737q-45 0 -87 -30t-80 -87l-58 35q21 46 50 83t62 62.5t68.5 39t68.5 13.5q59 0 99.5 -21t74 -46.5t65.5 -46.5t73 -21q57 0 100.5 33.5t77.5 87.5l54 -29q-25 -63 -54.5 -103.5t-61.5 -63.5t-66 -32t-68 -9q-53 0 -93 21t-75.5 46.5t-71 46.5t-78.5 21z" />
    <glyph glyph-name="Acute" unicode="&#xf6c9;" horiz-adv-x="592" 
d="M135 1556l-43 58l260 241q26 23 46.5 32t36.5 9q37 0 51 -19.5t14 -42.5q0 -19 -14 -40.5t-52 -46.5z" />
    <glyph glyph-name="Caron" unicode="&#xf6ca;" horiz-adv-x="961" 
d="M471 1528h-4l-375 293l39 61l342 -196h4l359 200l32 -53z" />
    <glyph glyph-name="Dieresis" unicode="&#xf6cb;" horiz-adv-x="721" 
d="M295 1715q-1 -26 -10 -48t-23.5 -38.5t-33.5 -26t-38 -9.5q-21 0 -39 9.5t-31 26t-20 38.5t-6 48t10.5 48.5t24.5 39t34.5 26t40.5 9.5t38.5 -9.5t29.5 -26t18 -39t5 -48.5zM626 1715q-1 -26 -10 -48t-23.5 -38.5t-33.5 -26t-38 -9.5q-21 0 -39 9.5t-31 26t-20 38.5
t-6 48t10.5 48.5t24.5 39t34.5 26t40.5 9.5t38.5 -9.5t29.5 -26t18 -39t5 -48.5z" />
    <glyph glyph-name="Grave" unicode="&#xf6ce;" horiz-adv-x="592" 
d="M158 1747q-39 25 -52.5 46.5t-13.5 40.5q0 23 14 42.5t51 19.5q16 0 36.5 -9t46.5 -32l260 -241l-43 -58z" />
    <glyph glyph-name="fi" unicode="&#xfb01;" horiz-adv-x="1317" 
d="M-30 -475q39 0 67.5 24t48.5 68t33.5 105.5t22.5 136.5t16.5 162.5t14 181.5t12.5 191.5t12.5 192.5t14 184t16.5 167l-178 -2l10 88h178l6 35q16 100 49 189t89 156.5t139 108t200 43.5q75 0 139.5 -20.5t112 -53.5t74.5 -75.5t27 -87.5q-1 -21 -9 -38.5t-20.5 -30
t-28 -19t-31.5 -6.5q-23 0 -40.5 8t-28.5 21t-16.5 29t-5.5 32q0 14 3 29.5t11 31.5q-6 25 -26 46.5t-48.5 37.5t-63.5 24.5t-71 8.5q-28 0 -59 -4t-62 -18t-60.5 -42.5t-53.5 -78t-41.5 -123t-24.5 -178.5l-2 -25h290l-6 -80h-290l-50 -719q-7 -98 -18.5 -193.5
t-32.5 -182.5t-52.5 -161t-78 -128t-109 -84.5t-145.5 -30.5q-160 0 -160 106q0 12 4.5 26.5t14 27.5t25.5 21.5t39 8.5q38 0 59 -26t21 -68q11 -8 27.5 -12t35.5 -4zM1100 834q0 -62 -12 -141.5t-27 -168t-27 -180.5t-12 -178q0 -42 15 -64t49 -22q17 0 36.5 10.5t39.5 34
t39 61.5t34 92l58 -12q-9 -43 -28.5 -93.5t-50.5 -94t-74.5 -72.5t-100.5 -29q-185 0 -185 193q0 89 12.5 174t27.5 168.5t27.5 168t12.5 171.5q0 13 -2.5 29t-8.5 30t-17 23.5t-29 9.5q-17 0 -36.5 -10.5t-40 -34t-39.5 -61.5t-34 -92l-57 12q7 36 25 85.5t49.5 95t76.5 77
t107 31.5q43 0 75.5 -15.5t54 -43.5t32 -67t10.5 -87z" />
    <glyph glyph-name="fl" unicode="&#xfb02;" horiz-adv-x="1251" 
d="M-30 -475q39 0 67 24t48.5 68t34 105.5t22.5 136.5t16.5 162.5t13.5 181.5t12.5 191.5t12.5 192.5t13.5 184t16.5 167l-177 -2l10 88h178l6 35q16 100 48.5 190t87 158t133.5 108.5t188 40.5q37 0 71.5 -5.5t66.5 -12.5t62 -12.5t58 -5.5q25 0 48 6t46 20h59
q-6 -38 -14 -84.5t-15.5 -93.5t-14.5 -91.5t-11 -78.5q-9 -72 -19.5 -161.5t-20.5 -185.5t-19.5 -193t-16.5 -185.5t-11.5 -162.5t-4.5 -123q0 -20 1.5 -39.5t7 -34.5t17 -24.5t31.5 -9.5q16 0 36 10.5t39.5 34t38.5 61.5t34 93l59 -13q-7 -36 -26.5 -85.5t-52 -94.5
t-79 -76.5t-108.5 -31.5q-89 0 -126.5 45t-37.5 136q0 50 5.5 137t15.5 196t22.5 231.5t26.5 244.5t28 235t27 203q-15 14 -40 29t-56.5 27t-66.5 20.5t-70 9.5q-28 0 -58.5 -4t-60.5 -19t-58.5 -43.5t-52 -77.5t-40 -122t-23.5 -176l-2 -25h290l-6 -80h-290l-50 -719
q-6 -98 -17 -193.5t-31 -182.5t-51 -161t-77.5 -128t-110.5 -84.5t-149 -30.5q-160 0 -160 106q0 12 4.5 26.5t14 27.5t25.5 21.5t39 8.5q38 0 59 -26t21 -68q11 -8 27.5 -12t35.5 -4z" />
    <glyph glyph-name="foundry" horiz-adv-x="2163" 
d="M2062 514h-32q2 -4 2 -10q0 -29 -22.5 -50.5t-70.5 -21.5q-18 0 -24 2v-31h37q80 0 80 -73q0 -17 -4.5 -28t-8.5 -19h-55v59h-94q-10 8 -15.5 20.5t-5.5 24.5q0 37 29 62q-29 16 -29 57q0 33 23.5 54.5t64.5 21.5q37 0 64 -21q16 21 39 21q8 0 12 -1t10 -3v-64zM502 358
q-13 -45 -36.5 -60t-51.5 -15q-39 0 -54 14v53h35q33 0 43 23h-28l-50 141h-20v64h78l28 -101l11 -49l22 86h-18v64h88v-64zM324 383q-37 -16 -84 -16q-64 0 -100 35.5t-36 99.5q0 65 35 105t105 40q18 0 38.5 -4t41.5 -10v-82h-64v31q-6 2 -18 2q-29 0 -44.5 -20.5
t-15.5 -53.5q0 -76 76 -76h66v-51zM1532 367q-100 0 -100 106q0 51 27.5 80t74.5 29t74.5 -28t27.5 -79t-27.5 -79.5t-76.5 -28.5zM991 567q19 6 36 10.5t38 4.5q94 0 94 -78v-70h23v-55q-17 -10 -41 -10q-33 0 -45 14q-19 -16 -52 -16q-28 0 -48.5 16t-20.5 47
q0 29 18.5 45.5t61.5 16.5h32v2q0 8 -9 14t-36 6h-51v53zM944 434v-53q-16 -8 -36.5 -11t-39.5 -3q-53 0 -80.5 27.5t-27.5 76.5t24.5 80t75.5 31q41 0 65.5 -25t24.5 -61q0 -9 -1 -18t-3 -19h-112q8 -25 51 -25h59zM1661 514v64h70l20 -33q4 10 9 15t12 11q14 11 30 11
q13 0 25 -4v-64h-70v-80h35v-61h-127v61h18v80h-22zM578 514v64h69l21 -33q4 10 9 15l11 11q14 11 31 11q12 0 24 -4v-64h-69v-80h35v-61h-127v61h20v80h-24zM1206 584h-24v63h96v-213h29v-57q-19 -8 -45 -8q-56 0 -56 57v158zM1333 408q0 16 10.5 28.5t30.5 12.5
q23 0 34 -12.5t11 -28.5q0 -17 -11 -28t-34 -11q-20 0 -30.5 11t-10.5 28zM1534 422q29 0 29 53q0 49 -29 49t-29 -49q0 -53 29 -53zM1917 506q0 -31 25 -31q20 0 20 31t-20 31q-25 0 -25 -31zM1065 418q14 0 22 6v31h-16q-27 0 -27 -19q0 -18 21 -18zM858 528
q-20 0 -27 -32h52q0 32 -25 32z" />
    <glyph glyph-name="uni00A0" unicode="&#xa0;" horiz-adv-x="539" 
 />
    <glyph glyph-name="Abreve" unicode="&#x102;" horiz-adv-x="1282" 
d="M0 0zM260 223q-9 -24 -16.5 -43t-15 -35t-15 -31t-16.5 -32l153 8v-90h-379l3 68q38 1 68 19.5t55.5 52t48 80.5t45.5 104l462 1149h46l391 -1166q6 -20 13.5 -46.5t14 -55t11 -56.5t4.5 -52v-15l133 8v-90h-449l2 68q37 1 61 9.5t38 22.5t19.5 32.5t5.5 38.5
q0 23 -5.5 47t-11.5 44l-59 192l-524 -12zM539 958q-53 -134 -92.5 -238.5t-71.5 -189.5h469l-216 658h-4zM949 1868q-55 -103 -138 -157t-177 -54t-169.5 54t-115.5 157l56 24q15 -21 39 -41t55.5 -35t68 -24.5t75.5 -9.5t76.5 9.5t70.5 24.5t60 35t45 41z" />
    <glyph glyph-name="Amacron" unicode="&#x100;" horiz-adv-x="1282" 
d="M0 0zM260 223q-9 -24 -16.5 -43t-15 -35t-15 -31t-16.5 -32l153 8v-90h-379l3 68q38 1 68 19.5t55.5 52t48 80.5t45.5 104l462 1149h46l391 -1166q6 -20 13.5 -46.5t14 -55t11 -56.5t4.5 -52v-15l133 8v-90h-449l2 68q37 1 61 9.5t38 22.5t19.5 32.5t5.5 38.5
q0 23 -5.5 47t-11.5 44l-59 192l-524 -12zM539 958q-53 -134 -92.5 -238.5t-71.5 -189.5h469l-216 658h-4zM415 1846h543l-6 -107l-543 -8z" />
    <glyph glyph-name="Aogonek" unicode="&#x104;" horiz-adv-x="1292" 
d="M1113 0q-56 -24 -107 -59.5t-89.5 -78t-61.5 -91.5t-23 -101q0 -65 31.5 -104t91.5 -39q37 0 77.5 15.5t78.5 50.5l28 -35q-21 -24 -49.5 -47t-61 -41.5t-68 -29.5t-72.5 -11q-45 0 -80.5 15.5t-59.5 43t-35.5 66t-9.5 84.5q3 57 26.5 109t62 98t89.5 85t109 70h-173
l2 68q58 1 85 21t35 49t2 62t-15 62l-59 192l-524 -12q-23 -63 -43.5 -117t-39.5 -102q-9 -24 -17 -43t-15 -35t-14.5 -31t-16.5 -32l153 8l-4 -90h-375l3 68q38 1 68 19.5t55.5 52t48 80.5t45.5 104l462 1149h46l391 -1166q7 -21 15.5 -50.5t15.5 -60.5t10.5 -61t1.5 -53
l133 8l-4 -90h-149zM844 530q-51 161 -104.5 325.5t-111.5 332.5h-4l-85 -230q-53 -134 -92.5 -238.5t-71.5 -189.5h469z" />
    <glyph glyph-name="Cacute" unicode="&#x106;" horiz-adv-x="1432" 
d="M100 0zM1342 260q-71 -89 -149 -146t-156 -89.5t-152 -45t-137 -12.5q-148 0 -268 52.5t-204.5 144t-130 216t-45.5 268.5q0 100 20.5 199.5t62 190.5t103.5 169.5t144.5 136t186 90.5t226.5 33q117 0 215 -30t189 -93h2l-5 111h111l-25 -475h-74q-5 96 -35.5 171
t-83 126.5t-125 78.5t-161.5 27q-113 0 -214 -50t-177.5 -142t-121.5 -222.5t-45 -290.5q0 -135 39.5 -246.5t108.5 -191t163 -123t204 -43.5q66 0 133 14.5t130 43.5t119 71.5t101 99.5zM735 1556l-43 58l260 241q26 23 46.5 32t36.5 9q37 0 51 -19.5t14 -42.5
q0 -19 -14 -40.5t-52 -46.5z" />
    <glyph glyph-name="Ccaron" unicode="&#x10c;" horiz-adv-x="1432" 
d="M101 0zM1343 260q-71 -89 -149 -146t-156 -89.5t-152 -45t-137 -12.5q-148 0 -268 52.5t-204.5 144t-130 216t-45.5 268.5q0 100 20.5 199.5t62 190.5t103.5 169.5t144.5 136t186 90.5t226.5 33q117 0 215 -30t189 -93h2l-5 111h111l-25 -475h-74q-5 96 -35.5 171
t-83 126.5t-125 78.5t-161.5 27q-113 0 -214 -50t-177.5 -142t-121.5 -222.5t-45 -290.5q0 -135 39.5 -246.5t108.5 -191t163 -123t204 -43.5q66 0 133 14.5t130 43.5t119 71.5t101 99.5zM811 1528h-4l-375 293l39 61l342 -196h4l359 200l32 -53z" />
    <glyph glyph-name="Dcaron" unicode="&#x10e;" horiz-adv-x="1526" 
d="M83 0zM407 242q-3 -56 -6 -95t-8 -65q34 -2 62.5 -3t55 -1h51h50.5q139 0 253.5 54t196 148.5t126.5 222t45 275.5q0 132 -37 239.5t-112.5 183.5t-190.5 117.5t-272 41.5q-58 0 -90.5 -13.5t-48.5 -42t-20.5 -72t-7.5 -103.5zM634 1436q178 1 324 -39t249.5 -122.5
t160 -208t56.5 -296.5q0 -100 -22.5 -195.5t-67 -181.5t-112 -158t-157.5 -124t-202.5 -81.5t-248.5 -29.5h-531l5 68q57 2 87.5 21t44 52t16.5 78.5t5 99.5l49 885q2 42 6 79.5t9 68.5l-152 -9l6 91zM741 1528h-4l-375 293l39 61l342 -196h4l359 200l32 -53z" />
    <glyph glyph-name="Dcroat" unicode="&#x110;" horiz-adv-x="1513" 
d="M635 1436q178 1 324 -39t249.5 -122.5t160 -208t56.5 -296.5q0 -100 -22.5 -195.5t-67 -181.5t-112 -158t-157.5 -124t-202.5 -81.5t-248.5 -29.5h-531l5 68q57 2 87.5 21t44 52t16.5 78.5t5 99.5l19 353h-214l7 100h213l24 432q2 42 6 79.5t9 68.5l-152 -9l6 93h475z
M408 242q-3 -56 -6 -95t-8 -65q34 -2 62.5 -3t55 -1h51h50.5q139 0 253.5 54t196 148.5t126.5 222t45 275.5q0 132 -37 239.5t-112.5 183.5t-190.5 117.5t-272 41.5q-58 0 -90.5 -13.5t-48.5 -42t-20.5 -72t-7.5 -103.5l-19 -357h263l-6 -92l-262 -4z" />
    <glyph glyph-name="Ecaron" unicode="&#x11a;" horiz-adv-x="1274" 
d="M84 0zM408 236q-3 -56 -6 -95t-8 -65l391 6q67 1 122 16.5t95.5 52t64.5 97t29 151.5h70l-33 -399h-1049l5 68q57 2 87.5 21t44 52t16.5 78.5t5 99.5l49 885q2 42 6 79.5t9 68.5l-150 -9l4 91h977l-8 -359h-68q5 91 -13.5 147.5t-54.5 88t-86 42t-108 9.5l-176 -4
q-58 -2 -90 -16.5t-48 -44.5t-21 -75.5t-9 -107.5l-18 -328l147 -2q64 -1 111 4t78.5 24.5t47.5 58t19 106.5h68l-23 -447h-67q3 68 -9 105.5t-40.5 55t-74.5 20t-112 0.5l-149 -6zM681 1528h-4l-375 293l39 61l342 -196h4l359 200l32 -53z" />
    <glyph glyph-name="Edotaccent" unicode="&#x116;" horiz-adv-x="1274" 
d="M83 0zM407 236q-3 -56 -6 -95t-8 -65l391 6q67 1 122 16.5t95.5 52t64.5 97t29 151.5h70l-33 -399h-1049l5 68q57 2 87.5 21t44 52t16.5 78.5t5 99.5l49 885q2 42 6 79.5t9 68.5l-150 -9l4 91h977l-8 -359h-68q5 91 -13.5 147.5t-54.5 88t-86 42t-108 9.5l-176 -4
q-58 -2 -90 -16.5t-48 -44.5t-21 -75.5t-9 -107.5l-18 -328l147 -2q64 -1 111 4t78.5 24.5t47.5 58t19 106.5h68l-23 -447h-67q3 68 -9 105.5t-40.5 55t-74.5 20t-112 0.5l-149 -6zM777.391 1776.56q-0.922852 -24.9072 -10.6152 -47.0469
q-9.69336 -22.1396 -25.3857 -37.8223q-15.6924 -15.6816 -35.5391 -24.9062q-19.8467 -9.22559 -41.0771 -9.22559q-21.2314 0 -39.6934 8.76367t-32.3086 23.9854q-13.8467 15.2207 -22.1543 35.9766t-8.30762 44.7402q0 25.8301 9.69238 48.4307t26.3086 39.667
q16.6152 17.0664 37.8467 26.752q21.2314 9.68652 43.3857 9.68652q44.3086 0 71.0781 -32.2871t26.7695 -80.2568v-6.45703z" />
    <glyph glyph-name="Emacron" unicode="&#x112;" horiz-adv-x="1274" 
d="M83 0zM407 236q-3 -56 -6 -95t-8 -65l391 6q67 1 122 16.5t95.5 52t64.5 97t29 151.5h70l-33 -399h-1049l5 68q57 2 87.5 21t44 52t16.5 78.5t5 99.5l49 885q2 42 6 79.5t9 68.5l-150 -9l4 91h977l-8 -359h-68q5 91 -13.5 147.5t-54.5 88t-86 42t-108 9.5l-176 -4
q-58 -2 -90 -16.5t-48 -44.5t-21 -75.5t-9 -107.5l-18 -328l147 -2q64 -1 111 4t78.5 24.5t47.5 58t19 106.5h68l-23 -447h-67q3 68 -9 105.5t-40.5 55t-74.5 20t-112 0.5l-149 -6zM445 1846h543l-6 -107l-543 -8z" />
    <glyph glyph-name="Eogonek" unicode="&#x118;" horiz-adv-x="1268" 
d="M1091 0q-56 -24 -107 -59.5t-89.5 -78t-61.5 -91.5t-23 -101q0 -65 31.5 -104t91.5 -39q37 0 77.5 15.5t78.5 50.5l28 -35q-21 -24 -49.5 -47t-61 -41.5t-68 -29.5t-72.5 -11q-45 0 -80.5 15.5t-59.5 43t-35.5 66t-9.5 84.5q3 57 26.5 109t62 98t89.5 85t109 70h-884
l5 68q57 2 87.5 21t44 52t16.5 78.5t5 99.5l49 885q2 42 6 79.5t9 68.5l-150 -9l4 91h977l-8 -359h-68q5 91 -13.5 147.5t-54.5 88t-86 42t-108 9.5l-176 -4q-58 -2 -90 -16.5t-48 -44.5t-21 -75.5t-9 -107.5l-18 -328l147 -2q64 -1 111 4t78.5 24.5t47.5 58t19 106.5h68
l-23 -447h-67q3 68 -9 105.5t-40.5 55t-74.5 20t-112 0.5l-149 -6l-25 -469q-3 -56 -6 -95t-8 -65l391 6q67 1 122 16.5t95.5 52t64.5 97t29 151.5h70l-33 -399h-42z" />
    <glyph glyph-name="Gbreve" unicode="&#x11e;" horiz-adv-x="1559" 
d="M101 0zM1326 74h-49q-35 0 -91.5 -12t-131.5 -41q-32 -12 -71 -22t-79.5 -17t-80.5 -11t-73 -4q-148 0 -268 45t-204.5 130.5t-130.5 208.5t-46 278q0 100 20.5 201.5t61.5 194.5t102.5 173.5t144.5 140.5t187 94t230 34q55 0 111.5 -8t110.5 -22.5t103.5 -35t91.5 -46.5
l-4 98h113l-25 -469h-73q-2 96 -34.5 170.5t-88.5 126t-132 78t-165 26.5q-76 0 -147.5 -24t-133.5 -68t-113.5 -107t-88.5 -141.5t-57.5 -170t-20.5 -193.5q0 -135 37.5 -248t105 -194.5t162.5 -127t211 -45.5q40 0 85.5 6t92 18t92 31.5t86.5 46.5l23 446l-144 -8l4 90
h457l-4 -67q-39 0 -65.5 -14.5t-43.5 -37t-27 -50t-15 -54.5t-6.5 -50.5t-2.5 -37.5zM1180 1868q-55 -103 -138 -157t-177 -54t-169.5 54t-115.5 157l56 24q15 -21 39 -41t55.5 -35t68 -24.5t75.5 -9.5t76.5 9.5t70.5 24.5t60 35t45 41z" />
    <glyph glyph-name="Gcommaaccent" unicode="&#x122;" horiz-adv-x="1559" 
d="M101 0zM1326 74h-49q-35 0 -91.5 -12t-131.5 -41q-32 -12 -71 -22t-79.5 -17t-80.5 -11t-73 -4q-148 0 -268 45t-204.5 130.5t-130.5 208.5t-46 278q0 100 20.5 201.5t61.5 194.5t102.5 173.5t144.5 140.5t187 94t230 34q55 0 111.5 -8t110.5 -22.5t103.5 -35t91.5 -46.5
l-4 98h113l-25 -469h-73q-2 96 -34.5 170.5t-88.5 126t-132 78t-165 26.5q-76 0 -147.5 -24t-133.5 -68t-113.5 -107t-88.5 -141.5t-57.5 -170t-20.5 -193.5q0 -135 37.5 -248t105 -194.5t162.5 -127t211 -45.5q40 0 85.5 6t92 18t92 31.5t86.5 46.5l23 446l-144 -8l4 90
h457l-4 -67q-39 0 -65.5 -14.5t-43.5 -37t-27 -50t-15 -54.5t-6.5 -50.5t-2.5 -37.5zM835 -115q20 -51 15 -106q-7 -78 -58 -157.5t-130 -152.5l-51 40q39 61 58 106.5t25.5 83.5t4 74.5t-7.5 79.5z" />
    <glyph glyph-name="Idotaccent" unicode="&#x130;" horiz-adv-x="686" 
d="M84 0zM289 1204q2 42 6 79.5t9 68.5l-148 -9l4 91h453l-4 -68q-54 -2 -84 -18t-45 -45t-19 -71.5t-6 -97.5l-47 -890q-2 -57 -5.5 -96.5t-8.5 -65.5l147 8l-4 -90h-453l5 68q57 2 87.5 21t44.5 52t16.5 78.5t4.5 99.5zM533.391 1775.56
q-0.922852 -24.9072 -10.6152 -47.0469q-9.69336 -22.1396 -25.3857 -37.8223q-15.6924 -15.6816 -35.5391 -24.9062q-19.8467 -9.22559 -41.0771 -9.22559q-21.2314 0 -39.6934 8.76367t-32.3086 23.9854q-13.8467 15.2207 -22.1543 35.9766t-8.30762 44.7402
q0 25.8301 9.69238 48.4307t26.3086 39.667q16.6152 17.0664 37.8467 26.752q21.2314 9.68652 43.3857 9.68652q44.3086 0 71.0781 -32.2871t26.7695 -80.2568v-6.45703z" />
    <glyph glyph-name="Imacron" unicode="&#x12a;" horiz-adv-x="686" 
d="M84 0zM289 1204q2 42 6 79.5t9 68.5l-148 -9l4 91h453l-4 -68q-54 -2 -84 -18t-45 -45t-19 -71.5t-6 -97.5l-47 -890q-2 -57 -5.5 -96.5t-8.5 -65.5l147 8l-4 -90h-453l5 68q57 2 87.5 21t44.5 52t16.5 78.5t4.5 99.5zM144 1846h543l-6 -107l-543 -8z" />
    <glyph glyph-name="Iogonek" unicode="&#x12e;" horiz-adv-x="682" 
d="M408 244q-2 -56 -5.5 -96t-8.5 -66l147 8l-2 -38l2 1l-4 -54q-60 -23 -115 -58.5t-97 -79.5t-67.5 -95.5t-25.5 -106.5q0 -65 31.5 -104t91.5 -39q37 0 77.5 15.5t78.5 50.5l28 -35q-21 -24 -49.5 -47t-61 -41.5t-68 -29.5t-72.5 -11q-45 0 -80.5 15.5t-59.5 43t-35.5 66
t-9.5 84.5q3 60 28.5 114t67.5 101.5t96.5 87t115.5 70.5h-327l5 68q57 2 87.5 21t44 52t16.5 78.5t5 99.5l47 885q2 42 6 79.5t9 68.5l-148 -9l4 91h453l-4 -68q-54 -2 -84 -18t-45 -45.5t-19 -71.5t-6 -97z" />
    <glyph glyph-name="Kcommaaccent" unicode="&#x136;" horiz-adv-x="1399" 
d="M85 0zM290 1204q2 42 6 79.5t9 68.5l-148 -9l4 91h453l-4 -68q-50 -2 -79.5 -18t-45 -45.5t-21 -71.5t-8.5 -97l-19 -356h160l273 404q27 41 67.5 88.5t90.5 81.5v2l-130 -4l5 84h440l-4 -68q-65 -5 -118.5 -17.5t-103.5 -42t-99.5 -81t-106.5 -135.5l-217 -320
q28 -18 50 -38.5t40.5 -42.5t35 -45.5t33.5 -47.5l215 -305q54 -78 93.5 -122.5t72 -67t61.5 -28t62 -5.5l-4 -68h-242q-15 0 -37 16.5t-47.5 44.5t-54.5 64.5t-57 75.5l-227 331q-35 52 -73 97.5t-73 68.5l-109 -2l-24 -452q-3 -56 -6 -96t-8 -66l147 8l-4 -90h-453l5 68
q57 2 87.5 21t44 52t16.5 78.5t5 99.5zM796 -115q20 -51 15 -106q-7 -78 -58 -157.5t-130 -152.5l-51 40q39 61 58 106.5t25.5 83.5t4 74.5t-7.5 79.5z" />
    <glyph glyph-name="Lacute" unicode="&#x139;" horiz-adv-x="1184" 
d="M82 0zM406 236q-3 -56 -6 -95t-8 -65l383 6q64 1 114.5 20.5t85.5 60.5t55 105.5t25 155.5h70l-35 -424h-1008l5 68q57 2 87 21t43.5 52t16.5 78.5t6 99.5l49 885q2 42 5 79.5t10 68.5l-146 -9v91h453l-4 -68q-54 -2 -84 -21.5t-45 -52.5t-19 -78t-6 -100zM300 1556
l-43 58l260 241q26 23 46.5 32t36.5 9q37 0 51 -19.5t14 -42.5q0 -19 -14 -40.5t-52 -46.5z" />
    <glyph glyph-name="Lcaron" unicode="&#x13d;" horiz-adv-x="1182" 
d="M980 1434q17 -36 22 -61.5t1 -61.5q-4 -41 -18.5 -81.5t-37 -79t-51.5 -74.5t-61 -68l-54 40q34 64 51.5 119.5t23 105.5t0 96t-16.5 92zM607 1366q-54 -2 -84 -21.5t-45 -52.5t-19 -78t-6 -100l-47 -878q-3 -56 -6 -95t-8 -65l383 6q64 1 114.5 20.5t85.5 60.5t55 105.5
t25 155.5h70l-35 -424h-1008l5 68q57 2 87 21t43.5 52t16.5 78.5t6 99.5l49 885q2 42 5 79.5t10 68.5l-146 -9v91h453z" />
    <glyph glyph-name="Lcommaaccent" unicode="&#x13b;" horiz-adv-x="1184" 
d="M83 0zM407 236q-3 -56 -6 -95t-8 -65l383 6q64 1 114.5 20.5t85.5 60.5t55 105.5t25 155.5h70l-35 -424h-1008l5 68q57 2 87 21t43.5 52t16.5 78.5t6 99.5l49 885q2 42 5 79.5t10 68.5l-146 -9v91h453l-4 -68q-54 -2 -84 -21.5t-45 -52.5t-19 -78t-6 -100zM665 -115
q20 -51 15 -106q-7 -78 -58 -157.5t-130 -152.5l-51 40q39 61 58 106.5t25.5 83.5t4 74.5t-7.5 79.5z" />
    <glyph glyph-name="Nacute" unicode="&#x143;" horiz-adv-x="1561" 
d="M92 0zM1311 -23h-99l-837 1197h-4l-33 -889q-3 -53 -5 -104t-9 -99l147 8l-4 -90h-375l2 68q47 0 75 16.5t43 40.5t20 52t6 52l55 1123l-137 -9l4 91h243l824 -1172h4l43 942q2 45 5.5 81.5t8.5 66.5l-147 -9l4 91h377l-4 -68q-58 -2 -87.5 -21.5t-42.5 -52.5t-15 -78
t-5 -100zM740 1556l-43 58l260 241q26 23 46.5 32t36.5 9q37 0 51 -19.5t14 -42.5q0 -19 -14 -40.5t-52 -46.5z" />
    <glyph glyph-name="Ncaron" unicode="&#x147;" horiz-adv-x="1561" 
d="M93 0zM1312 -23h-99l-837 1197h-4l-33 -889q-3 -53 -5 -104t-9 -99l147 8l-4 -90h-375l2 68q47 0 75 16.5t43 40.5t20 52t6 52l55 1123l-137 -9l4 91h243l824 -1172h4l43 942q2 45 5.5 81.5t8.5 66.5l-147 -9l4 91h377l-4 -68q-58 -2 -87.5 -21.5t-42.5 -52.5t-15 -78
t-5 -100zM891 1528h-4l-375 293l39 61l342 -196h4l359 200l32 -53z" />
    <glyph glyph-name="Ncommaaccent" unicode="&#x145;" horiz-adv-x="1561" 
d="M93 0zM1312 -23h-99l-837 1197h-4l-33 -889q-3 -53 -5 -104t-9 -99l147 8l-4 -90h-375l2 68q47 0 75 16.5t43 40.5t20 52t6 52l55 1123l-137 -9l4 91h243l824 -1172h4l43 942q2 45 5.5 81.5t8.5 66.5l-147 -9l4 91h377l-4 -68q-58 -2 -87.5 -21.5t-42.5 -52.5t-15 -78
t-5 -100zM822 -115q20 -51 15 -106q-7 -78 -58 -157.5t-130 -152.5l-51 40q39 61 58 106.5t25.5 83.5t4 74.5t-7.5 79.5z" />
    <glyph glyph-name="Ohungarumlaut" unicode="&#x150;" horiz-adv-x="1626" 
d="M101 0zM836 1385q-87 0 -160.5 -28.5t-133 -77.5t-105.5 -115.5t-77 -142.5t-47 -157.5t-16 -160.5q0 -70 11.5 -145t36.5 -147.5t64 -137.5t94.5 -114.5t127.5 -78.5t162 -29q88 0 162.5 28t134.5 76.5t105.5 114t76 140t46 155t15.5 158.5q0 80 -14 160.5t-42 154
t-70 137t-97 110.5t-123.5 73.5t-150.5 26.5zM101 670q0 159 52.5 303t149.5 254t235 175t309 65q120 0 217.5 -29.5t173 -81t130.5 -120.5t91 -148t53 -164t17 -168q0 -87 -20.5 -179.5t-61.5 -180t-103 -165.5t-144.5 -136.5t-187 -93t-229.5 -34.5q-120 0 -217.5 29
t-173 79.5t-130.5 118.5t-91 146t-53 162.5t-17 167.5zM743 1887q36 56 74 70t65 -15q21 -23 14 -53.5t-54 -76.5l-196 -192l-49 40zM1101 1886q30 27 54.5 40t43 14t32 -7.5t22.5 -24.5q7 -12 8 -26.5t-6.5 -29.5t-25.5 -31.5t-48 -32.5l-290 -164l-34 50z" />
    <glyph glyph-name="Omacron" unicode="&#x14c;" horiz-adv-x="1626" 
d="M100 0zM835 1385q-87 0 -160.5 -28.5t-133 -77.5t-105.5 -115.5t-77 -142.5t-47 -157.5t-16 -160.5q0 -70 11.5 -145t36.5 -147.5t64 -137.5t94.5 -114.5t127.5 -78.5t162 -29q88 0 162.5 28t134.5 76.5t105.5 114t76 140t46 155t15.5 158.5q0 80 -14 160.5t-42 154
t-70 137t-97 110.5t-123.5 73.5t-150.5 26.5zM100 670q0 159 52.5 303t149.5 254t235 175t309 65q120 0 217.5 -29.5t173 -81t130.5 -120.5t91 -148t53 -164t17 -168q0 -87 -20.5 -179.5t-61.5 -180t-103 -165.5t-144.5 -136.5t-187 -93t-229.5 -34.5q-120 0 -217.5 29
t-173 79.5t-130.5 118.5t-91 146t-53 162.5t-17 167.5zM625 1846h543l-6 -107l-543 -8z" />
    <glyph glyph-name="Racute" unicode="&#x154;" horiz-adv-x="1286" 
d="M83 0zM507 639q-7 0 -18.5 0.5t-23.5 1t-22.5 1t-14.5 0.5l-21 -398q-3 -57 -6 -96.5t-8 -65.5l147 8v-90h-457l5 68q57 2 87.5 21t44.5 52t16.5 78.5t4.5 99.5l47 885q2 42 6 79.5t9 68.5l-150 -9l6 91q91 1 177.5 2.5t177.5 1.5q26 0 52.5 -0.5t118 -3.5t185 -27
t157 -70t93 -109t29.5 -139q0 -60 -16 -125.5t-59.5 -124.5t-121.5 -106.5t-201 -72.5v-2q38 -29 69 -73t66 -104l127 -219q24 -41 46.5 -76.5t49.5 -61.5t61.5 -41t82.5 -15l-4 -68h-250q-48 38 -89.5 98t-80.5 129l-126 220q-12 22 -26 47.5t-29.5 51t-33.5 50t-38 44.5
q-17 -1 -34 -1h-35zM432 720q22 -2 41.5 -3.5t40.5 -1.5q95 0 176.5 17.5t141 58.5t93 109t33.5 170q0 142 -84.5 215.5t-265.5 73.5q-54 0 -84 -16t-45 -46.5t-19 -74t-6 -98.5zM569 1556l-43 58l260 241q26 23 46.5 32t36.5 9q37 0 51 -19.5t14 -42.5q0 -19 -14 -40.5
t-52 -46.5z" />
    <glyph glyph-name="Rcaron" unicode="&#x158;" horiz-adv-x="1286" 
d="M84 0zM508 639q-7 0 -18.5 0.5t-23.5 1t-22.5 1t-14.5 0.5l-21 -398q-3 -57 -6 -96.5t-8 -65.5l147 8v-90h-457l5 68q57 2 87.5 21t44.5 52t16.5 78.5t4.5 99.5l47 885q2 42 6 79.5t9 68.5l-150 -9l6 91q91 1 177.5 2.5t177.5 1.5q26 0 52.5 -0.5t118 -3.5t185 -27
t157 -70t93 -109t29.5 -139q0 -60 -16 -125.5t-59.5 -124.5t-121.5 -106.5t-201 -72.5v-2q38 -29 69 -73t66 -104l127 -219q24 -41 46.5 -76.5t49.5 -61.5t61.5 -41t82.5 -15l-4 -68h-250q-48 38 -89.5 98t-80.5 129l-126 220q-12 22 -26 47.5t-29.5 51t-33.5 50t-38 44.5
q-17 -1 -34 -1h-35zM433 720q22 -2 41.5 -3.5t40.5 -1.5q95 0 176.5 17.5t141 58.5t93 109t33.5 170q0 142 -84.5 215.5t-265.5 73.5q-54 0 -84 -16t-45 -46.5t-19 -74t-6 -98.5zM661 1528h-4l-375 293l39 61l342 -196h4l359 200l32 -53z" />
    <glyph glyph-name="Rcommaaccent" unicode="&#x156;" horiz-adv-x="1286" 
d="M84 0zM508 639q-7 0 -18.5 0.5t-23.5 1t-22.5 1t-14.5 0.5l-21 -398q-3 -57 -6 -96.5t-8 -65.5l147 8v-90h-457l5 68q57 2 87.5 21t44.5 52t16.5 78.5t4.5 99.5l47 885q2 42 6 79.5t9 68.5l-150 -9l6 91q91 1 177.5 2.5t177.5 1.5q26 0 52.5 -0.5t118 -3.5t185 -27
t157 -70t93 -109t29.5 -139q0 -60 -16 -125.5t-59.5 -124.5t-121.5 -106.5t-201 -72.5v-2q38 -29 69 -73t66 -104l127 -219q24 -41 46.5 -76.5t49.5 -61.5t61.5 -41t82.5 -15l-4 -68h-250q-48 38 -89.5 98t-80.5 129l-126 220q-12 22 -26 47.5t-29.5 51t-33.5 50t-38 44.5
q-17 -1 -34 -1h-35zM433 720q22 -2 41.5 -3.5t40.5 -1.5q95 0 176.5 17.5t141 58.5t93 109t33.5 170q0 142 -84.5 215.5t-265.5 73.5q-54 0 -84 -16t-45 -46.5t-19 -74t-6 -98.5zM665 -115q20 -51 15 -106q-7 -78 -58 -157.5t-130 -152.5l-51 40q39 61 58 106.5t25.5 83.5
t4 74.5t-7.5 79.5z" />
    <glyph glyph-name="Sacute" unicode="&#x15a;" horiz-adv-x="1161" 
d="M97 0zM204 -16h-107l11 436h80q1 -95 30 -164t80 -114t120.5 -67t151.5 -22q62 0 119 17.5t100.5 52t69 84.5t25.5 116q0 72 -31.5 124.5t-83.5 93.5t-118 74t-135 65.5t-135 68t-118 82t-83.5 107t-31.5 142.5q0 34 7.5 76t26.5 85t51 83.5t80.5 72.5t115 51t154.5 19
q39 0 83.5 -5t90 -17t90 -32.5t85.5 -50.5l-3 87h104l-22 -449h-74q-1 74 -21.5 143.5t-62.5 123t-107 86t-155 32.5q-66 0 -118 -21t-88 -56.5t-55 -82t-19 -97.5q0 -66 32 -114.5t84.5 -87t119.5 -70.5t137 -64.5t137 -69.5t119.5 -85t84.5 -111t32 -148q0 -90 -34 -165.5
t-98 -130t-157.5 -85t-211.5 -30.5q-39 0 -85.5 4t-94 14t-93.5 27t-85 43zM526 1556l-43 58l260 241q26 23 46.5 32t36.5 9q37 0 51 -19.5t14 -42.5q0 -19 -14 -40.5t-52 -46.5z" />
    <glyph glyph-name="Scedilla" unicode="&#x15e;" horiz-adv-x="1159" 
d="M936 1000q-1 74 -21.5 143.5t-62.5 123t-107 86t-155 32.5q-64 0 -114.5 -19.5t-86 -53t-55.5 -77.5t-23 -92q-4 -70 27 -121.5t84.5 -91.5t122 -73t140.5 -66.5t140.5 -72t121 -89t83 -117.5t25.5 -158q-4 -81 -36.5 -149.5t-91 -119.5t-141.5 -81.5t-188 -35.5
l-45 -126q29 19 66 29t72 10q34 0 60 -10.5t43.5 -28.5t25.5 -42t6 -52q-4 -41 -25.5 -73.5t-54.5 -57.5t-75 -43.5t-86 -31t-87 -21t-78 -13.5l-8 64q52 9 99.5 23.5t83.5 34t57.5 44t21.5 54.5q0 31 -17 46t-42.5 17t-54 -7t-50.5 -24l-69 35l57 174q-37 2 -76.5 8t-79 16
t-76.5 25.5t-69 36.5l6 -71h-107l11 436h80q1 -95 30 -164t80 -114t121 -67t151 -22q60 0 115.5 16.5t98.5 48.5t70 79.5t30 109.5q4 76 -27 131.5t-83.5 98.5t-120.5 77t-139 67.5t-139 70.5t-120 85.5t-81.5 113t-24.5 153.5q2 35 12 75.5t30.5 80.5t53 77.5t80 66.5
t111.5 46t147 17q39 0 83.5 -5t90 -17t90.5 -32.5t85 -50.5l-3 87h104l-22 -449h-74z" />
    <glyph glyph-name="Scommaaccent" unicode="&#x218;" horiz-adv-x="1161" 
d="M98 0zM205 -16h-107l11 436h80q1 -95 30 -164t80 -114t120.5 -67t151.5 -22q62 0 119 17.5t100.5 52t69 84.5t25.5 116q0 72 -31.5 124.5t-83.5 93.5t-118 74t-135 65.5t-135 68t-118 82t-83.5 107t-31.5 142.5q0 34 7.5 76t26.5 85t51 83.5t80.5 72.5t115 51t154.5 19
q39 0 83.5 -5t90 -17t90 -32.5t85.5 -50.5l-3 87h104l-22 -449h-74q-1 74 -21.5 143.5t-62.5 123t-107 86t-155 32.5q-66 0 -118 -21t-88 -56.5t-55 -82t-19 -97.5q0 -66 32 -114.5t84.5 -87t119.5 -70.5t137 -64.5t137 -69.5t119.5 -85t84.5 -111t32 -148q0 -90 -34 -165.5
t-98 -130t-157.5 -85t-211.5 -30.5q-39 0 -85.5 4t-94 14t-93.5 27t-85 43zM663 -115q20 -51 15 -106q-7 -78 -58 -157.5t-130 -152.5l-51 40q39 61 58 106.5t25.5 83.5t4 74.5t-7.5 79.5z" />
    <glyph glyph-name="Tcaron" unicode="&#x164;" horiz-adv-x="1311" 
d="M74 0zM1207 1001q0 13 0.5 25.5t0.5 24.5q0 79 -11 137t-39.5 96.5t-76.5 57t-122 18.5l-175 -2l-67 -1114q-4 -57 -6.5 -96.5t-7.5 -65.5l170 8l-4 -90h-473l4 68q49 2 78 22t44 53.5t20.5 78.5t8.5 97l63 1038l-210 -1q-65 0 -111 -21.5t-76.5 -65t-46.5 -110.5
t-20 -158h-76l35 433h1186l-10 -433h-78zM701 1528h-4l-375 293l39 61l342 -196h4l359 200l32 -53z" />
    <glyph glyph-name="Uhungarumlaut" unicode="&#x170;" horiz-adv-x="1540" 
d="M111 0zM1336 637q-8 -134 -43 -255t-104.5 -213.5t-177.5 -147t-261 -54.5q-150 0 -253 35.5t-166.5 110t-91.5 188.5t-28 272q0 79 31 613q1 27 2.5 48.5t3.5 41t4.5 38t5.5 38.5l-147 -6l4 88h455l-4 -68q-52 0 -82 -17.5t-45 -42.5t-19.5 -53t-5.5 -49
q-30 -568 -30 -617q0 -100 16 -191t60 -160.5t121 -110.5t200 -41q109 0 190.5 40t136.5 111.5t85 171.5t38 220l37 577q2 42 5.5 79.5t8.5 68.5l-147 -9l4 91h383l-2 -68q-59 -2 -89.5 -21t-44.5 -52.5t-16.5 -79t-5.5 -99.5zM781 1887q36 56 74 70t65 -15q21 -23 14 -53.5
t-54 -76.5l-196 -192l-49 40zM1139 1886q30 27 54.5 40t43 14t32 -7.5t22.5 -24.5q7 -12 8 -26.5t-6.5 -29.5t-25.5 -31.5t-48 -32.5l-290 -164l-34 50z" />
    <glyph glyph-name="Umacron" unicode="&#x16a;" horiz-adv-x="1540" 
d="M110 0zM1335 637q-8 -134 -43 -255t-104.5 -213.5t-177.5 -147t-261 -54.5q-150 0 -253 35.5t-166.5 110t-91.5 188.5t-28 272q0 79 31 613q1 27 2.5 48.5t3.5 41t4.5 38t5.5 38.5l-147 -6l4 88h455l-4 -68q-52 0 -82 -17.5t-45 -42.5t-19.5 -53t-5.5 -49
q-30 -568 -30 -617q0 -100 16 -191t60 -160.5t121 -110.5t200 -41q109 0 190.5 40t136.5 111.5t85 171.5t38 220l37 577q2 42 5.5 79.5t8.5 68.5l-147 -9l4 91h383l-2 -68q-59 -2 -89.5 -21t-44.5 -52.5t-16.5 -79t-5.5 -99.5zM615 1846h543l-6 -107l-543 -8z" />
    <glyph glyph-name="Uogonek" unicode="&#x172;" horiz-adv-x="1524" 
d="M1520 1366q-59 -2 -89.5 -21.5t-44 -52.5t-16.5 -78t-6 -100l-28 -477q-6 -106 -29.5 -205t-67.5 -182.5t-110 -147t-159 -98.5q-57 -24 -109.5 -59.5t-92.5 -79t-64 -93t-24 -102.5q0 -65 31.5 -104t91.5 -39q37 0 77.5 15.5t78.5 50.5l28 -35q-21 -24 -49.5 -47
t-61 -41.5t-68 -29.5t-72.5 -11q-45 0 -80.5 15.5t-59.5 43t-35.5 66t-9.5 84.5q3 50 21.5 96t49 88t72 78.5t89.5 67.5l-33 -1q-164 0 -272 42.5t-169.5 132t-82.5 227t-11 327.5l27 490q1 27 3 48.5t3.5 41t4 38t5.5 38.5l-147 -6l4 88h455l-4 -68q-53 0 -82.5 -17.5
t-44.5 -42.5t-19.5 -53t-5.5 -49l-27 -518q-4 -76 -2 -150.5t15.5 -141.5t40 -123.5t71.5 -98t111 -65t158 -23.5q110 0 191 40t136 111.5t85 171.5t38 220l37 577q3 42 6 79.5t8 68.5l-147 -9l4 91h383z" />
    <glyph glyph-name="Uring" unicode="&#x16e;" horiz-adv-x="1540" 
d="M111 0zM1336 637q-8 -134 -43 -255t-104.5 -213.5t-177.5 -147t-261 -54.5q-150 0 -253 35.5t-166.5 110t-91.5 188.5t-28 272q0 79 31 613q1 27 2.5 48.5t3.5 41t4.5 38t5.5 38.5l-147 -6l4 88h455l-4 -68q-52 0 -82 -17.5t-45 -42.5t-19.5 -53t-5.5 -49
q-30 -568 -30 -617q0 -100 16 -191t60 -160.5t121 -110.5t200 -41q109 0 190.5 40t136.5 111.5t85 171.5t38 220l37 577q2 42 5.5 79.5t8.5 68.5l-147 -9l4 91h383l-2 -68q-59 -2 -89.5 -21t-44.5 -52.5t-16.5 -79t-5.5 -99.5zM904 1911q-22 -1 -40.5 -12.5t-32.5 -30.5
t-22 -44.5t-8 -55.5q0 -57 27 -95t72 -38q19 1 36.5 11.5t30.5 28.5t21 43t8 54q0 62 -24 100.5t-68 38.5zM908 1969q37 0 71.5 -11t61.5 -34t43.5 -57.5t16.5 -82.5q-1 -48 -20.5 -86t-49.5 -65t-67 -41.5t-74 -14.5q-38 0 -72.5 11t-61.5 34t-43 58.5t-16 83.5q1 45 20 83
t49 65t67 42t75 15z" />
    <glyph glyph-name="Zacute" unicode="&#x179;" horiz-adv-x="1249" 
d="M58 0zM65 94q61 81 140 184t177 235t215.5 295.5t255.5 365.5q32 46 65.5 92t75.5 92l-528 -8q-61 -3 -107.5 -23.5t-79 -62t-51 -104.5t-22.5 -150h-70l35 424h1016l-4 -72l-803 -1116q-24 -33 -43.5 -58t-37 -45t-34 -36t-33.5 -31l506 8q68 1 127 21.5t104 61.5
t72.5 104t32.5 149h70l-35 -420h-1051zM594 1556l-43 58l260 241q26 23 46.5 32t36.5 9q37 0 51 -19.5t14 -42.5q0 -19 -14 -40.5t-52 -46.5z" />
    <glyph glyph-name="Zdotaccent" unicode="&#x17b;" horiz-adv-x="1249" 
d="M58 0zM65 94q61 81 140 184t177 235t215.5 295.5t255.5 365.5q32 46 65.5 92t75.5 92l-528 -8q-61 -3 -107.5 -23.5t-79 -62t-51 -104.5t-22.5 -150h-70l35 424h1016l-4 -72l-803 -1116q-24 -33 -43.5 -58t-37 -45t-34 -36t-33.5 -31l506 8q68 1 127 21.5t104 61.5
t72.5 104t32.5 149h70l-35 -420h-1051zM777.391 1775.56q-0.922852 -24.9072 -10.6152 -47.0469q-9.69336 -22.1396 -25.3857 -37.8223q-15.6924 -15.6816 -35.5391 -24.9062q-19.8467 -9.22559 -41.0771 -9.22559q-21.2314 0 -39.6934 8.76367t-32.3086 23.9854
q-13.8467 15.2207 -22.1543 35.9766t-8.30762 44.7402q0 25.8301 9.69238 48.4307t26.3086 39.667q16.6152 17.0664 37.8467 26.752q21.2314 9.68652 43.3857 9.68652q44.3086 0 71.0781 -32.2871t26.7695 -80.2568v-6.45703z" />
    <glyph glyph-name="uni0162" unicode="&#x162;" horiz-adv-x="1303" 
d="M1285 1001h-78q3 91 -5.5 158.5t-36 112.5t-77.5 67t-129 21l-175 -2l-67 -1114q-3 -56 -6 -96t-8 -66l170 8l-4 -90h-201l-56 -158q29 19 66 29t72 10q34 0 60 -10.5t43.5 -28.5t25.5 -42t6 -52q-4 -41 -25.5 -73.5t-54.5 -57.5t-75 -43.5t-86 -31t-87 -21t-78 -13.5
l-8 64q52 9 99.5 23.5t83.5 34t57.5 44t21.5 54.5q0 31 -17 46t-42.5 17t-54 -7t-50.5 -24l-69 35l67 205h-171l4 68q50 2 78.5 22t43.5 53.5t20.5 78.5t8.5 97l63 1037h-210q-65 0 -111 -21.5t-76 -65.5t-46.5 -110.5t-20.5 -157.5h-76l35 433h1186z" />
    <glyph glyph-name="uni021A" unicode="&#x21a;" horiz-adv-x="1311" 
d="M74 0zM1207 1001q0 13 0.5 25.5t0.5 24.5q0 79 -11 137t-39.5 96.5t-76.5 57t-122 18.5l-175 -2l-67 -1114q-4 -57 -6.5 -96.5t-7.5 -65.5l170 8l-4 -90h-473l4 68q49 2 78 22t44 53.5t20.5 78.5t8.5 97l63 1038l-210 -1q-65 0 -111 -21.5t-76.5 -65t-46.5 -110.5
t-20 -158h-76l35 433h1186l-10 -433h-78zM689 -115q20 -51 15 -106q-7 -78 -58 -157.5t-130 -152.5l-51 40q39 61 58 106.5t25.5 83.5t4 74.5t-7.5 79.5z" />
    <glyph glyph-name="abreve" unicode="&#x103;" horiz-adv-x="1057" 
d="M76 0zM949 1012q-17 -126 -33 -252.5t-29 -237t-21 -197.5t-8 -133q0 -20 1 -40t7 -36t17.5 -26t32.5 -10q17 0 36.5 10.5t39.5 34t39 61.5t34 92l58 -12q-7 -36 -26.5 -85.5t-52.5 -95t-80 -77t-108 -31.5q-41 0 -70 13.5t-47 37.5t-26 58t-8 76q0 58 10.5 127t26.5 147
h-6q-32 -101 -66.5 -174t-69.5 -124t-70.5 -82.5t-69 -49t-65 -23.5t-59.5 -6q-55 0 -102.5 19.5t-82.5 62t-55 110.5t-20 165q0 144 37.5 273t112 227t186.5 155.5t262 57.5q63 0 135.5 -9t139.5 -26zM770 948q-31 13 -71 19t-88 6q-93 0 -161.5 -52t-113 -137.5
t-66.5 -194t-22 -221.5q0 -65 6.5 -120.5t22.5 -95.5t41 -62.5t63 -22.5q47 0 94 40t89.5 107t80 156t65 187t43.5 199t17 192zM692 1245q-35 0 -73 14t-73.5 42.5t-65 72.5t-46.5 105l51 18q14 -29 37.5 -54.5t52.5 -45t63 -30.5t69 -11t69 11t64 30.5t55.5 47t44.5 60.5
l47 -22q-25 -62 -58.5 -106.5t-72 -74t-80.5 -43.5t-84 -14z" />
    <glyph glyph-name="amacron" unicode="&#x101;" horiz-adv-x="1057" 
d="M75 0zM948 1012q-17 -126 -33 -252.5t-29 -237t-21 -197.5t-8 -133q0 -20 1 -40t7 -36t17.5 -26t32.5 -10q17 0 36.5 10.5t39.5 34t39 61.5t34 92l58 -12q-7 -36 -26.5 -85.5t-52.5 -95t-80 -77t-108 -31.5q-41 0 -70 13.5t-47 37.5t-26 58t-8 76q0 58 10.5 127t26.5 147
h-6q-32 -101 -66.5 -174t-69.5 -124t-70.5 -82.5t-69 -49t-65 -23.5t-59.5 -6q-55 0 -102.5 19.5t-82.5 62t-55 110.5t-20 165q0 144 37.5 273t112 227t186.5 155.5t262 57.5q63 0 135.5 -9t139.5 -26zM769 948q-31 13 -71 19t-88 6q-93 0 -161.5 -52t-113 -137.5
t-66.5 -194t-22 -221.5q0 -65 6.5 -120.5t22.5 -95.5t41 -62.5t63 -22.5q47 0 94 40t89.5 107t80 156t65 187t43.5 199t17 192zM428 1436h543l-6 -107l-543 -8z" />
    <glyph glyph-name="aogonek" unicode="&#x105;" horiz-adv-x="1122" 
d="M965 9q-24 -16 -57 -25q-50 -26 -95 -60t-78.5 -74.5t-53 -86t-19.5 -93.5q0 -65 31.5 -104t91.5 -39q37 0 77.5 15.5t78.5 50.5l28 -35q-21 -24 -49.5 -47t-61 -41.5t-68 -29.5t-72.5 -11q-45 0 -80.5 15.5t-59.5 43t-35.5 66t-9.5 84.5q3 54 24 103.5t56.5 93.5t82 82
t100.5 69q-49 18 -70 64t-21 112q0 58 10.5 127.5t26.5 146.5h-6q-33 -101 -67 -174t-69 -124t-70 -82.5t-69 -49t-65.5 -23.5t-59.5 -6q-55 0 -102.5 19.5t-82.5 62t-55 110.5t-20 165q0 144 37.5 273t112 227t186.5 155.5t262 57.5q62 0 135 -9t140 -26
q-16 -122 -32.5 -245t-29.5 -232t-21 -195.5t-8 -136.5q0 -21 0.5 -43t6 -39.5t17 -29t34.5 -11.5q17 0 36.5 10.5t39.5 34t39 61.5t34 92l58 -12q-5 -27 -17 -61.5t-31.5 -70.5t-46.5 -69t-61 -55zM381 67q47 0 93.5 40t90 107t80.5 156t64.5 187t43.5 198.5t17 192.5
q-31 13 -71 19t-88 6q-93 0 -161.5 -52t-113 -137.5t-66.5 -194t-22 -221.5q0 -65 6.5 -120.5t22.5 -95.5t41 -62.5t63 -22.5z" />
    <glyph glyph-name="cacute" unicode="&#x107;" horiz-adv-x="1090" 
d="M79 0zM876 807q0 -48 -24 -74.5t-68 -26.5q-23 0 -38.5 8.5t-25 21.5t-14 27t-4.5 26q0 18 4.5 38.5t21.5 38.5q-11 57 -56.5 83t-105.5 26q-59 0 -105 -22t-80 -60t-57.5 -88t-37.5 -105.5t-20.5 -114t-6.5 -112.5q0 -108 18.5 -183t52 -122t79.5 -68.5t100 -21.5
q40 0 83 12.5t84 42.5t78.5 79t67.5 123l72 -34q-39 -89 -87 -150.5t-102 -100t-112.5 -56t-118.5 -17.5q-90 0 -163 27t-124.5 82.5t-79.5 140t-28 199.5q0 67 12.5 139t39 141t66 131t94 108.5t124 74t154.5 27.5q66 0 122 -18.5t97.5 -51t64.5 -76t23 -94.5zM542 1186
l-49 41l159 270q23 38 45 51.5t40 13.5q29 0 45.5 -17t16.5 -49q0 -18 -10 -40.5t-36 -50.5z" />
    <glyph glyph-name="ccaron" unicode="&#x10d;" horiz-adv-x="1090" 
d="M80 0zM877 807q0 -48 -24 -74.5t-68 -26.5q-23 0 -38.5 8.5t-25 21.5t-14 27t-4.5 26q0 18 4.5 38.5t21.5 38.5q-11 57 -56.5 83t-105.5 26q-59 0 -105 -22t-80 -60t-57.5 -88t-37.5 -105.5t-20.5 -114t-6.5 -112.5q0 -108 18.5 -183t52 -122t79.5 -68.5t100 -21.5
q40 0 83 12.5t84 42.5t78.5 79t67.5 123l72 -34q-39 -89 -87 -150.5t-102 -100t-112.5 -56t-118.5 -17.5q-90 0 -163 27t-124.5 82.5t-79.5 140t-28 199.5q0 67 12.5 139t39 141t66 131t94 108.5t124 74t154.5 27.5q66 0 122 -18.5t97.5 -51t64.5 -76t23 -94.5zM571 1188h-4
l-287 330l47 51l250 -234h4l287 242l45 -53z" />
    <glyph glyph-name="dcaron" unicode="&#x10f;" horiz-adv-x="1330" 
d="M78 0zM1323 1561q17 -36 22 -61.5t1 -61.5q-4 -41 -18.5 -81.5t-37 -79t-51.5 -74.5t-61 -68l-54 40q34 64 51.5 119.5t23 105.5t0 96t-16.5 92zM842 1417l-149 -8l8 82q67 0 111.5 4.5t73.5 12t46 17.5t29 21h59q-6 -38 -13 -85t-14 -95t-12.5 -93t-9.5 -79l-37 -320
q-11 -98 -22 -197t-19 -189t-13 -167.5t-5 -132.5q0 -20 1 -39.5t6.5 -34.5t16.5 -24.5t31 -9.5q17 0 36.5 10.5t39 34t38 61.5t33.5 93l60 -13q-7 -36 -26.5 -85.5t-52.5 -95t-79.5 -77t-107.5 -31.5q-42 0 -71.5 13.5t-49 37.5t-28.5 58t-9 76q0 60 7.5 123t23.5 141h-6
q-42 -141 -90.5 -228.5t-98.5 -136.5t-99.5 -66.5t-94.5 -17.5q-71 0 -123 30.5t-86.5 83.5t-51 123.5t-16.5 151.5q0 150 37.5 275t112.5 215t186.5 140.5t259.5 50.5q59 0 115 -9q6 57 13 119.5t17 134.5q5 37 10 66.5t13 58.5zM639 973q-72 0 -128.5 -25t-99.5 -67.5
t-73 -99t-48.5 -120t-27 -130.5t-8.5 -129q0 -70 7.5 -130t24.5 -104.5t44.5 -69.5t67.5 -25q48 0 97.5 43.5t93.5 115.5t80 165.5t58 194.5q16 72 27.5 159t24.5 202q-34 11 -69.5 15.5t-70.5 4.5z" />
    <glyph glyph-name="dcroat" unicode="&#x111;" horiz-adv-x="1137" 
d="M934 874q-11 -98 -21.5 -197t-19 -189t-13.5 -167.5t-5 -132.5q0 -20 1 -39.5t6.5 -34.5t16.5 -24.5t31 -9.5q17 0 36.5 10.5t39 34t38 61.5t33.5 93l60 -13q-7 -36 -26.5 -85.5t-52.5 -95t-79.5 -77t-107.5 -31.5q-42 0 -71.5 13.5t-49 37.5t-28.5 58t-9 76
q0 59 7.5 123t23.5 141h-6q-42 -141 -90.5 -228.5t-98.5 -136.5t-99.5 -66.5t-94.5 -17.5q-71 0 -123 30.5t-86.5 83.5t-51 123.5t-16.5 151.5q0 150 37.5 275t112.5 215t186.5 140.5t259.5 50.5q59 0 115 -9q4 35 8 72t9 77l-376 -4l6 89h380l3 20q5 37 10 66.5t13 58.5
l-150 -8l9 82q67 0 111.5 4.5t73.5 12.5t46 17.5t29 20.5h59q-5 -29 -10 -63t-10 -70t-10.5 -72t-9.5 -69h159l-6 -81l-163 -2zM727 592q16 72 27.5 159t24.5 202q-34 11 -69.5 15.5t-70.5 4.5q-72 0 -128.5 -25t-99.5 -67.5t-73 -99t-48.5 -120t-27 -130.5t-8.5 -129
q0 -70 7.5 -130t24.5 -104.5t44.5 -69.5t67.5 -25q48 0 97.5 43.5t93.5 115.5t80 165.5t58 194.5z" />
    <glyph glyph-name="ecaron" unicode="&#x11b;" horiz-adv-x="1110" 
d="M81 0zM865 811q0 -57 -27 -102.5t-73 -81.5t-106.5 -63t-127.5 -47t-136.5 -32.5t-133.5 -19.5q1 -193 57 -289t177 -96q45 0 90 14.5t88.5 44.5t83.5 76.5t74 111.5l67 -38q-86 -161 -192.5 -236.5t-245.5 -75.5q-98 0 -169 32t-118 90t-69.5 139.5t-22.5 181.5
q0 79 13.5 156.5t41 147t68.5 129t96.5 102.5t125 67.5t153.5 24.5q54 0 105.5 -12.5t91.5 -40t64.5 -72.5t24.5 -111zM550 977q-71 0 -122.5 -37.5t-86 -99t-53.5 -140.5t-25 -161q81 11 158.5 34t138.5 58.5t98.5 83t37.5 106.5q0 33 -9 61.5t-27 49.5t-45.5 33t-64.5 12z
M547 1188h-4l-287 330l47 51l250 -234h4l287 242l45 -53z" />
    <glyph glyph-name="edotaccent" unicode="&#x117;" horiz-adv-x="1110" 
d="M80 0zM864 811q0 -57 -27 -102.5t-73 -81.5t-106.5 -63t-127.5 -47t-136.5 -32.5t-133.5 -19.5q1 -193 57 -289t177 -96q45 0 90 14.5t88.5 44.5t83.5 76.5t74 111.5l67 -38q-86 -161 -192.5 -236.5t-245.5 -75.5q-98 0 -169 32t-118 90t-69.5 139.5t-22.5 181.5
q0 79 13.5 156.5t41 147t68.5 129t96.5 102.5t125 67.5t153.5 24.5q54 0 105.5 -12.5t91.5 -40t64.5 -72.5t24.5 -111zM549 977q-71 0 -122.5 -37.5t-86 -99t-53.5 -140.5t-25 -161q81 11 158.5 34t138.5 58.5t98.5 83t37.5 106.5q0 33 -9 61.5t-27 49.5t-45.5 33t-64.5 12z
M636.391 1366.56q-0.922852 -24.9072 -10.6152 -47.0469q-9.69336 -22.1396 -25.3857 -37.8223q-15.6924 -15.6816 -35.5391 -24.9062q-19.8467 -9.22559 -41.0771 -9.22559q-21.2314 0 -39.6934 8.76367t-32.3086 23.9854q-13.8467 15.2207 -22.1543 35.9766
t-8.30762 44.7402q0 25.8301 9.69238 48.4307t26.3086 39.667q16.6152 17.0664 37.8467 26.752q21.2314 9.68652 43.3857 9.68652q44.3086 0 71.0781 -32.2871t26.7695 -80.2568v-6.45703z" />
    <glyph glyph-name="emacron" unicode="&#x113;" horiz-adv-x="1110" 
d="M80 0zM864 811q0 -57 -27 -102.5t-73 -81.5t-106.5 -63t-127.5 -47t-136.5 -32.5t-133.5 -19.5q1 -193 57 -289t177 -96q45 0 90 14.5t88.5 44.5t83.5 76.5t74 111.5l67 -38q-86 -161 -192.5 -236.5t-245.5 -75.5q-98 0 -169 32t-118 90t-69.5 139.5t-22.5 181.5
q0 79 13.5 156.5t41 147t68.5 129t96.5 102.5t125 67.5t153.5 24.5q54 0 105.5 -12.5t91.5 -40t64.5 -72.5t24.5 -111zM549 977q-71 0 -122.5 -37.5t-86 -99t-53.5 -140.5t-25 -161q81 11 158.5 34t138.5 58.5t98.5 83t37.5 106.5q0 33 -9 61.5t-27 49.5t-45.5 33t-64.5 12z
M308 1436h543l-6 -107l-543 -8z" />
    <glyph glyph-name="eogonek" unicode="&#x119;" horiz-adv-x="977" 
d="M897 289q-61 -115 -131.5 -185.5t-157.5 -101.5q-56 -24 -107.5 -59.5t-90.5 -78.5t-62.5 -92.5t-23.5 -101.5q0 -65 31.5 -104t91.5 -39q37 0 77.5 15.5t78.5 50.5l28 -35q-21 -24 -49.5 -47t-61 -41.5t-68 -29.5t-72.5 -11q-45 0 -80.5 15.5t-59.5 43t-35.5 66
t-9.5 84.5q3 52 22.5 100t52.5 91t77 80t95 68q-93 3 -161 36t-113 91t-66.5 138t-21.5 178q0 79 13.5 156.5t41 147t68.5 129t96.5 102.5t125 67.5t153.5 24.5q54 0 105.5 -12.5t91.5 -40t64.5 -72.5t24.5 -111q0 -57 -27 -102.5t-73 -81.5t-106.5 -63t-127.5 -47
t-136.5 -32.5t-133.5 -19.5q1 -192 57 -288.5t177 -96.5q45 0 90 14.5t88.5 44.5t83.5 76.5t74 111.5zM549 977q-71 0 -122.5 -37.5t-86 -99t-53.5 -140.5t-25 -161q81 11 158.5 34t138.5 58.5t98.5 83t37.5 106.5q0 33 -9 61.5t-27 49.5t-45.5 33t-64.5 12z" />
    <glyph glyph-name="gbreve" unicode="&#x11f;" horiz-adv-x="1133" 
d="M29 0zM332 -555q-25 0 -56.5 3.5t-65 11.5t-65.5 21t-57.5 32t-41.5 45t-17 60q0 21 7.5 40t20 33.5t30 22.5t38.5 8q37 0 65 -23t28 -71q0 -26 -13 -53q10 -16 26 -27t35.5 -18t40 -10t39.5 -3q73 0 127 25.5t92 70t63.5 105.5t41.5 131t25 146.5t16 153.5t13 150
t16 137h-7q-29 -99 -59.5 -171.5t-62.5 -123.5t-64 -83t-64.5 -50t-64.5 -24.5t-63 -6.5q-72 0 -124 30t-86 83.5t-50.5 126t-16.5 158.5q0 132 35.5 253.5t109 214.5t186 148.5t266.5 55.5q34 0 70 -2.5t70.5 -7t65.5 -11t55 -14.5q-16 -250 -39 -502t-41 -481
q-12 -149 -53 -258.5t-108 -182t-158.5 -108t-204.5 -35.5zM778 946q-27 14 -62 20.5t-72 6.5q-75 0 -133.5 -26t-102.5 -69.5t-74 -100.5t-48.5 -119.5t-27 -126.5t-8.5 -121q0 -71 7.5 -132.5t25 -106.5t45.5 -71t70 -26q48 0 94 40t86.5 108t75 156.5t60.5 185.5
t42.5 195.5t21.5 186.5zM660 1245q-35 0 -73 14t-73.5 42.5t-65 72.5t-46.5 105l51 18q14 -29 37.5 -54.5t52.5 -45t63 -30.5t69 -11t69 11t64 30.5t55.5 47t44.5 60.5l47 -22q-25 -62 -58.5 -106.5t-72 -74t-80.5 -43.5t-84 -14z" />
    <glyph glyph-name="gcommaaccent" unicode="&#x123;" horiz-adv-x="1061" 
d="M516 1163q-20 51 -15 106q7 78 58 157.5t130 152.5l51 -40q-39 -61 -58 -106.5t-25.5 -83.5t-4 -74.5t7.5 -79.5zM733 436q-43 -148 -90 -238.5t-96 -139.5t-97.5 -65t-94.5 -16q-72 0 -124 30t-86 83.5t-50.5 126t-16.5 158.5q0 132 35.5 253.5t109 214.5t186 148.5
t266.5 55.5q34 0 70 -2.5t70.5 -7t65.5 -11t55 -14.5q-8 -124 -17.5 -250.5t-20.5 -251.5t-22 -246t-20 -235q-12 -149 -53 -258.5t-108 -182t-158.5 -108t-204.5 -35.5q-25 0 -56.5 3.5t-65 11.5t-65.5 21t-57.5 32t-41.5 45t-17 60q0 21 7.5 40t20 33.5t30 22.5t38.5 8
q37 0 65 -23.5t28 -70.5q0 -24 -13 -53q10 -16 26 -27t35.5 -18t40.5 -10t39 -3q73 0 126.5 25.5t92 70t64 105.5t41.5 131t25.5 146.5t16 153.5t12.5 150t16 137h-7zM644 973q-75 0 -133.5 -26t-102.5 -69.5t-74 -100.5t-48.5 -119.5t-27 -126.5t-8.5 -121
q0 -71 7.5 -132.5t25 -106.5t45.5 -71t70 -26q48 0 93.5 40.5t86.5 108t75.5 156t60.5 185.5t42.5 195.5t21.5 186.5q-27 14 -62 20.5t-72 6.5z" />
    <glyph glyph-name="imacron" unicode="&#x12b;" horiz-adv-x="575" 
d="M9 0zM445 834q0 -62 -12 -141.5t-27 -168t-27 -180.5t-12 -178q0 -42 15 -64t49 -22q17 0 36.5 10.5t39.5 34t39 61.5t34 92l58 -12q-9 -43 -28.5 -93.5t-50.5 -94t-74.5 -72.5t-100.5 -29q-185 0 -185 193q0 89 12.5 174t27.5 168.5t27.5 168t12.5 171.5q0 13 -2.5 29
t-8.5 30t-17 23.5t-29 9.5q-17 0 -36.5 -10.5t-40 -34t-39.5 -61.5t-34 -92l-57 12q7 36 25 85.5t49.5 95t76.5 77t107 31.5q43 0 75.5 -15.5t54 -43.5t32 -67t10.5 -87zM15 1436h543l-6 -107l-543 -8z" />
    <glyph glyph-name="iogonek" unicode="&#x12f;" horiz-adv-x="664" 
d="M349 1248q-22 0 -41 9t-33 25t-22 37.5t-7 47.5q1 25 11.5 46.5t26.5 37.5t36.5 25.5t42.5 9.5t41 -9.5t32 -25.5t19.5 -37.5t5.5 -46.5q-1 -26 -10.5 -47.5t-25 -37.5t-35.5 -25t-41 -9zM637 266q-9 -43 -28.5 -93.5t-50 -94t-73.5 -72.5t-100 -29q-35 -26 -65 -56
t-51.5 -63.5t-33.5 -69.5t-12 -73q0 -65 31.5 -104t91.5 -39q37 0 77.5 15.5t78.5 50.5l28 -35q-21 -24 -49.5 -47t-61 -41.5t-68 -29.5t-72.5 -11q-45 0 -80.5 15.5t-59.5 43t-35.5 66t-9.5 84.5q5 92 60.5 170.5t140.5 138.5q-97 39 -97 178q0 89 12.5 174t27.5 168.5
t27.5 168t12.5 171.5q0 13 -2.5 29t-8.5 30t-17 23.5t-29 9.5q-17 0 -36.5 -10.5t-40 -34t-39.5 -61.5t-34 -92l-57 12q7 36 25 85.5t49.5 95t76.5 77t107 31.5q43 0 75.5 -15.5t54 -43.5t32 -67t10.5 -87q0 -62 -12 -141.5t-27 -168t-27 -180.5t-12 -178q0 -42 15 -64
t49 -22q17 0 36.5 10.5t39.5 34t39 61.5t34 92z" />
    <glyph glyph-name="kcommaaccent" unicode="&#x137;" horiz-adv-x="1100" 
d="M102 0zM375 1198q-19 -144 -34 -298t-26 -310h7q46 136 94 224t98 140t102.5 72.5t106.5 20.5q52 0 90 -19t62 -50t35.5 -71t11.5 -81q0 -55 -24 -113.5t-73 -110t-123.5 -91.5t-175.5 -58v-2q35 -1 61.5 -9t47 -25t38 -44t34.5 -66t34 -77.5t35 -69t38.5 -49.5t44.5 -19
q30 0 53 28.5t40 99.5l58 -12q-9 -43 -27 -84.5t-45 -74t-64 -52.5t-85 -20q-39 0 -71 15.5t-59.5 48t-53 83.5t-52.5 122q-20 50 -37 86.5t-34.5 60t-38.5 35t-50 12.5l-54 -1q-23 -85 -35.5 -170t-12.5 -160q0 -31 1 -57t3 -52h-168q-2 22 -2 30q0 27 2.5 82t6.5 130
t10 165.5t13 188t15.5 197.5t17.5 193.5t18 176t19 146.5q4 26 6.5 41t5 25.5t4 19.5t3.5 22l-144 -8l9 82q67 0 111 4.5t72.5 12t44.5 17.5t28 21h59q-8 -38 -15.5 -84.5t-14 -93.5t-12 -91.5t-9.5 -78.5zM667 951q-49 -3 -91.5 -41t-82 -100t-75 -143t-62.5 -169h2
q196 0 297 82.5t101 241.5q0 19 -3 41.5t-12.5 42t-27 32.5t-46.5 13zM511 -115q20 -51 15 -106q-7 -78 -58 -157.5t-130 -152.5l-51 40q39 61 58 106.5t25.5 83.5t4 74.5t-7.5 79.5z" />
    <glyph glyph-name="lacute" unicode="&#x13a;" horiz-adv-x="557" 
d="M111 0zM238 1307q4 27 7 43.5t5 28t3.5 19.5t3.5 19l-146 -8l9 82q67 0 111.5 4.5t73.5 12t46 17.5t29 21h59q-6 -38 -14 -84.5t-15.5 -93.5t-14.5 -91.5t-11 -78.5q-9 -72 -19.5 -161.5t-20.5 -185.5t-19.5 -193t-16.5 -185.5t-11.5 -162.5t-4.5 -123q0 -20 1.5 -39.5
t7 -34.5t17 -24.5t31.5 -9.5q16 0 36 10.5t39.5 34t38.5 61.5t34 93l59 -13q-7 -36 -26.5 -85.5t-52 -94.5t-79.5 -76.5t-108 -31.5q-89 0 -126.5 45.5t-37.5 137.5q0 48 5 127t13.5 177.5t20 209t24 222t25 217.5t24.5 194zM264 1599l-49 41l159 270q23 38 45 51.5t40 13.5
q29 0 45.5 -17t16.5 -49q0 -18 -10 -40.5t-36 -50.5z" />
    <glyph glyph-name="lcaron" unicode="&#x13e;" horiz-adv-x="745" 
d="M111 0zM738 1561q17 -36 22 -61.5t1 -61.5q-4 -41 -18.5 -81.5t-37 -79t-51.5 -74.5t-61 -68l-54 40q34 64 51.5 119.5t23 105.5t0 96t-16.5 92zM238 1307q4 27 7 43.5t5 28t3.5 19.5t3.5 19l-146 -8l9 82q67 0 111.5 4.5t73.5 12t46 17.5t29 21h59q-6 -38 -14 -84.5
t-15.5 -93.5t-14.5 -91.5t-11 -78.5q-9 -72 -19.5 -161.5t-20.5 -185.5t-19.5 -193t-16.5 -185.5t-11.5 -162.5t-4.5 -123q0 -20 1.5 -39.5t7 -34.5t17 -24.5t31.5 -9.5q16 0 36 10.5t39.5 34t38.5 61.5t34 93l59 -13q-7 -36 -26.5 -85.5t-52 -94.5t-79.5 -76.5t-108 -31.5
q-89 0 -126.5 45.5t-37.5 137.5q0 48 5 127t13.5 177.5t20 209t24 222t25 217.5t24.5 194z" />
    <glyph glyph-name="lcommaaccent" unicode="&#x13c;" horiz-adv-x="557" 
d="M106 0zM239 1307q4 27 7 43.5t5 28t3.5 19.5t3.5 19l-146 -8l9 82q67 0 111.5 4.5t73.5 12t46 17.5t29 21h59q-6 -38 -14 -84.5t-15.5 -93.5t-14.5 -91.5t-11 -78.5q-9 -72 -19.5 -161.5t-20.5 -185.5t-19.5 -193t-16.5 -185.5t-11.5 -162.5t-4.5 -123q0 -20 1.5 -39.5
t7 -34.5t17 -24.5t31.5 -9.5q16 0 36 10.5t39.5 34t38.5 61.5t34 93l59 -13q-7 -36 -26.5 -85.5t-52 -94.5t-79.5 -76.5t-108 -31.5q-89 0 -126.5 45.5t-37.5 137.5q0 48 5 127t13.5 177.5t20 209t24 222t25 217.5t24.5 194zM330 -115q20 -51 15 -106q-7 -78 -58 -157.5
t-130 -152.5l-51 40q39 61 58 106.5t25.5 83.5t4 74.5t-7.5 79.5z" />
    <glyph glyph-name="nacute" unicode="&#x144;" horiz-adv-x="1243" 
d="M15 0zM367 109q0 -31 1 -57t3 -52h-172q-2 22 -2 30q0 28 2 59t6.5 78.5t12.5 117.5t20 178q9 80 15.5 136t10.5 94t7 62t4 40.5t1.5 29t0.5 27.5q0 18 -2 35t-8 29.5t-16.5 20t-28.5 7.5q-17 0 -36.5 -10.5t-40 -34t-39.5 -61.5t-34 -92l-57 12q7 36 26.5 85.5t52.5 95
t79.5 77t107.5 31.5q45 0 75 -17.5t47 -47t24 -68t7 -81.5q0 -33 -3.5 -68t-8 -68t-10.5 -63t-10 -54h6q52 140 103 230.5t101.5 143t100 73t99.5 20.5q61 0 104 -21.5t69 -58t38 -85t12 -101.5q0 -85 -9.5 -174t-21 -170.5t-21 -149.5t-9.5 -112q0 -19 1.5 -36.5t7.5 -30.5
t17 -21t29 -8q16 0 36 10.5t40 34t39 61.5t34 93l58 -13q-7 -36 -26.5 -85.5t-52.5 -94.5t-79.5 -76.5t-107.5 -31.5q-49 0 -81 13t-51 38.5t-26.5 62t-7.5 84.5q0 57 10 135t21.5 165.5t21.5 178t10 172.5q0 18 -4 39.5t-14.5 40.5t-29 32t-48.5 13q-47 0 -95.5 -38.5
t-93.5 -103t-84 -149.5t-68 -178.5t-46 -190t-17 -182.5zM639 1186l-49 41l159 270q23 38 45 51.5t40 13.5q29 0 45.5 -17t16.5 -49q0 -18 -10 -40.5t-36 -50.5z" />
    <glyph glyph-name="ncaron" unicode="&#x148;" horiz-adv-x="1243" 
d="M16 0zM368 109q0 -31 1 -57t3 -52h-172q-2 22 -2 30q0 28 2 59t6.5 78.5t12.5 117.5t20 178q9 80 15.5 136t10.5 94t7 62t4 40.5t1.5 29t0.5 27.5q0 18 -2 35t-8 29.5t-16.5 20t-28.5 7.5q-17 0 -36.5 -10.5t-40 -34t-39.5 -61.5t-34 -92l-57 12q7 36 26.5 85.5t52.5 95
t79.5 77t107.5 31.5q45 0 75 -17.5t47 -47t24 -68t7 -81.5q0 -33 -3.5 -68t-8 -68t-10.5 -63t-10 -54h6q52 140 103 230.5t101.5 143t100 73t99.5 20.5q61 0 104 -21.5t69 -58t38 -85t12 -101.5q0 -85 -9.5 -174t-21 -170.5t-21 -149.5t-9.5 -112q0 -19 1.5 -36.5t7.5 -30.5
t17 -21t29 -8q16 0 36 10.5t40 34t39 61.5t34 93l58 -13q-7 -36 -26.5 -85.5t-52.5 -94.5t-79.5 -76.5t-107.5 -31.5q-49 0 -81 13t-51 38.5t-26.5 62t-7.5 84.5q0 57 10 135t21.5 165.5t21.5 178t10 172.5q0 18 -4 39.5t-14.5 40.5t-29 32t-48.5 13q-47 0 -95.5 -38.5
t-93.5 -103t-84 -149.5t-68 -178.5t-46 -190t-17 -182.5zM727 1188h-4l-287 330l47 51l250 -234h4l287 242l45 -53z" />
    <glyph glyph-name="ncommaaccent" unicode="&#x146;" horiz-adv-x="1243" 
d="M16 0zM368 109q0 -31 1 -57t3 -52h-172q-2 22 -2 30q0 28 2 59t6.5 78.5t12.5 117.5t20 178q9 80 15.5 136t10.5 94t7 62t4 40.5t1.5 29t0.5 27.5q0 18 -2 35t-8 29.5t-16.5 20t-28.5 7.5q-17 0 -36.5 -10.5t-40 -34t-39.5 -61.5t-34 -92l-57 12q7 36 26.5 85.5t52.5 95
t79.5 77t107.5 31.5q45 0 75 -17.5t47 -47t24 -68t7 -81.5q0 -33 -3.5 -68t-8 -68t-10.5 -63t-10 -54h6q52 140 103 230.5t101.5 143t100 73t99.5 20.5q61 0 104 -21.5t69 -58t38 -85t12 -101.5q0 -85 -9.5 -174t-21 -170.5t-21 -149.5t-9.5 -112q0 -19 1.5 -36.5t7.5 -30.5
t17 -21t29 -8q16 0 36 10.5t40 34t39 61.5t34 93l58 -13q-7 -36 -26.5 -85.5t-52.5 -94.5t-79.5 -76.5t-107.5 -31.5q-49 0 -81 13t-51 38.5t-26.5 62t-7.5 84.5q0 57 10 135t21.5 165.5t21.5 178t10 172.5q0 18 -4 39.5t-14.5 40.5t-29 32t-48.5 13q-47 0 -95.5 -38.5
t-93.5 -103t-84 -149.5t-68 -178.5t-46 -190t-17 -182.5zM683 -115q20 -51 15 -106q-7 -78 -58 -157.5t-130 -152.5l-51 40q39 61 58 106.5t25.5 83.5t4 74.5t-7.5 79.5z" />
    <glyph glyph-name="ohungarumlaut" unicode="&#x151;" horiz-adv-x="1198" 
d="M80 0zM795 558q0 47 -4.5 96t-15.5 95t-29 86t-45 70.5t-64 48t-86 17.5q-69 0 -123.5 -38.5t-91.5 -105t-56.5 -155.5t-19.5 -190q0 -47 4.5 -97t15.5 -97.5t28.5 -89.5t44 -74t62 -50.5t81.5 -18.5q53 0 95.5 22t75.5 58.5t57 85t39.5 102t23 108.5t8.5 127zM473 -23
q-101 0 -175 36t-122.5 98t-72 146t-23.5 179q0 124 35 235.5t100 194.5t159 132t212 49q83 0 154 -30t123.5 -87t82 -140.5t29.5 -191.5q0 -124 -33.5 -236.5t-98 -198t-158 -136t-212.5 -50.5zM367 1198l-45 45l195 250q29 37 53.5 50t43.5 13q30 0 42.5 -16t12.5 -38
q0 -17 -12.5 -39.5t-47.5 -53.5zM646 1217l-37 47l225 231q31 33 57 46t46 13q30 0 43.5 -19.5t13.5 -39.5q1 -20 -15.5 -42.5t-56.5 -49.5z" />
    <glyph glyph-name="omacron" unicode="&#x14d;" horiz-adv-x="1198" 
d="M79 0zM794 558q0 47 -4.5 96t-15.5 95t-29 86t-45 70.5t-64 48t-86 17.5q-69 0 -123.5 -38.5t-91.5 -105t-56.5 -155.5t-19.5 -190q0 -47 4.5 -97t15.5 -97.5t28.5 -89.5t44 -74t62 -50.5t81.5 -18.5q53 0 95.5 22t75.5 58.5t57 85t39.5 102t23 108.5t8.5 127zM472 -23
q-101 0 -175 36t-122.5 98t-72 146t-23.5 179q0 124 35 235.5t100 194.5t159 132t212 49q83 0 154 -30t123.5 -87t82 -140.5t29.5 -191.5q0 -124 -33.5 -236.5t-98 -198t-158 -136t-212.5 -50.5zM385 1436h543l-6 -107l-543 -8z" />
    <glyph glyph-name="racute" unicode="&#x155;" horiz-adv-x="887" 
d="M15 0zM748 915q-6 2 -11.5 2h-10.5q-46 0 -89.5 -39.5t-83 -105t-72.5 -151t-56.5 -177.5t-37 -184.5t-13.5 -171.5v-26t0.5 -20.5t1.5 -19t2 -22.5h-170q-2 22 -2 30q0 27 0.5 59.5t3.5 81.5t9.5 121.5t18.5 180.5q9 80 15 135t10.5 92t7.5 59.5t4.5 38t2 27.5t0.5 28
q0 18 -2 34t-8 29t-17 20.5t-29 7.5q-17 0 -36.5 -10.5t-40 -34t-39.5 -61.5t-34 -92l-57 12q7 36 26.5 85.5t52.5 95t79.5 77t107.5 31.5q42 0 71 -14t46.5 -40t25 -63t7.5 -82q0 -53 -8 -115.5t-22 -132.5h6q45 133 92 219.5t95.5 137t98.5 70.5t100 20q31 0 57 -8.5
t45.5 -24t30.5 -37.5t11 -49q0 -18 -6.5 -36t-18.5 -31.5t-29.5 -22t-39.5 -8.5q-38 0 -64 21.5t-31 63.5zM511 1186l-49 41l159 270q23 38 45 51.5t40 13.5q29 0 45.5 -17t16.5 -49q0 -18 -10 -40.5t-36 -50.5z" />
    <glyph glyph-name="rcaron" unicode="&#x159;" horiz-adv-x="887" 
d="M16 0zM749 915q-6 2 -11.5 2h-10.5q-46 0 -89.5 -39.5t-83 -105t-72.5 -151t-56.5 -177.5t-37 -184.5t-13.5 -171.5v-26t0.5 -20.5t1.5 -19t2 -22.5h-170q-2 22 -2 30q0 27 0.5 59.5t3.5 81.5t9.5 121.5t18.5 180.5q9 80 15 135t10.5 92t7.5 59.5t4.5 38t2 27.5t0.5 28
q0 18 -2 34t-8 29t-17 20.5t-29 7.5q-17 0 -36.5 -10.5t-40 -34t-39.5 -61.5t-34 -92l-57 12q7 36 26.5 85.5t52.5 95t79.5 77t107.5 31.5q42 0 71 -14t46.5 -40t25 -63t7.5 -82q0 -53 -8 -115.5t-22 -132.5h6q45 133 92 219.5t95.5 137t98.5 70.5t100 20q31 0 57 -8.5
t45.5 -24t30.5 -37.5t11 -49q0 -18 -6.5 -36t-18.5 -31.5t-29.5 -22t-39.5 -8.5q-38 0 -64 21.5t-31 63.5zM557 1188h-4l-287 330l47 51l250 -234h4l287 242l45 -53z" />
    <glyph glyph-name="rcommaaccent" unicode="&#x157;" horiz-adv-x="887" 
d="M16 0zM749 915q-6 2 -11.5 2h-10.5q-46 0 -89.5 -39.5t-83 -105t-72.5 -151t-56.5 -177.5t-37 -184.5t-13.5 -171.5v-26t0.5 -20.5t1.5 -19t2 -22.5h-170q-2 22 -2 30q0 27 0.5 59.5t3.5 81.5t9.5 121.5t18.5 180.5q9 80 15 135t10.5 92t7.5 59.5t4.5 38t2 27.5t0.5 28
q0 18 -2 34t-8 29t-17 20.5t-29 7.5q-17 0 -36.5 -10.5t-40 -34t-39.5 -61.5t-34 -92l-57 12q7 36 26.5 85.5t52.5 95t79.5 77t107.5 31.5q42 0 71 -14t46.5 -40t25 -63t7.5 -82q0 -53 -8 -115.5t-22 -132.5h6q45 133 92 219.5t95.5 137t98.5 70.5t100 20q31 0 57 -8.5
t45.5 -24t30.5 -37.5t11 -49q0 -18 -6.5 -36t-18.5 -31.5t-29.5 -22t-39.5 -8.5q-38 0 -64 21.5t-31 63.5zM405 -115q20 -51 15 -106q-7 -78 -58 -157.5t-130 -152.5l-51 40q39 61 58 106.5t25.5 83.5t4 74.5t-7.5 79.5z" />
    <glyph glyph-name="sacute" unicode="&#x15b;" horiz-adv-x="948" 
d="M61 0zM215 147q8 -22 25 -39.5t40.5 -29.5t50.5 -18.5t55 -6.5q111 0 166 50.5t55 144.5q0 52 -36.5 93.5t-92 79t-119.5 73.5t-119.5 76.5t-92 89t-36.5 110.5q0 56 25.5 106.5t72 88.5t111.5 60t145 22q58 0 112.5 -14.5t97 -40.5t68 -63t25.5 -83q0 -45 -24.5 -70
t-61.5 -25t-59.5 25t-22.5 57q0 16 4 32t15 33q-11 34 -51 57.5t-109 23.5q-34 0 -67.5 -11.5t-60.5 -33t-43.5 -51.5t-16.5 -66q0 -37 21.5 -68.5t57 -59.5t81 -54.5t92.5 -54.5t92.5 -59t81 -67.5t57 -80t21.5 -97.5q0 -65 -28 -119.5t-79 -94.5t-122 -62.5t-156 -22.5
q-62 0 -121.5 14.5t-105.5 42t-74 68.5t-28 94q0 45 25.5 73t63.5 28q41 0 62 -27t21 -60q0 -15 -3.5 -30.5t-14.5 -32.5zM442 1186l-49 41l159 270q23 38 45 51.5t40 13.5q29 0 45.5 -17t16.5 -49q0 -18 -10 -40.5t-36 -50.5z" />
    <glyph glyph-name="scedilla" unicode="&#x15f;" horiz-adv-x="877" 
d="M347 -21q-56 4 -108 20.5t-91.5 44t-63 66t-23.5 86.5q0 45 25.5 73t63.5 28q41 0 62 -27t21 -60q0 -15 -3.5 -30.5t-14.5 -32.5q8 -22 25 -39.5t40.5 -29.5t50.5 -18.5t55 -6.5q110 0 165.5 51t55.5 144q0 52 -36.5 93.5t-92 79t-119.5 73.5t-119.5 76.5t-92 89
t-36.5 110.5q0 56 25.5 106.5t72 88.5t112 60t144.5 22q58 0 112.5 -14.5t97 -40.5t68 -63t25.5 -83q0 -44 -24.5 -69.5t-61.5 -25.5t-59.5 25t-22.5 57q0 16 4 32t15 33q-11 34 -51 57.5t-109 23.5q-34 0 -67.5 -11.5t-60.5 -33t-43.5 -51.5t-16.5 -66q0 -37 21.5 -68.5
t57 -59.5t81 -54.5t92.5 -54.5t92.5 -59t81 -67.5t57 -80t21.5 -97.5q0 -59 -23.5 -109.5t-66.5 -89.5t-103.5 -64.5t-133.5 -32.5l-49 -138q29 19 66 29t72 10q34 0 60 -10.5t43.5 -28.5t25.5 -42t6 -52q-4 -41 -25.5 -73.5t-54.5 -57.5t-75 -43.5t-86 -31t-87 -21
t-78 -13.5l-8 64q52 9 99.5 23.5t83.5 34t57.5 44t21.5 54.5q0 31 -17 46t-42.5 17t-54 -7t-50.5 -24l-69 35z" />
    <glyph glyph-name="scommaaccent" unicode="&#x219;" horiz-adv-x="948" 
d="M62 0zM216 147q8 -22 25 -39.5t40.5 -29.5t50.5 -18.5t55 -6.5q111 0 166 50.5t55 144.5q0 52 -36.5 93.5t-92 79t-119.5 73.5t-119.5 76.5t-92 89t-36.5 110.5q0 56 25.5 106.5t72 88.5t111.5 60t145 22q58 0 112.5 -14.5t97 -40.5t68 -63t25.5 -83q0 -45 -24.5 -70
t-61.5 -25t-59.5 25t-22.5 57q0 16 4 32t15 33q-11 34 -51 57.5t-109 23.5q-34 0 -67.5 -11.5t-60.5 -33t-43.5 -51.5t-16.5 -66q0 -37 21.5 -68.5t57 -59.5t81 -54.5t92.5 -54.5t92.5 -59t81 -67.5t57 -80t21.5 -97.5q0 -65 -28 -119.5t-79 -94.5t-122 -62.5t-156 -22.5
q-62 0 -121.5 14.5t-105.5 42t-74 68.5t-28 94q0 45 25.5 73t63.5 28q41 0 62 -27t21 -60q0 -15 -3.5 -30.5t-14.5 -32.5zM470 -115q20 -51 15 -106q-7 -78 -58 -157.5t-130 -152.5l-51 40q39 61 58 106.5t25.5 83.5t4 74.5t-7.5 79.5z" />
    <glyph glyph-name="tcaron" unicode="&#x165;" horiz-adv-x="745" 
d="M810 1649q17 -36 22 -61.5t1 -61.5q-4 -41 -18.5 -81.5t-37 -79t-51.5 -74.5t-61 -68l-54 40q34 64 51.5 119.5t23 105.5t0 96t-16.5 92zM407 1024h326l-6 -77l-328 -5q-9 -86 -19.5 -177.5t-19 -181t-14.5 -172.5t-6 -151q0 -30 2.5 -61.5t12 -57.5t28.5 -42.5t53 -16.5
q15 0 36 4t46 18.5t53.5 43t57.5 77.5l53 -35q-30 -52 -61.5 -92t-67 -67t-76.5 -40.5t-90 -13.5q-60 0 -101 19.5t-65.5 53t-35.5 77.5t-11 92q0 58 3.5 136.5t10 171.5t16.5 197.5t23 215.5l-182 -2l6 86q126 0 200.5 75t114.5 214h78z" />
    <glyph glyph-name="uhungarumlaut" unicode="&#x171;" horiz-adv-x="1223" 
d="M14 0zM856 915q0 31 -1 57t-3 52h172q2 -22 2 -30q0 -29 -1.5 -61t-6 -80.5t-12.5 -120t-21 -179.5q-9 -80 -15.5 -135t-10.5 -92.5t-7 -60.5t-4 -38.5t-1.5 -27.5t-0.5 -27q0 -37 11.5 -63.5t43.5 -26.5q16 0 36 10t40.5 33.5t39.5 61t34 91.5l57 -12
q-7 -36 -26.5 -85.5t-52 -95t-79 -77t-108.5 -31.5q-42 0 -71.5 13.5t-49 37.5t-28.5 58t-9 76q0 58 11 127t26 147h-6q-52 -140 -100 -229t-95 -140t-94 -70.5t-97 -19.5q-62 0 -104.5 21.5t-69 58.5t-38.5 85.5t-12 101.5q0 85 10 173.5t22.5 169.5t22.5 149t10 112
q0 19 -1.5 36.5t-7.5 30.5t-17 21t-29 8q-17 0 -36 -10.5t-38 -34t-37 -61.5t-33 -92l-57 12q7 36 25.5 85.5t50 95t77 77t107.5 31.5q82 0 124 -51t42 -148q0 -39 -5 -90t-12.5 -108.5t-16 -118t-16 -119.5t-12.5 -112.5t-5 -96.5q0 -18 3.5 -40t14 -42t29.5 -33.5
t49 -13.5q47 0 94 38.5t90 103t80 149.5t64.5 178.5t43 189.5t15.5 182zM453 1198l-45 45l195 250q29 37 53.5 50t43.5 13q30 0 42.5 -16t12.5 -38q0 -17 -12.5 -39.5t-47.5 -53.5zM732 1217l-37 47l225 231q31 33 57 46t46 13q30 0 43.5 -19.5t13.5 -39.5
q1 -20 -15.5 -42.5t-56.5 -49.5z" />
    <glyph glyph-name="umacron" unicode="&#x16b;" horiz-adv-x="1223" 
d="M13 0zM855 915q0 31 -1 57t-3 52h172q2 -22 2 -30q0 -29 -1.5 -61t-6 -80.5t-12.5 -120t-21 -179.5q-9 -80 -15.5 -135t-10.5 -92.5t-7 -60.5t-4 -38.5t-1.5 -27.5t-0.5 -27q0 -37 11.5 -63.5t43.5 -26.5q16 0 36 10t40.5 33.5t39.5 61t34 91.5l57 -12
q-7 -36 -26.5 -85.5t-52 -95t-79 -77t-108.5 -31.5q-42 0 -71.5 13.5t-49 37.5t-28.5 58t-9 76q0 58 11 127t26 147h-6q-52 -140 -100 -229t-95 -140t-94 -70.5t-97 -19.5q-62 0 -104.5 21.5t-69 58.5t-38.5 85.5t-12 101.5q0 85 10 173.5t22.5 169.5t22.5 149t10 112
q0 19 -1.5 36.5t-7.5 30.5t-17 21t-29 8q-17 0 -36 -10.5t-38 -34t-37 -61.5t-33 -92l-57 12q7 36 25.5 85.5t50 95t77 77t107.5 31.5q82 0 124 -51t42 -148q0 -39 -5 -90t-12.5 -108.5t-16 -118t-16 -119.5t-12.5 -112.5t-5 -96.5q0 -18 3.5 -40t14 -42t29.5 -33.5
t49 -13.5q47 0 94 38.5t90 103t80 149.5t64.5 178.5t43 189.5t15.5 182zM367 1436h543l-6 -107l-543 -8z" />
    <glyph glyph-name="uni0149" unicode="&#x149;" horiz-adv-x="1243" 
d="M16 0zM368 109q0 -31 1 -57t3 -52h-172q-2 22 -2 30q0 28 2 59t6.5 78.5t12.5 117.5t20 178q9 80 15.5 136t10.5 94t7 62t4 40.5t1.5 29t0.5 27.5q0 18 -2 35t-8 29.5t-16.5 20t-28.5 7.5q-17 0 -36.5 -10.5t-40 -34t-39.5 -61.5t-34 -92l-57 12q7 36 26.5 85.5t52.5 95
t79.5 77t107.5 31.5q45 0 75 -17.5t47 -47t24 -68t7 -81.5q0 -33 -3.5 -68t-8 -68t-10.5 -63t-10 -54h6q52 140 103 230.5t101.5 143t100 73t99.5 20.5q61 0 104 -21.5t69 -58t38 -85t12 -101.5q0 -85 -9.5 -174t-21 -170.5t-21 -149.5t-9.5 -112q0 -19 1.5 -36.5t7.5 -30.5
t17 -21t29 -8q16 0 36 10.5t40 34t39 61.5t34 93l58 -13q-7 -36 -26.5 -85.5t-52.5 -94.5t-79.5 -76.5t-107.5 -31.5q-49 0 -81 13t-51 38.5t-26.5 62t-7.5 84.5q0 57 10 135t21.5 165.5t21.5 178t10 172.5q0 18 -4 39.5t-14.5 40.5t-29 32t-48.5 13q-47 0 -95.5 -38.5
t-93.5 -103t-84 -149.5t-68 -178.5t-46 -190t-17 -182.5zM161 1233q18 20 38 54t37 75.5t28 87.5t11 108h-3q-13 -5 -25 -7t-23 -2q-20 0 -36.5 8t-28.5 21t-18.5 30.5t-6.5 35.5q0 28 9 49.5t25 36t36.5 22t44.5 7.5q63 0 97 -44.5t34 -116.5q0 -38 -10.5 -88.5t-31.5 -105
t-52.5 -109.5t-73.5 -103z" />
    <glyph glyph-name="uni0163" unicode="&#x163;" horiz-adv-x="745" 
d="M399 942q-9 -86 -19.5 -177.5t-19 -181t-14.5 -172.5t-6 -151q0 -30 2.5 -61.5t12 -57.5t28.5 -42.5t53 -16.5q15 0 36 4t46 18.5t53.5 43t57.5 77.5l53 -35q-56 -98 -119.5 -151.5t-151.5 -60.5l-48 -136q29 19 66 29t72 10q34 0 60 -10.5t43.5 -28.5t25.5 -42t6 -52
q-3 -41 -25 -73.5t-55 -57.5t-75 -43.5t-86 -31t-87 -21t-78 -13.5l-8 64q52 9 99.5 23.5t83.5 34t57.5 44t21.5 54.5q0 31 -17 46t-42.5 17t-54 -7t-50.5 -24l-69 35l62 192q-39 11 -65.5 33.5t-43 53t-23.5 68t-7 77.5q0 58 3.5 136.5t10 171.5t16.5 197.5t23 215.5
l-182 -2l6 86q126 0 200.5 75t114.5 214h78l-37 -289h326l-6 -77z" />
    </font>
</defs>
</svg>
